<svg width="30" height="32" viewBox="0 0 30 32" fill="none" xmlns="http://www.w3.org/2000/svg">
<path d="M2 6.59424L1.5 7.59424L1 8.09424V22.5942L1.5 24.0942L15 29.5942L28 23.0942V7.59424L17.5 2.09424L14.5 1.09424L11.5 2.59424V4.09424L9.5 3.09424L6 5.09424V6.59424L4.5 5.59424L2 6.59424Z" fill="white"/>
<path d="M6.2368 17.7077C6.2368 17.9496 6.05988 18.2261 5.84165 18.3253L4.79447 18.801C4.50347 18.9332 4.26758 18.7788 4.26758 18.4563V5.56543L6.2368 6.49V17.7077Z" fill="black"/>
<path d="M11.5883 15.1819C11.5883 15.4238 11.4114 15.7003 11.1932 15.7994L10.146 16.2751C9.85504 16.4073 9.61914 16.253 9.61914 15.9304V3.16846L11.5883 4.09307V15.1819Z" fill="black"/>
<path d="M14.9444 18.8229C14.9443 18.8204 14.9443 18.818 14.9443 18.8156V14.2484C14.9443 14.0361 15.1613 13.8948 15.3526 13.9826L25.3305 18.5631C25.477 18.6304 25.5962 18.5541 25.5962 18.393V16.7368C25.5962 16.5769 25.4788 16.3936 25.3334 16.3265L15.1133 11.6132C15.0104 11.5657 14.9443 11.4619 14.9443 11.3475V7.78693C14.9443 7.57459 15.1613 7.43328 15.3526 7.52105L25.3305 12.1016C25.477 12.1689 25.5962 12.0926 25.5962 11.9314V10.2752C25.5962 10.1153 25.4788 9.93205 25.3334 9.865L15.1133 5.15164C15.0104 5.10419 14.9443 5.00034 14.9443 4.88597V1.05566H15.8485L26.9166 6.12805C27.3531 6.32635 28.6069 7.51485 28.9996 9.02462L29 22.1547C29 23.9944 27.9324 25.6629 26.2728 26.4168L17.2118 30.5329C15.9024 31.1278 13.7793 31.1278 12.4698 30.5329L3.1555 26.3017L2.88936 24.8697C2.88102 24.8248 2.89248 24.7796 2.9231 24.7367L3.47286 23.967L14.5774 18.8666C14.6763 18.8212 14.818 18.8066 14.9444 18.8229Z" fill="black"/>
<path d="M1.13574 22.5173V8.47457C1.13574 7.55547 1.66871 6.72178 2.49753 6.34441L3.9722 5.67294C4.201 5.5688 4.46322 5.57001 4.69105 5.67632L6.11584 6.34121" stroke="black" stroke-width="0.603202"/>
<path d="M6.09477 6.54033L6.09473 5.27794C6.09473 4.93301 6.29486 4.62017 6.60608 4.47881L9.32483 3.2437C9.55116 3.14089 9.81019 3.14111 10.0363 3.2443L11.4316 3.88098" stroke="black" stroke-width="0.603202"/>
<path d="M11.4437 4.47936V2.84533C11.4437 2.50035 11.644 2.18749 11.9552 2.04616L13.5818 1.30756C14.4858 0.897092 15.5202 0.897499 16.4239 1.30867L26.9692 6.10704C28.1092 6.62577 28.8424 7.77231 28.8424 9.03629V11.7786V22.4158C28.8424 24.0081 27.9281 25.4555 26.4993 26.125L17.1371 30.5126C15.7806 31.1483 14.2191 31.1628 12.8514 30.5523L3.3788 26.3238C2.01836 25.7165 1.14062 24.3545 1.14062 22.8509V22.514" stroke="black" stroke-width="0.603202" stroke-linecap="round"/>
<path d="M10.0656 27.5322C8.81806 27.6069 5.16357 27.2622 3.2055 26.309C1.54937 25.5027 1 23.5214 1 22.4216C0.99998 22.3161 1.08054 22.2948 1.1539 22.2746L1.2707 22.1631C1.27183 22.1729 1.27184 22.1817 1.27084 22.1896C1.28673 23.6462 2.61123 24.4811 4.25935 23.6086L10.0656 27.5322Z" fill="black"/>
<path d="M12.3525 19.8926C14.7138 18.8143 14.9495 17.5209 14.9495 16.1924L17.3095 19.8926L15.0259 18.7841L12.3525 19.8926Z" fill="black"/>
</svg>
