<svg width="82" height="79" viewBox="0 0 82 79" fill="none" xmlns="http://www.w3.org/2000/svg">
<g id="Group 1321318388">
<g id="Group 1321318301">
<g id="Group 1321318299">
<circle id="Ellipse 18547" cx="42.6279" cy="39.5073" r="38.65" fill="#FF9F8C" stroke="#13035C" stroke-width="0.7"/>
<circle id="Ellipse 18546" cx="37.2377" cy="37.7451" r="36.8877" fill="white" stroke="#13035C" stroke-width="0.7"/>
</g>
</g>
<g id="Group">
<path id="Vector" d="M55.4219 50.2362L55.4211 50.2367L38.5574 59.9695C38.5574 59.9696 38.5573 59.9696 38.5572 59.9697C37.608 60.5145 36.429 60.5145 35.4798 59.9697C35.4797 59.9696 35.4796 59.9696 35.4796 59.9695L18.6171 50.2374C17.6462 49.6725 17.068 48.6711 17.068 47.5638V28.4972H17.0878V28.0972C17.0878 26.9856 17.6698 25.9676 18.6151 25.4248L18.6159 25.4244L35.4796 15.6915C35.4797 15.6915 35.4798 15.6914 35.48 15.6913C36.4291 15.1466 37.6079 15.1466 38.557 15.6913C38.5572 15.6914 38.5573 15.6915 38.5574 15.6915L55.4199 25.4237C55.4201 25.4238 55.4203 25.4239 55.4205 25.424C56.391 25.989 56.969 26.9903 56.969 28.0972V47.5638C56.969 48.6711 56.3711 49.6913 55.4219 50.2362Z" fill="white" stroke="#13035C" stroke-width="0.8"/>
<g id="Group_2">
<g id="Group_3">
<g id="Group_4">
<path id="Vector_2" d="M38.6603 48.6496C38.6256 48.5277 38.6293 48.4189 38.6581 48.3293L41.0573 41.7464C41.0596 41.7411 41.0614 41.7387 41.0619 41.7381L41.0628 41.7372C41.0631 41.7369 41.0658 41.7354 41.0709 41.7354C41.076 41.7354 41.0787 41.7369 41.079 41.7372L41.08 41.7381C41.0805 41.7387 41.0823 41.7411 41.0845 41.7463L46.7081 57.177L42.6245 59.5322L38.6603 48.6496Z" fill="white" stroke="#13035C" stroke-width="0.8"/>
</g>
<g id="Group_5">
<path id="Vector_3" d="M49.32 55.6783L42.714 37.5651C42.6793 37.4431 42.683 37.3344 42.7118 37.2449L45.111 30.6619C45.1133 30.6566 45.1151 30.6542 45.1156 30.6536L45.1165 30.6527C45.1168 30.6525 45.1195 30.651 45.1246 30.651C45.1255 30.651 45.1263 30.651 45.1271 30.6511L45.1362 30.6762L53.4035 53.3231L49.32 55.6783Z" fill="white" stroke="#13035C" stroke-width="0.8"/>
</g>
</g>
</g>
<g id="Group_6">
<path id="Vector_4" d="M36.4689 15.8134L18.2365 26.3398L18.2364 26.3397L18.2307 26.3432C17.9136 26.5334 17.6988 26.9008 17.6988 27.2821V48.3577C17.6988 48.7187 17.878 49.1021 18.2401 49.3021L36.4657 59.8244C36.4668 59.8251 36.4678 59.8257 36.4689 59.8264C36.6174 59.9148 36.8056 59.9808 37.0092 59.9808C37.2127 59.9808 37.4009 59.9148 37.5494 59.8264C37.5505 59.8257 37.5516 59.8251 37.5527 59.8244L55.7819 49.3L55.7819 49.3001L55.7877 49.2966C56.1047 49.1064 56.3196 48.739 56.3196 48.3577V27.302C56.3196 26.941 56.1404 26.5576 55.7782 26.3575L37.5526 15.8352C37.5516 15.8346 37.5505 15.8339 37.5494 15.8333C37.5059 15.8074 37.4589 15.7834 37.4092 15.7624V15.659H37.0092C36.8056 15.659 36.6174 15.725 36.4689 15.8134ZM36.9992 13.4C37.5875 13.4016 38.1682 13.5451 38.6741 13.8417L38.6765 13.8431L56.9314 24.3709L56.9315 24.371C57.9803 24.9754 58.6183 26.0752 58.6183 27.2821V48.3378C58.6183 49.5447 57.9803 50.6445 56.9315 51.2489L56.9313 51.2491L38.699 61.7753C38.6985 61.7756 38.698 61.7759 38.6974 61.7762C38.1638 62.0783 37.5969 62.2199 37.0092 62.2199C36.4175 62.2199 35.8331 62.0765 35.3244 61.7782L35.3221 61.7769L17.0871 51.2491L17.0868 51.2489C16.038 50.6445 15.4 49.5447 15.4 48.3378V27.2821C15.4 26.0752 16.038 24.9754 17.0868 24.371L17.0871 24.3709L35.3193 13.8446C35.3198 13.8444 35.3202 13.8441 35.3207 13.8438C35.8513 13.5434 36.4149 13.4016 36.9992 13.4Z" fill="white" stroke="#13035C" stroke-width="0.8"/>
</g>
<path id="Vector_5" d="M27.6143 57.1917L24.9647 55.6459L26.2829 52.2994L29.4435 54.5703L27.6143 57.1917Z" fill="white" stroke="#13035C" stroke-width="0.8"/>
<g id="Group_7">
<path id="Vector_6" d="M35.4596 26.1928H35.4808C35.4806 26.1932 35.4805 26.1935 35.4804 26.1939C35.4803 26.1941 35.4802 26.1944 35.4802 26.1946L24.7192 55.6796L20.6355 53.3243L30.4311 26.4696C30.4313 26.4691 30.4315 26.4687 30.4317 26.4682C30.4924 26.3081 30.6599 26.1928 30.8313 26.1928H35.4596Z" fill="white" stroke="#13035C" stroke-width="0.8"/>
<path id="Vector_7" d="M43.5652 26.1928H43.5665C43.5664 26.1932 43.5663 26.1936 43.5662 26.1939C43.5661 26.1942 43.566 26.1944 43.5659 26.1946L31.4143 59.5331L27.3308 57.1779L38.5368 26.4696C38.537 26.4691 38.5371 26.4687 38.5373 26.4682C38.5981 26.3081 38.7656 26.1928 38.9369 26.1928H43.5652Z" fill="white" stroke="#13035C" stroke-width="0.8"/>
</g>
</g>
</g>
</svg>
