<svg width="1074" height="161" viewBox="0 0 1074 161" fill="none" xmlns="http://www.w3.org/2000/svg">
<g clip-path="url(#clip0_1261_812)">
<path d="M1047.58 1.15601H26.5762C12.4929 1.15601 1.07617 12.5727 1.07617 26.656V134.656C1.07617 148.739 12.4929 160.156 26.5762 160.156H1047.58C1061.66 160.156 1073.08 148.739 1073.08 134.656V26.656C1073.08 12.5727 1061.66 1.15601 1047.58 1.15601Z" fill="white" stroke="black"/>
<path d="M317.096 83L314.216 74.108H316.502L317.672 77.924C317.87 78.626 318.05 79.4 318.212 80.228C318.374 79.364 318.536 78.806 318.824 77.924L320.048 74.108H322.28L323.468 77.924C323.576 78.284 323.936 79.616 324.044 80.21C324.188 79.544 324.476 78.482 324.638 77.924L325.826 74.108H328.148L325.07 83H323.018L321.794 79.148C321.434 77.978 321.236 77.132 321.164 76.682C321.074 77.096 320.912 77.726 320.462 79.184L319.238 83H317.096ZM334.996 83.234C332.35 83.234 330.496 81.308 330.496 78.554C330.496 75.764 332.314 73.838 334.924 73.838C337.588 73.838 339.28 75.62 339.28 78.392V79.058L332.584 79.076C332.746 80.642 333.574 81.434 335.032 81.434C336.238 81.434 337.03 80.966 337.282 80.12H339.316C338.938 82.064 337.318 83.234 334.996 83.234ZM334.942 75.638C333.646 75.638 332.854 76.34 332.638 77.672H337.102C337.102 76.448 336.256 75.638 334.942 75.638ZM345.052 83H343.018V69.608H345.214V75.404C345.79 74.414 346.978 73.82 348.328 73.82C350.866 73.82 352.414 75.8 352.414 78.608C352.414 81.344 350.74 83.234 348.184 83.234C346.852 83.234 345.718 82.64 345.196 81.614L345.052 83ZM345.232 78.518C345.232 80.12 346.222 81.218 347.734 81.218C349.282 81.218 350.2 80.102 350.2 78.518C350.2 76.934 349.282 75.8 347.734 75.8C346.222 75.8 345.232 76.916 345.232 78.518ZM359.67 76.484H358.068V74.99L361.452 71.876H355.98V69.842H364.332V71.678L361.128 74.63C363.144 75.026 364.71 76.502 364.71 78.824C364.71 81.524 362.604 83.234 359.94 83.234C357.366 83.234 355.368 81.65 355.368 78.806H357.636C357.636 80.318 358.572 81.182 359.976 81.182C361.416 81.182 362.37 80.246 362.37 78.788C362.37 77.456 361.506 76.484 359.67 76.484ZM370.026 76.664C369.234 76.664 368.568 76.016 368.568 75.242C368.568 74.45 369.234 73.802 370.026 73.802C370.818 73.802 371.484 74.45 371.484 75.242C371.484 76.016 370.818 76.664 370.026 76.664ZM370.026 83.216C369.234 83.216 368.568 82.568 368.568 81.794C368.568 81.002 369.234 80.354 370.026 80.354C370.818 80.354 371.484 81.002 371.484 81.794C371.484 82.568 370.818 83.216 370.026 83.216ZM376.984 83H374.806L379.936 69.86H382.132L376.984 83ZM383.869 83H381.691L386.821 69.86H389.017L383.869 83ZM394.425 83.234C391.779 83.234 389.925 81.308 389.925 78.554C389.925 75.764 391.743 73.838 394.353 73.838C397.017 73.838 398.709 75.62 398.709 78.392V79.058L392.013 79.076C392.175 80.642 393.003 81.434 394.461 81.434C395.667 81.434 396.459 80.966 396.711 80.12H398.745C398.367 82.064 396.747 83.234 394.425 83.234ZM394.371 75.638C393.075 75.638 392.283 76.34 392.067 77.672H396.531C396.531 76.448 395.685 75.638 394.371 75.638ZM403.59 83H401.088L404.148 78.644L401.088 74.108H403.644L405.606 77.132L407.496 74.108H409.962L406.938 78.608L409.872 83H407.352L405.462 80.066L403.59 83ZM415.897 83.234C414.007 83.234 412.855 82.136 412.855 80.462C412.855 78.824 414.043 77.798 416.149 77.636L418.813 77.438V77.24C418.813 76.034 418.093 75.548 416.977 75.548C415.681 75.548 414.961 76.088 414.961 77.024H413.089C413.089 75.098 414.673 73.838 417.085 73.838C419.479 73.838 420.955 75.134 420.955 77.6V83H419.029L418.867 81.686C418.489 82.604 417.283 83.234 415.897 83.234ZM416.617 81.578C417.967 81.578 418.831 80.768 418.831 79.4V78.932L416.977 79.076C415.609 79.202 415.087 79.652 415.087 80.372C415.087 81.182 415.627 81.578 416.617 81.578ZM427.288 83H425.092V74.108H427.108L427.288 75.152C427.738 74.414 428.638 73.838 429.916 73.838C431.266 73.838 432.202 74.504 432.67 75.53C433.12 74.504 434.164 73.838 435.514 73.838C437.674 73.838 438.862 75.134 438.862 77.186V83H436.684V77.762C436.684 76.484 436 75.818 434.956 75.818C433.894 75.818 433.084 76.502 433.084 77.96V83H430.888V77.744C430.888 76.502 430.222 75.836 429.178 75.836C428.134 75.836 427.288 76.52 427.288 77.96V83ZM442.998 87.122V74.108H445.032L445.176 75.458C445.716 74.432 446.886 73.838 448.236 73.838C450.738 73.838 452.394 75.656 452.394 78.446C452.394 81.218 450.882 83.234 448.236 83.234C446.904 83.234 445.752 82.712 445.194 81.812V87.122H442.998ZM445.212 78.554C445.212 80.156 446.202 81.254 447.714 81.254C449.262 81.254 450.18 80.138 450.18 78.554C450.18 76.97 449.262 75.836 447.714 75.836C446.202 75.836 445.212 76.952 445.212 78.554ZM458.337 83H456.159V69.608H458.337V83ZM466.598 83.234C463.952 83.234 462.098 81.308 462.098 78.554C462.098 75.764 463.916 73.838 466.526 73.838C469.19 73.838 470.882 75.62 470.882 78.392V79.058L464.186 79.076C464.348 80.642 465.176 81.434 466.634 81.434C467.84 81.434 468.632 80.966 468.884 80.12H470.918C470.54 82.064 468.92 83.234 466.598 83.234ZM466.544 75.638C465.248 75.638 464.456 76.34 464.24 77.672H468.704C468.704 76.448 467.858 75.638 466.544 75.638ZM475.551 83.216C474.759 83.216 474.093 82.568 474.093 81.794C474.093 81.002 474.759 80.354 475.551 80.354C476.343 80.354 477.009 81.002 477.009 81.794C477.009 82.568 476.343 83.216 475.551 83.216ZM484.726 83.234C482.08 83.234 480.226 81.308 480.226 78.554C480.226 75.764 482.044 73.838 484.654 73.838C487.318 73.838 489.01 75.62 489.01 78.392V79.058L482.314 79.076C482.476 80.642 483.304 81.434 484.762 81.434C485.968 81.434 486.76 80.966 487.012 80.12H489.046C488.668 82.064 487.048 83.234 484.726 83.234ZM484.672 75.638C483.376 75.638 482.584 76.34 482.368 77.672H486.832C486.832 76.448 485.986 75.638 484.672 75.638ZM495.684 83H493.488V75.944H491.778V74.108H493.488V71.336H495.684V74.108H497.412V75.944H495.684V83ZM502.953 83H500.757V69.608H502.971V75.26C503.529 74.396 504.573 73.838 505.851 73.838C508.047 73.838 509.199 75.224 509.199 77.528V83H507.003V78.05C507.003 76.556 506.265 75.836 505.149 75.836C503.763 75.836 502.953 76.808 502.953 78.14V83ZM514.992 76.664C514.2 76.664 513.534 76.016 513.534 75.242C513.534 74.45 514.2 73.802 514.992 73.802C515.784 73.802 516.45 74.45 516.45 75.242C516.45 76.016 515.784 76.664 514.992 76.664ZM514.992 83.216C514.2 83.216 513.534 82.568 513.534 81.794C513.534 81.002 514.2 80.354 514.992 80.354C515.784 80.354 516.45 81.002 516.45 81.794C516.45 82.568 515.784 83.216 514.992 83.216ZM524.434 76.484H522.832V74.99L526.216 71.876H520.744V69.842H529.096V71.678L525.892 74.63C527.908 75.026 529.474 76.502 529.474 78.824C529.474 81.524 527.368 83.234 524.704 83.234C522.13 83.234 520.132 81.65 520.132 78.806H522.4C522.4 80.318 523.336 81.182 524.74 81.182C526.18 81.182 527.134 80.246 527.134 78.788C527.134 77.456 526.27 76.484 524.434 76.484ZM537.049 76.484H535.447V74.99L538.831 71.876H533.359V69.842H541.711V71.678L538.507 74.63C540.523 75.026 542.089 76.502 542.089 78.824C542.089 81.524 539.983 83.234 537.319 83.234C534.745 83.234 532.747 81.65 532.747 78.806H535.015C535.015 80.318 535.951 81.182 537.355 81.182C538.795 81.182 539.749 80.246 539.749 78.788C539.749 77.456 538.885 76.484 537.049 76.484ZM549.664 76.484H548.062V74.99L551.446 71.876H545.974V69.842H554.326V71.678L551.122 74.63C553.138 75.026 554.704 76.502 554.704 78.824C554.704 81.524 552.598 83.234 549.934 83.234C547.36 83.234 545.362 81.65 545.362 78.806H547.63C547.63 80.318 548.566 81.182 549.97 81.182C551.41 81.182 552.364 80.246 552.364 78.788C552.364 77.456 551.5 76.484 549.664 76.484ZM559.408 83H557.23L562.36 69.86H564.556L559.408 83ZM569.708 83H567.674V69.608H569.87V75.404C570.446 74.414 571.634 73.82 572.984 73.82C575.522 73.82 577.07 75.8 577.07 78.608C577.07 81.344 575.396 83.234 572.84 83.234C571.508 83.234 570.374 82.64 569.852 81.614L569.708 83ZM569.888 78.518C569.888 80.12 570.878 81.218 572.39 81.218C573.938 81.218 574.856 80.102 574.856 78.518C574.856 76.934 573.938 75.8 572.39 75.8C570.878 75.8 569.888 76.916 569.888 78.518ZM583.445 83.234C581.555 83.234 580.403 82.136 580.403 80.462C580.403 78.824 581.591 77.798 583.697 77.636L586.361 77.438V77.24C586.361 76.034 585.641 75.548 584.525 75.548C583.229 75.548 582.509 76.088 582.509 77.024H580.637C580.637 75.098 582.221 73.838 584.633 73.838C587.027 73.838 588.503 75.134 588.503 77.6V83H586.577L586.415 81.686C586.037 82.604 584.831 83.234 583.445 83.234ZM584.165 81.578C585.515 81.578 586.379 80.768 586.379 79.4V78.932L584.525 79.076C583.157 79.202 582.635 79.652 582.635 80.372C582.635 81.182 583.175 81.578 584.165 81.578ZM594.854 83H592.676V69.608H594.854V83ZM601.783 83.234C599.893 83.234 598.741 82.136 598.741 80.462C598.741 78.824 599.929 77.798 602.035 77.636L604.699 77.438V77.24C604.699 76.034 603.979 75.548 602.863 75.548C601.567 75.548 600.847 76.088 600.847 77.024H598.975C598.975 75.098 600.559 73.838 602.971 73.838C605.365 73.838 606.841 75.134 606.841 77.6V83H604.915L604.753 81.686C604.375 82.604 603.169 83.234 601.783 83.234ZM602.503 81.578C603.853 81.578 604.717 80.768 604.717 79.4V78.932L602.863 79.076C601.495 79.202 600.973 79.652 600.973 80.372C600.973 81.182 601.513 81.578 602.503 81.578ZM613.175 83H610.979V74.108H613.013L613.193 75.26C613.751 74.36 614.831 73.838 616.037 73.838C618.269 73.838 619.421 75.224 619.421 77.528V83H617.225V78.05C617.225 76.556 616.487 75.836 615.353 75.836C614.003 75.836 613.175 76.772 613.175 78.212V83ZM623.036 78.536C623.036 75.782 624.854 73.838 627.482 73.838C629.912 73.838 631.568 75.188 631.802 77.33H629.606C629.354 76.322 628.616 75.8 627.572 75.8C626.168 75.8 625.232 76.862 625.232 78.536C625.232 80.21 626.096 81.254 627.5 81.254C628.598 81.254 629.372 80.714 629.606 79.742H631.82C631.55 81.812 629.822 83.234 627.5 83.234C624.8 83.234 623.036 81.362 623.036 78.536ZM639.413 83.234C636.767 83.234 634.913 81.308 634.913 78.554C634.913 75.764 636.731 73.838 639.341 73.838C642.005 73.838 643.697 75.62 643.697 78.392V79.058L637.001 79.076C637.163 80.642 637.991 81.434 639.449 81.434C640.655 81.434 641.447 80.966 641.699 80.12H643.733C643.355 82.064 641.735 83.234 639.413 83.234ZM639.359 75.638C638.063 75.638 637.271 76.34 637.055 77.672H641.519C641.519 76.448 640.673 75.638 639.359 75.638ZM647.074 76.448C647.074 72.362 649.27 69.59 652.636 69.59C656.002 69.59 658.216 72.362 658.216 76.448C658.216 80.516 656.128 83.234 652.636 83.234C649.144 83.234 647.074 80.516 647.074 76.448ZM649.342 76.448C649.342 79.49 650.566 81.2 652.636 81.2C654.724 81.2 655.948 79.49 655.948 76.448C655.948 73.334 654.724 71.624 652.636 71.624C650.566 71.624 649.342 73.334 649.342 76.448ZM661.224 74.108H662.502V73.028C662.502 70.616 663.78 69.608 665.706 69.608C666.048 69.608 666.462 69.626 666.84 69.698V71.57H666.066C664.95 71.57 664.68 72.146 664.68 73.028V74.108H666.804V75.944H664.68V83H662.502V75.944H661.224V74.108ZM670.561 83H668.383L673.513 69.86H675.709L670.561 83ZM685.032 83H677.85V81.2L682.278 75.944H677.85V74.108H685.032V75.926L680.532 81.164H685.032V83ZM694.836 74.108H697.032V83H694.998L694.836 81.812C694.296 82.658 693.144 83.234 691.956 83.234C689.904 83.234 688.698 81.848 688.698 79.67V74.108H690.894V78.896C690.894 80.588 691.56 81.272 692.784 81.272C694.17 81.272 694.836 80.462 694.836 78.77V74.108ZM700.582 78.536C700.582 75.782 702.4 73.838 705.028 73.838C707.458 73.838 709.114 75.188 709.348 77.33H707.152C706.9 76.322 706.162 75.8 705.118 75.8C703.714 75.8 702.778 76.862 702.778 78.536C702.778 80.21 703.642 81.254 705.046 81.254C706.144 81.254 706.918 80.714 707.152 79.742H709.366C709.096 81.812 707.368 83.234 705.046 83.234C702.346 83.234 700.582 81.362 700.582 78.536ZM715.194 83H713.016V69.608H715.194V77.834L718.65 74.108H721.404L718.02 77.636L721.332 83H718.812L716.49 79.256L715.194 80.606V83ZM726.122 83.216C725.33 83.216 724.664 82.568 724.664 81.794C724.664 81.002 725.33 80.354 726.122 80.354C726.914 80.354 727.58 81.002 727.58 81.794C727.58 82.568 726.914 83.216 726.122 83.216ZM735.297 83.234C732.651 83.234 730.797 81.308 730.797 78.554C730.797 75.764 732.615 73.838 735.225 73.838C737.889 73.838 739.581 75.62 739.581 78.392V79.058L732.885 79.076C733.047 80.642 733.875 81.434 735.333 81.434C736.539 81.434 737.331 80.966 737.583 80.12H739.617C739.239 82.064 737.619 83.234 735.297 83.234ZM735.243 75.638C733.947 75.638 733.155 76.34 732.939 77.672H737.403C737.403 76.448 736.557 75.638 735.243 75.638ZM746.255 83H744.059V75.944H742.349V74.108H744.059V71.336H746.255V74.108H747.983V75.944H746.255V83ZM753.524 83H751.328V69.608H753.542V75.26C754.1 74.396 755.144 73.838 756.422 73.838C758.618 73.838 759.77 75.224 759.77 77.528V83H757.574V78.05C757.574 76.556 756.836 75.836 755.72 75.836C754.334 75.836 753.524 76.808 753.524 78.14V83ZM768.3 79.634H766.302V79.22C766.302 77.582 767.31 76.736 768.264 75.998C769.074 75.35 769.812 74.738 769.812 73.694C769.812 72.47 769.056 71.66 767.796 71.66C766.518 71.66 765.636 72.614 765.636 74H763.35C763.35 71.426 765.24 69.608 767.85 69.608C770.532 69.608 772.152 71.156 772.152 73.55C772.152 75.476 770.91 76.394 769.866 77.132C768.984 77.762 768.3 78.302 768.3 79.22V79.634ZM767.382 83.234C766.572 83.234 765.924 82.586 765.924 81.812C765.924 81.02 766.572 80.372 767.382 80.372C768.174 80.372 768.84 81.02 768.84 81.812C768.84 82.568 768.174 83.234 767.382 83.234ZM782.331 74.072V76.106H781.521C779.937 76.106 778.947 76.952 778.947 78.68V83H776.751V74.126H778.821L778.947 75.422C779.325 74.54 780.171 73.946 781.359 73.946C781.665 73.946 781.971 73.982 782.331 74.072ZM789.477 83.234C786.831 83.234 784.977 81.308 784.977 78.554C784.977 75.764 786.795 73.838 789.405 73.838C792.069 73.838 793.761 75.62 793.761 78.392V79.058L787.065 79.076C787.227 80.642 788.055 81.434 789.513 81.434C790.719 81.434 791.511 80.966 791.763 80.12H793.797C793.419 82.064 791.799 83.234 789.477 83.234ZM789.423 75.638C788.127 75.638 787.335 76.34 787.119 77.672H791.583C791.583 76.448 790.737 75.638 789.423 75.638ZM800.434 83H798.238V75.944H796.528V74.108H798.238V71.336H800.434V74.108H802.162V75.944H800.434V83ZM811.537 74.108H813.733V83H811.699L811.537 81.812C810.997 82.658 809.845 83.234 808.657 83.234C806.605 83.234 805.399 81.848 805.399 79.67V74.108H807.595V78.896C807.595 80.588 808.261 81.272 809.485 81.272C810.871 81.272 811.537 80.462 811.537 78.77V74.108ZM823.562 74.072V76.106H822.752C821.168 76.106 820.178 76.952 820.178 78.68V83H817.982V74.126H820.052L820.178 75.422C820.556 74.54 821.402 73.946 822.59 73.946C822.896 73.946 823.202 73.982 823.562 74.072ZM829.224 83H827.028V74.108H829.062L829.242 75.26C829.8 74.36 830.88 73.838 832.086 73.838C834.318 73.838 835.47 75.224 835.47 77.528V83H833.274V78.05C833.274 76.556 832.536 75.836 831.402 75.836C830.052 75.836 829.224 76.772 829.224 78.212V83ZM838.818 80.3H840.906C840.924 81.074 841.5 81.56 842.508 81.56C843.534 81.56 844.092 81.146 844.092 80.498C844.092 80.048 843.858 79.724 843.066 79.544L841.464 79.166C839.862 78.806 839.088 78.05 839.088 76.628C839.088 74.882 840.564 73.838 842.616 73.838C844.614 73.838 845.964 74.99 845.982 76.718H843.894C843.876 75.962 843.372 75.476 842.526 75.476C841.662 75.476 841.158 75.872 841.158 76.538C841.158 77.042 841.554 77.366 842.31 77.546L843.912 77.924C845.406 78.266 846.162 78.95 846.162 80.318C846.162 82.118 844.632 83.234 842.436 83.234C840.222 83.234 838.818 82.046 838.818 80.3ZM850.12 74.72H859.12V76.574H850.12V74.72ZM850.12 78.59H859.12V80.444H850.12V78.59ZM868.087 86.438H866.341C864.541 84.386 863.353 81.164 863.353 77.708C863.353 74.558 864.361 71.246 866.341 68.996H868.087C866.593 71.03 865.567 74.216 865.567 77.708C865.567 80.894 866.449 84.206 868.087 86.438ZM877.224 74.108H879.42V83H877.386L877.224 81.812C876.684 82.658 875.532 83.234 874.344 83.234C872.292 83.234 871.086 81.848 871.086 79.67V74.108H873.282V78.896C873.282 80.588 873.948 81.272 875.172 81.272C876.558 81.272 877.224 80.462 877.224 78.77V74.108ZM885.864 83H883.668V74.108H885.702L885.882 75.26C886.44 74.36 887.52 73.838 888.726 73.838C890.958 73.838 892.11 75.224 892.11 77.528V83H889.914V78.05C889.914 76.556 889.176 75.836 888.042 75.836C886.692 75.836 885.864 76.772 885.864 78.212V83ZM897.346 72.326C896.59 72.326 895.996 71.732 895.996 70.994C895.996 70.256 896.59 69.68 897.346 69.68C898.066 69.68 898.66 70.256 898.66 70.994C898.66 71.732 898.066 72.326 897.346 72.326ZM896.248 83V74.108H898.444V83H896.248ZM905.717 83H903.521V75.944H901.811V74.108H903.521V71.336H905.717V74.108H907.445V75.944H905.717V83ZM919.61 82.982L910.484 83V81.272L914.786 77.636C916.568 76.124 917.162 75.26 917.162 74C917.162 72.506 916.352 71.66 914.966 71.66C913.526 71.66 912.626 72.668 912.608 74.36H910.322C910.34 71.48 912.176 69.608 914.966 69.608C917.774 69.608 919.52 71.21 919.52 73.874C919.52 75.71 918.512 77.096 916.514 78.806L914.138 80.84H919.61V82.982ZM927.387 83.216C924.633 83.216 922.815 81.452 922.815 78.788H925.101C925.101 80.282 925.983 81.164 927.441 81.164C928.989 81.164 929.979 80.156 929.979 78.554C929.979 77.024 929.061 75.98 927.477 75.98C926.469 75.98 925.551 76.484 925.083 77.168L923.049 76.736L924.669 69.842H931.527V71.966H926.325L925.623 74.702C926.253 74.288 927.045 74.054 927.945 74.054C930.573 74.054 932.319 75.836 932.319 78.428C932.319 81.272 930.321 83.216 927.387 83.216ZM937.496 73.712L940.34 69.842H942.968L939.818 74.036C940.142 73.946 940.484 73.892 940.808 73.892C943.526 73.892 945.362 75.8 945.362 78.464C945.362 81.272 943.274 83.234 940.466 83.234C937.622 83.234 935.498 81.146 935.498 78.446C935.498 76.862 936.02 75.71 937.496 73.712ZM937.856 78.464C937.856 80.066 938.918 81.182 940.466 81.182C941.96 81.182 943.04 80.066 943.04 78.464C943.04 76.88 941.978 75.782 940.466 75.782C938.9 75.782 937.856 76.88 937.856 78.464ZM949.738 86.438H947.992C949.648 84.206 950.512 80.894 950.512 77.708C950.512 74.216 949.486 71.03 947.992 68.996H949.738C951.718 71.246 952.744 74.558 952.744 77.708C952.744 81.164 951.538 84.386 949.738 86.438Z" fill="black"/>
<path d="M320 93V101H360V93" stroke="#6F41FF"/>
<path d="M340 101V109" stroke="#6F41FF"/>
<path d="M312.691 123.824H313.747C313.747 124.72 314.419 125.28 315.507 125.28C316.707 125.28 317.411 124.768 317.411 123.936C317.411 123.296 317.091 122.928 316.179 122.704L314.851 122.368C313.507 122.032 312.851 121.328 312.851 120.272C312.851 118.912 313.987 118.048 315.651 118.048C317.283 118.048 318.339 118.944 318.387 120.384H317.315C317.283 119.488 316.659 118.96 315.619 118.96C314.531 118.96 313.923 119.424 313.923 120.256C313.923 120.848 314.339 121.264 315.187 121.472L316.515 121.808C317.859 122.144 318.467 122.768 318.467 123.888C318.467 125.28 317.283 126.192 315.523 126.192C313.779 126.192 312.691 125.264 312.691 123.824ZM319.741 122.144C319.741 119.712 321.229 118.048 323.485 118.048C325.277 118.048 326.589 119.088 326.893 120.688H325.789C325.501 119.616 324.573 119.024 323.501 119.024C321.933 119.024 320.829 120.224 320.829 122.128C320.829 123.968 321.853 125.2 323.421 125.2C324.573 125.2 325.501 124.56 325.805 123.568H326.925C326.557 125.152 325.181 126.192 323.421 126.192C321.229 126.192 319.741 124.576 319.741 122.144ZM329.701 125.984H328.597V114.336H329.701V119.6C330.197 118.672 331.141 118.048 332.437 118.048C334.469 118.048 335.381 119.312 335.381 121.264V126H334.277V121.504C334.277 119.696 333.429 119.056 332.229 119.056C330.565 119.056 329.701 120.288 329.701 121.776V125.984ZM340.83 126.192C338.558 126.192 337.038 124.56 337.038 122.128C337.038 119.712 338.542 118.048 340.75 118.048C342.846 118.048 344.27 119.536 344.27 121.728V122.272H338.11C338.19 124.16 339.182 125.248 340.846 125.248C342.11 125.248 342.926 124.704 343.214 123.68H344.27C343.854 125.312 342.654 126.192 340.83 126.192ZM340.75 118.992C339.294 118.992 338.334 119.952 338.142 121.472H343.166C343.166 119.984 342.206 118.992 340.75 118.992ZM347.139 126H346.035V118.256H346.995L347.123 119.36C347.507 118.544 348.371 118.048 349.459 118.048C350.675 118.048 351.587 118.688 351.955 119.696C352.307 118.688 353.251 118.048 354.499 118.048C356.179 118.048 357.283 119.136 357.283 120.928V126H356.211V121.152C356.211 119.824 355.475 119.04 354.291 119.04C352.995 119.04 352.227 120.016 352.227 121.216V126H351.139V121.136C351.139 119.824 350.387 119.056 349.219 119.056C347.923 119.056 347.139 120.016 347.139 121.2V126ZM362.752 126.192C360.48 126.192 358.96 124.56 358.96 122.128C358.96 119.712 360.464 118.048 362.672 118.048C364.768 118.048 366.192 119.536 366.192 121.728V122.272H360.032C360.112 124.16 361.104 125.248 362.768 125.248C364.032 125.248 364.848 124.704 365.136 123.68H366.192C365.776 125.312 364.576 126.192 362.752 126.192ZM362.672 118.992C361.216 118.992 360.256 119.952 360.064 121.472H365.088C365.088 119.984 364.128 118.992 362.672 118.992Z" fill="#6F41FF"/>
<path d="M508 60V52H392V60" stroke="#FF8972"/>
<path d="M450 52V44" stroke="#FF8972"/>
<path d="M420.21 34.144C420.21 31.712 421.698 30.048 423.954 30.048C425.746 30.048 427.058 31.088 427.362 32.688H426.258C425.97 31.616 425.042 31.024 423.97 31.024C422.402 31.024 421.298 32.224 421.298 34.128C421.298 35.968 422.322 37.2 423.89 37.2C425.042 37.2 425.97 36.56 426.274 35.568H427.394C427.026 37.152 425.65 38.192 423.89 38.192C421.698 38.192 420.21 36.576 420.21 34.144ZM428.522 34.128C428.522 31.76 430.186 30.048 432.458 30.048C434.73 30.048 436.394 31.76 436.394 34.128C436.394 36.48 434.73 38.192 432.458 38.192C430.186 38.192 428.522 36.48 428.522 34.128ZM429.642 34.112C429.642 35.936 430.794 37.2 432.458 37.2C434.106 37.2 435.274 35.936 435.274 34.112C435.274 32.32 434.106 31.04 432.458 31.04C430.794 31.04 429.642 32.32 429.642 34.112ZM439.264 38H438.16V30.256H439.12L439.28 31.6C439.792 30.608 440.816 30.048 441.936 30.048C444.064 30.048 444.944 31.312 444.944 33.264V38H443.84V33.504C443.84 31.696 443.024 31.056 441.744 31.056C440.16 31.056 439.264 32.208 439.264 33.952V38ZM448.92 38H447.832V31.184H446.28V30.256H447.832V27.808H448.92V30.256H450.472V31.184H448.92V38ZM455.958 30.16V31.152H455.35C453.926 31.152 453.014 32.112 453.014 33.584V38H451.91V30.256H452.95L453.03 31.456C453.334 30.624 454.15 30.08 455.238 30.08C455.478 30.08 455.686 30.096 455.958 30.16ZM459.337 38.192C457.689 38.192 456.713 37.264 456.713 35.904C456.713 34.48 457.801 33.584 459.609 33.44L462.169 33.232V32.976C462.169 31.456 461.257 30.976 460.121 30.976C458.777 30.976 457.977 31.584 457.977 32.624H456.969C456.969 31.056 458.249 30.048 460.153 30.048C461.945 30.048 463.257 30.944 463.257 32.992V38H462.329L462.185 36.64C461.705 37.616 460.649 38.192 459.337 38.192ZM459.593 37.296C461.225 37.296 462.169 36.16 462.169 34.48V34.064L459.881 34.24C458.425 34.368 457.833 35.008 457.833 35.872C457.833 36.816 458.537 37.296 459.593 37.296ZM464.928 34.144C464.928 31.712 466.416 30.048 468.672 30.048C470.464 30.048 471.776 31.088 472.08 32.688H470.976C470.688 31.616 469.76 31.024 468.688 31.024C467.12 31.024 466.016 32.224 466.016 34.128C466.016 35.968 467.04 37.2 468.608 37.2C469.76 37.2 470.688 36.56 470.992 35.568H472.112C471.744 37.152 470.368 38.192 468.608 38.192C466.416 38.192 464.928 36.576 464.928 34.144ZM475.561 38H474.473V31.184H472.921V30.256H474.473V27.808H475.561V30.256H477.113V31.184H475.561V38Z" fill="#FF8972"/>
<path d="M555 60V52H523V60" stroke="#6F41FF"/>
<path d="M539 52V44" stroke="#6F41FF"/>
<path d="M512.71 34.144C512.71 31.712 514.198 30.048 516.454 30.048C518.246 30.048 519.558 31.088 519.862 32.688H518.758C518.47 31.616 517.542 31.024 516.47 31.024C514.902 31.024 513.798 32.224 513.798 34.128C513.798 35.968 514.822 37.2 516.39 37.2C517.542 37.2 518.47 36.56 518.774 35.568H519.894C519.526 37.152 518.15 38.192 516.39 38.192C514.198 38.192 512.71 36.576 512.71 34.144ZM522.67 37.984H521.566V26.336H522.67V31.6C523.166 30.672 524.11 30.048 525.406 30.048C527.438 30.048 528.35 31.312 528.35 33.264V38H527.246V33.504C527.246 31.696 526.398 31.056 525.198 31.056C523.534 31.056 522.67 32.288 522.67 33.776V37.984ZM532.774 38.192C531.126 38.192 530.15 37.264 530.15 35.904C530.15 34.48 531.238 33.584 533.046 33.44L535.606 33.232V32.976C535.606 31.456 534.694 30.976 533.558 30.976C532.214 30.976 531.414 31.584 531.414 32.624H530.406C530.406 31.056 531.686 30.048 533.59 30.048C535.382 30.048 536.694 30.944 536.694 32.992V38H535.766L535.622 36.64C535.142 37.616 534.086 38.192 532.774 38.192ZM533.03 37.296C534.662 37.296 535.606 36.16 535.606 34.48V34.064L533.318 34.24C531.862 34.368 531.27 35.008 531.27 35.872C531.27 36.816 531.974 37.296 533.03 37.296ZM539.454 28.128C539.006 28.128 538.638 27.76 538.638 27.312C538.638 26.864 539.006 26.48 539.454 26.48C539.902 26.48 540.286 26.864 540.286 27.312C540.286 27.76 539.902 28.128 539.454 28.128ZM538.91 38V30.256H540.014V38H538.91ZM543.42 38H542.316V30.256H543.276L543.436 31.6C543.948 30.608 544.972 30.048 546.092 30.048C548.22 30.048 549.1 31.312 549.1 33.264V38H547.996V33.504C547.996 31.696 547.18 31.056 545.9 31.056C544.316 31.056 543.42 32.208 543.42 33.952V38ZM551.844 28.128C551.396 28.128 551.028 27.76 551.028 27.312C551.028 26.864 551.396 26.48 551.844 26.48C552.292 26.48 552.676 26.864 552.676 27.312C552.676 27.76 552.292 28.128 551.844 28.128ZM551.3 38V30.256H552.404V38H551.3ZM557.747 38.192C555.491 38.192 554.163 36.464 554.163 34.144C554.163 31.808 555.491 30.048 557.795 30.048C559.075 30.048 560.099 30.608 560.643 31.728V26.336H561.747V38H560.787L560.675 36.416C560.131 37.616 559.043 38.192 557.747 38.192ZM557.939 37.184C559.635 37.184 560.627 35.904 560.627 34.112C560.627 32.336 559.635 31.04 557.939 31.04C556.259 31.04 555.283 32.336 555.283 34.112C555.283 35.904 556.259 37.184 557.939 37.184Z" fill="#6F41FF"/>
<path d="M392 93V101H555V93" stroke="#FF8972"/>
<path d="M473.5 101V109" stroke="#FF8972"/>
<path d="M446.743 126.192C445.095 126.192 444.119 125.264 444.119 123.904C444.119 122.48 445.207 121.584 447.015 121.44L449.575 121.232V120.976C449.575 119.456 448.663 118.976 447.527 118.976C446.183 118.976 445.383 119.584 445.383 120.624H444.375C444.375 119.056 445.655 118.048 447.559 118.048C449.351 118.048 450.663 118.944 450.663 120.992V126H449.735L449.591 124.64C449.111 125.616 448.055 126.192 446.743 126.192ZM446.999 125.296C448.631 125.296 449.575 124.16 449.575 122.48V122.064L447.287 122.24C445.831 122.368 445.239 123.008 445.239 123.872C445.239 124.816 445.943 125.296 446.999 125.296ZM458.319 118.256H459.423V126H458.463L458.319 124.688C457.887 125.584 456.815 126.192 455.599 126.192C453.775 126.192 452.783 124.944 452.783 123.056V118.24H453.903V122.704C453.903 124.544 454.719 125.2 455.951 125.2C457.439 125.2 458.319 124.208 458.319 122.368V118.256ZM463.498 126H462.41V119.184H460.858V118.256H462.41V115.808H463.498V118.256H465.05V119.184H463.498V126ZM467.592 125.984H466.488V114.336H467.592V119.6C468.088 118.672 469.032 118.048 470.328 118.048C472.36 118.048 473.272 119.312 473.272 121.264V126H472.168V121.504C472.168 119.696 471.32 119.056 470.12 119.056C468.456 119.056 467.592 120.288 467.592 121.776V125.984ZM474.928 122.128C474.928 119.76 476.592 118.048 478.864 118.048C481.136 118.048 482.8 119.76 482.8 122.128C482.8 124.48 481.136 126.192 478.864 126.192C476.592 126.192 474.928 124.48 474.928 122.128ZM476.048 122.112C476.048 123.936 477.2 125.2 478.864 125.2C480.512 125.2 481.68 123.936 481.68 122.112C481.68 120.32 480.512 119.04 478.864 119.04C477.2 119.04 476.048 120.32 476.048 122.112ZM488.614 118.16V119.152H488.006C486.582 119.152 485.67 120.112 485.67 121.584V126H484.566V118.256H485.606L485.686 119.456C485.99 118.624 486.806 118.08 487.894 118.08C488.134 118.08 488.342 118.096 488.614 118.16ZM490.626 116.128C490.178 116.128 489.81 115.76 489.81 115.312C489.81 114.864 490.178 114.48 490.626 114.48C491.074 114.48 491.458 114.864 491.458 115.312C491.458 115.76 491.074 116.128 490.626 116.128ZM490.082 126V118.256H491.186V126H490.082ZM495.264 126H494.176V119.184H492.624V118.256H494.176V115.808H495.264V118.256H496.816V119.184H495.264V126ZM497.47 129.376V128.464H498.318C498.99 128.464 499.662 128.416 500.046 127.376L500.382 126.464L497.246 118.256H498.414L500.91 125.008L503.358 118.256H504.494L500.942 127.776C500.494 128.992 499.742 129.488 498.638 129.488C498.174 129.488 497.822 129.456 497.47 129.376Z" fill="#FF8972"/>
<path d="M569 93V101H665V93" stroke="#6F41FF"/>
<path d="M617 101V109" stroke="#6F41FF"/>
<path d="M584.623 126H583.519V118.256H584.479L584.607 119.36C584.991 118.544 585.855 118.048 586.943 118.048C588.159 118.048 589.071 118.688 589.439 119.696C589.791 118.688 590.735 118.048 591.983 118.048C593.663 118.048 594.767 119.136 594.767 120.928V126H593.695V121.152C593.695 119.824 592.959 119.04 591.775 119.04C590.479 119.04 589.711 120.016 589.711 121.216V126H588.623V121.136C588.623 119.824 587.871 119.056 586.703 119.056C585.407 119.056 584.623 120.016 584.623 121.2V126ZM600.236 126.192C597.964 126.192 596.444 124.56 596.444 122.128C596.444 119.712 597.948 118.048 600.156 118.048C602.252 118.048 603.676 119.536 603.676 121.728V122.272H597.516C597.596 124.16 598.588 125.248 600.252 125.248C601.516 125.248 602.332 124.704 602.62 123.68H603.676C603.26 125.312 602.06 126.192 600.236 126.192ZM600.156 118.992C598.7 118.992 597.74 119.952 597.548 121.472H602.572C602.572 119.984 601.612 118.992 600.156 118.992ZM607.139 126H606.051V119.184H604.499V118.256H606.051V115.808H607.139V118.256H608.691V119.184H607.139V126ZM611.233 125.984H610.129V114.336H611.233V119.6C611.729 118.672 612.673 118.048 613.969 118.048C616.001 118.048 616.913 119.312 616.913 121.264V126H615.809V121.504C615.809 119.696 614.961 119.056 613.761 119.056C612.097 119.056 611.233 120.288 611.233 121.776V125.984ZM618.569 122.128C618.569 119.76 620.233 118.048 622.505 118.048C624.777 118.048 626.441 119.76 626.441 122.128C626.441 124.48 624.777 126.192 622.505 126.192C620.233 126.192 618.569 124.48 618.569 122.128ZM619.689 122.112C619.689 123.936 620.841 125.2 622.505 125.2C624.153 125.2 625.321 123.936 625.321 122.112C625.321 120.32 624.153 119.04 622.505 119.04C620.841 119.04 619.689 120.32 619.689 122.112ZM631.247 126.192C628.991 126.192 627.663 124.464 627.663 122.144C627.663 119.808 628.991 118.048 631.295 118.048C632.575 118.048 633.599 118.608 634.143 119.728V114.336H635.247V126H634.287L634.175 124.416C633.631 125.616 632.543 126.192 631.247 126.192ZM631.439 125.184C633.135 125.184 634.127 123.904 634.127 122.112C634.127 120.336 633.135 119.04 631.439 119.04C629.759 119.04 628.783 120.336 628.783 122.112C628.783 123.904 629.759 125.184 631.439 125.184ZM638.942 114.544V126H637.79V114.544H638.942ZM645.216 126H641.728V114.544H645.184C648.64 114.544 650.944 116.848 650.944 120.272C650.944 123.696 648.656 126 645.216 126ZM645.136 115.6H642.88V124.944H645.168C647.968 124.944 649.76 123.12 649.76 120.272C649.76 117.408 647.968 115.6 645.136 115.6Z" fill="#6F41FF"/>
<path d="M676 93V101H761V93" stroke="#FF8972"/>
<path d="M718.5 101V109" stroke="#FF8972"/>
<path d="M704.876 126.192C703.228 126.192 702.252 125.264 702.252 123.904C702.252 122.48 703.34 121.584 705.148 121.44L707.708 121.232V120.976C707.708 119.456 706.796 118.976 705.66 118.976C704.316 118.976 703.516 119.584 703.516 120.624H702.508C702.508 119.056 703.788 118.048 705.692 118.048C707.484 118.048 708.796 118.944 708.796 120.992V126H707.868L707.724 124.64C707.244 125.616 706.188 126.192 704.876 126.192ZM705.132 125.296C706.764 125.296 707.708 124.16 707.708 122.48V122.064L705.42 122.24C703.964 122.368 703.372 123.008 703.372 123.872C703.372 124.816 704.076 125.296 705.132 125.296ZM715.059 118.16V119.152H714.451C713.027 119.152 712.115 120.112 712.115 121.584V126H711.011V118.256H712.051L712.131 119.456C712.435 118.624 713.251 118.08 714.339 118.08C714.579 118.08 714.787 118.096 715.059 118.16ZM715.858 121.904C715.858 119.792 717.218 118.048 719.49 118.048C720.834 118.048 721.858 118.672 722.354 119.808L722.466 118.256H723.426V125.76C723.426 128.064 721.954 129.568 719.682 129.568C717.698 129.568 716.306 128.448 716.002 126.576H717.106C717.346 127.824 718.306 128.56 719.698 128.56C721.282 128.56 722.338 127.488 722.338 125.872V124.032C721.81 125.12 720.738 125.76 719.41 125.76C717.202 125.76 715.858 124.016 715.858 121.904ZM716.962 121.888C716.962 123.472 717.938 124.768 719.57 124.768C721.25 124.768 722.242 123.552 722.242 121.888C722.242 120.24 721.282 119.024 719.586 119.024C717.922 119.024 716.962 120.32 716.962 121.888ZM725.458 120.272C725.458 116.72 727.202 114.32 730.05 114.32C732.882 114.32 734.626 116.72 734.626 120.272C734.626 123.84 732.914 126.208 730.05 126.208C727.17 126.208 725.458 123.84 725.458 120.272ZM726.594 120.272C726.594 123.248 727.858 125.168 730.05 125.168C732.242 125.168 733.506 123.248 733.506 120.272C733.506 117.28 732.242 115.376 730.05 115.376C727.858 115.376 726.594 117.28 726.594 120.272Z" fill="#FF8972"/>
<path d="M776 93V101H950V93" stroke="#6F41FF"/>
<path d="M863 101V109" stroke="#6F41FF"/>
<path d="M843.725 122.096C843.725 119.76 845.069 118.048 847.309 118.048C848.605 118.048 849.677 118.624 850.237 119.824L850.349 118.256H851.309V129.376H850.205V124.512C849.661 125.632 848.621 126.192 847.309 126.192C845.021 126.192 843.725 124.432 843.725 122.096ZM844.845 122.128C844.845 123.904 845.821 125.2 847.501 125.2C849.197 125.2 850.189 123.904 850.189 122.128C850.189 120.336 849.197 119.056 847.501 119.056C845.821 119.056 844.845 120.336 844.845 122.128ZM859.053 118.256H860.157V126H859.197L859.053 124.688C858.621 125.584 857.549 126.192 856.333 126.192C854.509 126.192 853.517 124.944 853.517 123.056V118.24H854.637V122.704C854.637 124.544 855.453 125.2 856.685 125.2C858.173 125.2 859.053 124.208 859.053 122.368V118.256ZM865.548 126.192C863.276 126.192 861.756 124.56 861.756 122.128C861.756 119.712 863.26 118.048 865.468 118.048C867.564 118.048 868.988 119.536 868.988 121.728V122.272H862.828C862.908 124.16 863.9 125.248 865.564 125.248C866.828 125.248 867.644 124.704 867.932 123.68H868.988C868.572 125.312 867.372 126.192 865.548 126.192ZM865.468 118.992C864.012 118.992 863.052 119.952 862.86 121.472H867.884C867.884 119.984 866.924 118.992 865.468 118.992ZM874.802 118.16V119.152H874.194C872.77 119.152 871.858 120.112 871.858 121.584V126H870.754V118.256H871.794L871.874 119.456C872.178 118.624 872.994 118.08 874.082 118.08C874.322 118.08 874.53 118.096 874.802 118.16ZM875.72 129.376V128.464H876.568C877.24 128.464 877.912 128.416 878.296 127.376L878.632 126.464L875.496 118.256H876.664L879.16 125.008L881.608 118.256H882.744L879.192 127.776C878.744 128.992 877.992 129.488 876.888 129.488C876.424 129.488 876.072 129.456 875.72 129.376Z" fill="#6F41FF"/>
<path d="M59.7441 88H56.2861L63.1501 68.994H66.5561L73.4201 88H69.9101L68.3761 83.606H61.2781L59.7441 88ZM64.4241 74.662L62.2661 80.798H67.4141L65.2301 74.662C65.0741 74.168 64.8921 73.596 64.8401 73.206C64.7621 73.57 64.6061 74.142 64.4241 74.662ZM83.5629 75.156H86.7349V88H83.7969L83.5629 86.284C82.7829 87.506 81.1189 88.338 79.4029 88.338C76.4389 88.338 74.6969 86.336 74.6969 83.19V75.156H77.8689V82.072C77.8689 84.516 78.8309 85.504 80.5989 85.504C82.6009 85.504 83.5629 84.334 83.5629 81.89V75.156ZM94.3791 88H91.2071V77.808H88.7371V75.156H91.2071V71.152H94.3791V75.156H96.8751V77.808H94.3791V88ZM97.9661 81.552C97.9661 77.548 100.852 74.792 104.83 74.792C108.808 74.792 111.694 77.548 111.694 81.552C111.694 85.556 108.808 88.312 104.83 88.312C100.852 88.312 97.9661 85.556 97.9661 81.552ZM101.138 81.552C101.138 83.892 102.646 85.478 104.83 85.478C107.014 85.478 108.522 83.892 108.522 81.552C108.522 79.212 107.014 77.626 104.83 77.626C102.646 77.626 101.138 79.212 101.138 81.552ZM124.908 88H121.684V68.994H124.908L131.044 84.126L137.18 68.994H140.456V88H137.232V82.15C137.232 78.328 137.232 77.21 137.414 75.858L132.578 88H129.51L124.7 75.884C124.882 77.028 124.908 78.822 124.908 81.188V88ZM143.441 81.552C143.441 77.548 146.327 74.792 150.305 74.792C154.283 74.792 157.169 77.548 157.169 81.552C157.169 85.556 154.283 88.312 150.305 88.312C146.327 88.312 143.441 85.556 143.441 81.552ZM146.613 81.552C146.613 83.892 148.121 85.478 150.305 85.478C152.489 85.478 153.997 83.892 153.997 81.552C153.997 79.212 152.489 77.626 150.305 77.626C148.121 77.626 146.613 79.212 146.613 81.552ZM164.961 88.338C161.243 88.338 158.929 85.608 158.929 81.63C158.929 77.626 161.269 74.766 165.143 74.766C166.937 74.766 168.523 75.52 169.329 76.794V68.656H172.475V88H169.563L169.355 85.998C168.575 87.48 166.911 88.338 164.961 88.338ZM165.663 85.426C167.873 85.426 169.303 83.84 169.303 81.526C169.303 79.212 167.873 77.6 165.663 77.6C163.453 77.6 162.101 79.238 162.101 81.526C162.101 83.814 163.453 85.426 165.663 85.426ZM181.527 88.338C177.705 88.338 175.027 85.556 175.027 81.578C175.027 77.548 177.653 74.766 181.423 74.766C185.271 74.766 187.715 77.34 187.715 81.344V82.306L178.043 82.332C178.277 84.594 179.473 85.738 181.579 85.738C183.321 85.738 184.465 85.062 184.829 83.84H187.767C187.221 86.648 184.881 88.338 181.527 88.338ZM181.449 77.366C179.577 77.366 178.433 78.38 178.121 80.304H184.569C184.569 78.536 183.347 77.366 181.449 77.366Z" fill="black"/>
<path d="M253.179 38.0481V121" stroke="black"/>
</g>
<defs>
<clipPath id="clip0_1261_812">
<rect width="1074" height="161" fill="white"/>
</clipPath>
</defs>
</svg>
