<svg width="118" height="120" viewBox="0 0 118 120" fill="none" xmlns="http://www.w3.org/2000/svg">
<circle cx="57.6702" cy="54.9178" r="46.8724" fill="white" stroke="#13035C" stroke-width="2"/>
<path d="M11.7998 54.916H104.078" stroke="#13035C" stroke-width="1.3787"/>
<path d="M58.4629 8.95557V101.12" stroke="#13035C" stroke-width="1.3787"/>
<path d="M23.1104 85.0062C30.5914 77.145 43.98 71.9072 59.2516 71.9072C73.5035 71.9072 86.1153 76.4688 93.8164 83.4672" stroke="#13035C" stroke-width="1.3787"/>
<path d="M23.1104 24.8146C30.5914 32.6758 43.98 37.9136 59.2516 37.9136C73.5035 37.9136 86.1153 33.352 93.8164 26.3536" stroke="#13035C" stroke-width="1.3787"/>
<ellipse cx="59.2015" cy="55.0377" rx="25.8245" ry="46.0821" stroke="#13035C" stroke-width="1.3787"/>
<g filter="url(#filter0_d_675_1476)">
<circle cx="90.3105" cy="91.6162" r="25.5" fill="white"/>
<circle cx="90.3105" cy="91.6162" r="24.75" stroke="#13035C" stroke-width="1.5"/>
</g>
<mask id="path-9-inside-1_675_1476" fill="white">
<path fill-rule="evenodd" clip-rule="evenodd" d="M90.4757 79.5449L102.836 88.2695V101.067H93.3517V94.6846H87.7089V101.067H78.2256V88.2695L90.4757 79.5449Z"/>
</mask>
<path fill-rule="evenodd" clip-rule="evenodd" d="M90.4757 79.5449L102.836 88.2695V101.067H93.3517V94.6846H87.7089V101.067H78.2256V88.2695L90.4757 79.5449Z" fill="#DADAFF"/>
<path d="M102.836 88.2695H104.336V87.4923L103.701 87.0441L102.836 88.2695ZM90.4757 79.5449L91.3407 78.3195L90.4719 77.7061L89.6056 78.3231L90.4757 79.5449ZM102.836 101.067V102.567H104.336V101.067H102.836ZM93.3517 101.067H91.8517V102.567H93.3517V101.067ZM93.3517 94.6846H94.8517V93.1846H93.3517V94.6846ZM87.7089 94.6846V93.1846H86.2089V94.6846H87.7089ZM87.7089 101.067V102.567H89.2089V101.067H87.7089ZM78.2256 101.067H76.7256V102.567H78.2256V101.067ZM78.2256 88.2695L77.3554 87.0477L76.7256 87.4963V88.2695H78.2256ZM103.701 87.0441L91.3407 78.3195L89.6107 80.7704L101.971 89.495L103.701 87.0441ZM104.336 101.067V88.2695H101.336V101.067H104.336ZM93.3517 102.567H102.836V99.5666H93.3517V102.567ZM91.8517 94.6846V101.067H94.8517V94.6846H91.8517ZM87.7089 96.1846H93.3517V93.1846H87.7089V96.1846ZM89.2089 101.067V94.6846H86.2089V101.067H89.2089ZM78.2256 102.567H87.7089V99.5666H78.2256V102.567ZM76.7256 88.2695V101.067H79.7256V88.2695H76.7256ZM89.6056 78.3231L77.3554 87.0477L79.0958 89.4913L91.3459 80.7667L89.6056 78.3231Z" fill="#13035C" mask="url(#path-9-inside-1_675_1476)"/>
<defs>
<filter id="filter0_d_675_1476" x="64.8105" y="66.1162" width="52.8681" height="53.8021" filterUnits="userSpaceOnUse" color-interpolation-filters="sRGB">
<feFlood flood-opacity="0" result="BackgroundImageFix"/>
<feColorMatrix in="SourceAlpha" type="matrix" values="0 0 0 0 0 0 0 0 0 0 0 0 0 0 0 0 0 0 127 0" result="hardAlpha"/>
<feOffset dx="1.86806" dy="2.80209"/>
<feComposite in2="hardAlpha" operator="out"/>
<feColorMatrix type="matrix" values="0 0 0 0 0.0745098 0 0 0 0 0.0117647 0 0 0 0 0.360784 0 0 0 1 0"/>
<feBlend mode="normal" in2="BackgroundImageFix" result="effect1_dropShadow_675_1476"/>
<feBlend mode="normal" in="SourceGraphic" in2="effect1_dropShadow_675_1476" result="shape"/>
</filter>
</defs>
</svg>
