<svg xmlns="http://www.w3.org/2000/svg" width="24" height="24" viewBox="0 0 24 24" fill="none">
    <path d="M6.69135 16.2909C6.41018 16.5721 6.41018 17.0279 6.69135 17.3091C6.97252 17.5903 7.42841 17.5903 7.70958 17.3091L6.69135 16.2909ZM12.5096 12.5091C12.7907 12.2279 12.7907 11.7721 12.5096 11.4909C12.2284 11.2097 11.7726 11.2097 11.4914 11.4909L12.5096 12.5091ZM11.4914 11.4909C11.2102 11.7721 11.2102 12.2279 11.4914 12.5091C11.7726 12.7903 12.2284 12.7903 12.5096 12.5091L11.4914 11.4909ZM17.3096 7.7091C17.5907 7.42792 17.5907 6.97204 17.3096 6.69086C17.0284 6.40969 16.5726 6.40969 16.2914 6.69086L17.3096 7.7091ZM12.5096 11.4909C12.2284 11.2097 11.7726 11.2097 11.4914 11.4909C11.2102 11.7721 11.2102 12.2279 11.4914 12.5091L12.5096 11.4909ZM16.2914 17.3091C16.5726 17.5903 17.0284 17.5903 17.3096 17.3091C17.5907 17.0279 17.5907 16.5721 17.3096 16.2909L16.2914 17.3091ZM11.4914 12.5091C11.7726 12.7903 12.2284 12.7903 12.5096 12.5091C12.7907 12.2279 12.7907 11.7721 12.5096 11.4909L11.4914 12.5091ZM7.70958 6.69086C7.42841 6.40969 6.97252 6.40969 6.69135 6.69086C6.41018 6.97204 6.41018 7.42792 6.69135 7.7091L7.70958 6.69086ZM7.70958 17.3091L12.5096 12.5091L11.4914 11.4909L6.69135 16.2909L7.70958 17.3091ZM12.5096 12.5091L17.3096 7.7091L16.2914 6.69086L11.4914 11.4909L12.5096 12.5091ZM11.4914 12.5091L16.2914 17.3091L17.3096 16.2909L12.5096 11.4909L11.4914 12.5091ZM12.5096 11.4909L7.70958 6.69086L6.69135 7.7091L11.4914 12.5091L12.5096 11.4909Z" fill="white"/>
</svg>
