<svg width="391" height="960" viewBox="0 0 391 960" fill="none" xmlns="http://www.w3.org/2000/svg">
<g filter="url(#filter0_d_675_1526)">
<path d="M189.191 128.174C191.999 125.359 196.553 123.612 199.361 124.27C202.17 124.929 202.17 127.745 199.361 130.56C196.553 133.375 191.999 135.123 189.191 134.464C186.382 133.805 186.382 130.989 189.191 128.174ZM191.423 362.279L11.8925 320.168L13.7994 318.257L193.33 360.368L191.423 362.279ZM11.8925 310.989L193.323 129.143L195.23 129.591L13.7994 311.436L11.8925 310.989ZM11.8925 320.168C7.7937 319.207 7.7937 315.097 11.8925 310.989L13.7994 311.436C10.7538 314.489 10.7538 317.543 13.7994 318.257L11.8925 320.168Z" fill="#65B3FF"/>
</g>
<g filter="url(#filter1_d_675_1526)">
<path d="M189.223 824.744L174.183 828.025L185.193 816.99L189.223 824.744ZM179.688 823.687L6.89755 783.157L8.8045 781.246L181.595 821.776L179.688 823.687ZM6.89755 775.978L189.71 592.746L191.617 593.194L8.8045 776.425L6.89755 775.978ZM6.89755 783.157C3.69182 782.405 3.69181 779.191 6.89755 775.978L8.8045 776.425C6.65194 778.582 6.65194 780.741 8.8045 781.246L6.89755 783.157Z" fill="#65B3FF"/>
</g>
<g filter="url(#filter2_d_675_1526)">
<path d="M192.162 361.248L373.438 403.769C376.117 404.397 376.117 407.084 373.438 409.769L190.26 593.366" stroke="#65B3FF" stroke-width="2.35861"/>
</g>
<path d="M215.017 839.505L212.429 829.018L214.483 829.5L215.534 833.986C215.712 834.808 215.874 835.706 216.019 836.66C216.165 835.734 216.31 835.148 216.569 834.229L217.669 830.247L219.674 830.717L220.741 835.208C220.838 835.63 221.161 837.186 221.258 837.869C221.388 837.159 221.646 836.04 221.792 835.454L222.859 831.464L224.945 831.954L222.18 841.185L220.337 840.753L219.237 836.215C218.914 834.839 218.736 833.857 218.671 833.342C218.59 833.783 218.445 834.449 218.04 835.974L216.941 839.956L215.017 839.505ZM229.318 843.12C226.941 842.562 225.276 840.031 225.276 836.971C225.276 833.871 226.909 832.114 229.254 832.664C231.647 833.226 233.167 835.562 233.167 838.642L233.167 839.382L227.152 837.991C227.297 839.765 228.041 840.82 229.351 841.127C230.434 841.381 231.146 841.028 231.372 840.141L233.199 840.57C232.86 842.65 231.404 843.609 229.318 843.12ZM229.27 834.668C228.106 834.395 227.394 835.008 227.2 836.443L231.21 837.383C231.21 836.023 230.45 834.945 229.27 834.668ZM236.573 844.561L234.746 844.133L234.746 829.253L236.719 829.715L236.719 836.155C237.236 835.177 238.303 834.767 239.516 835.051C241.796 835.586 243.187 838.112 243.187 841.232C243.187 844.272 241.683 846.02 239.387 845.481C238.19 845.2 237.171 844.301 236.702 843.051L236.573 844.561ZM236.735 839.619C236.735 841.399 237.624 842.828 238.982 843.146C240.373 843.472 241.198 842.426 241.198 840.666C241.198 838.906 240.373 837.452 238.982 837.126C237.624 836.808 236.735 837.839 236.735 839.619ZM247.927 839.984L246.488 839.647L246.488 837.987L249.528 835.24L244.612 834.087L244.612 831.827L252.115 833.587L252.115 835.627L249.236 838.232C251.048 839.096 252.454 841.066 252.454 843.646C252.454 846.646 250.562 848.103 248.169 847.541C245.857 846.999 244.062 844.818 244.062 841.658L246.099 842.136C246.099 843.816 246.94 844.973 248.202 845.269C249.495 845.572 250.352 844.733 250.352 843.113C250.352 841.633 249.576 840.371 247.927 839.984ZM255.451 841.949C254.74 841.782 254.141 840.922 254.141 840.062C254.141 839.182 254.74 838.602 255.451 838.769C256.163 838.936 256.761 839.796 256.761 840.676C256.761 841.536 256.163 842.116 255.451 841.949ZM255.451 849.229C254.74 849.062 254.141 848.202 254.141 847.342C254.141 846.462 254.74 845.882 255.451 846.049C256.163 846.216 256.761 847.076 256.761 847.956C256.761 848.816 256.163 849.396 255.451 849.229ZM259.923 850.038L257.966 849.579L262.575 836.06L264.548 836.523L259.923 850.038ZM264.329 851.072L262.372 850.613L266.981 837.094L268.953 837.556L264.329 851.072Z" fill="#65B3FF"/>
<path d="M213.902 119.191L211.929 121.169V106.289L213.918 104.295V110.575C214.419 109.113 215.357 107.553 216.505 106.402C218.478 104.425 219.513 104.928 219.513 107.488V113.568L217.54 115.545V110.045C217.54 108.385 216.877 108.249 215.874 109.254C214.629 110.502 213.902 112.311 213.902 113.791V119.191ZM224.167 108.902L222.195 110.879V103.039L220.659 104.579V102.539L222.195 100.999V97.9194L224.167 95.9421V99.0221L225.72 97.4662V99.5062L224.167 101.062V108.902ZM229.884 103.173L227.911 105.15V97.3099L226.375 98.8496V96.8096L227.911 95.2699V92.1899L229.884 90.2126V93.2926L231.436 91.7367V93.7767L229.884 95.3326V103.173ZM232.663 104.968V90.5075L234.49 88.6761L234.619 90.0465C235.104 88.4203 236.155 86.7068 237.368 85.4913C239.616 83.2385 241.103 83.7674 241.103 86.8674C241.103 89.9474 239.745 93.5488 237.368 95.9313C236.171 97.1306 235.137 97.5878 234.635 97.0903V102.99L232.663 104.968ZM234.651 93.4541C234.651 95.2341 235.541 95.5627 236.899 94.2013C238.29 92.8075 239.114 90.7409 239.114 88.9809C239.114 87.2209 238.29 86.7875 236.899 88.1813C235.541 89.5427 234.651 91.6741 234.651 93.4541ZM244.162 81.822C243.45 82.5351 242.852 82.4148 242.852 81.5548C242.852 80.6748 243.45 79.3551 244.162 78.642C244.873 77.9289 245.472 78.0492 245.472 78.9292C245.472 79.7892 244.873 81.1089 244.162 81.822ZM244.162 89.102C243.45 89.8151 242.852 89.6948 242.852 88.8348C242.852 87.9548 243.45 86.6351 244.162 85.922C244.873 85.2089 245.472 85.3292 245.472 86.2092C245.472 87.0692 244.873 88.3889 244.162 89.102ZM248.634 84.38L246.677 86.341L251.285 67.122L253.258 65.1447L248.634 84.38ZM253.039 79.9642L251.083 81.9252L255.691 62.7062L257.664 60.7289L253.039 79.9642Z" fill="#65B3FF"/>
<path d="M341.106 240.041V251.932C341.106 253.627 340.444 255.255 339.261 256.469L281.792 315.413C280.196 317.051 277.857 317.729 275.633 317.199L193.632 297.681C192.506 297.413 191.711 296.406 191.711 295.249V280.431L251.688 221.338C253.287 219.763 255.585 219.124 257.767 219.647L340.723 239.555C340.948 239.609 341.106 239.81 341.106 240.041Z" fill="white" stroke="#03175C"/>
<path d="M339.699 238.507L339.698 238.507L256.259 218.826C256.259 218.826 256.259 218.826 256.258 218.826C255.536 218.657 254.52 218.789 253.442 219.203C252.375 219.613 251.311 220.274 250.507 221.08L192.204 279.517C191.852 279.869 191.724 280.211 191.712 280.52C191.699 280.839 191.809 281.18 192.031 281.518C192.485 282.209 193.329 282.772 194.067 282.945L194.068 282.945L276.26 302.296L339.699 238.507ZM339.699 238.507C340.419 238.676 340.897 239.123 341.05 239.637M339.699 238.507L341.05 239.637M341.05 239.637C341.198 240.136 341.081 240.838 340.315 241.605M341.05 239.637L340.315 241.605M340.315 241.605L282.011 300.042M340.315 241.605L282.011 300.042M282.011 300.042C281.207 300.848 280.143 301.509 279.076 301.919M282.011 300.042L279.076 301.919M279.076 301.919C277.998 302.333 276.982 302.465 276.26 302.296L279.076 301.919Z" fill="white" stroke="#03175C"/>
<line x1="278.307" y1="302.17" x2="278.307" y2="317.266" stroke="#232F70"/>
<path d="M341.106 217.048V228.939C341.106 230.634 340.444 232.262 339.261 233.476L281.792 292.42C280.196 294.057 277.857 294.735 275.633 294.206L193.632 274.688C192.506 274.42 191.711 273.413 191.711 272.256V257.438L251.688 198.345C253.287 196.77 255.585 196.13 257.767 196.654L340.723 216.562C340.948 216.616 341.106 216.817 341.106 217.048Z" fill="white" stroke="#03175C"/>
<path d="M339.699 215.514L339.698 215.514L256.259 195.833C256.259 195.833 256.259 195.833 256.258 195.833C255.536 195.664 254.52 195.796 253.442 196.21C252.375 196.62 251.311 197.281 250.507 198.087L192.204 256.524C191.852 256.876 191.724 257.218 191.712 257.527C191.699 257.846 191.809 258.187 192.031 258.525C192.485 259.216 193.329 259.779 194.067 259.952L194.068 259.952L276.26 279.303L339.699 215.514ZM339.699 215.514C340.419 215.683 340.897 216.13 341.05 216.644M339.699 215.514L341.05 216.644M341.05 216.644C341.198 217.143 341.081 217.844 340.315 218.612M341.05 216.644L340.315 218.612M340.315 218.612L282.011 277.049M340.315 218.612L282.011 277.049M282.011 277.049C281.207 277.855 280.143 278.516 279.076 278.926M282.011 277.049L279.076 278.926M279.076 278.926C277.998 279.34 276.982 279.472 276.26 279.303L279.076 278.926Z" fill="white" stroke="#03175C"/>
<line x1="278.307" y1="279.177" x2="278.307" y2="294.272" stroke="#232F70"/>
<path d="M341.106 193.873V205.763C341.106 207.459 340.444 209.087 339.261 210.301L281.792 269.245C280.196 270.882 277.857 271.56 275.633 271.031L193.632 251.512C192.506 251.244 191.711 250.238 191.711 249.08V234.263L251.688 175.169C253.287 173.594 255.585 172.955 257.767 173.479L340.723 193.387C340.948 193.44 341.106 193.642 341.106 193.873Z" fill="white" stroke="#03175C"/>
<path d="M339.699 192.338L339.698 192.338L256.259 172.658C256.259 172.658 256.259 172.658 256.258 172.658C255.536 172.488 254.52 172.621 253.442 173.035C252.375 173.444 251.311 174.106 250.507 174.911L192.204 233.349C191.852 233.701 191.724 234.042 191.712 234.351C191.699 234.671 191.809 235.011 192.031 235.35C192.485 236.041 193.329 236.604 194.067 236.777L194.068 236.777L276.26 256.128L339.699 192.338ZM339.699 192.338C340.419 192.507 340.897 192.954 341.05 193.469M339.699 192.338L341.05 193.469M341.05 193.469C341.198 193.968 341.081 194.669 340.315 195.437M341.05 193.469L340.315 195.437M340.315 195.437L282.011 253.874M340.315 195.437L282.011 253.874M282.011 253.874C281.207 254.68 280.143 255.341 279.076 255.751M282.011 253.874L279.076 255.751M279.076 255.751C277.998 256.164 276.982 256.297 276.26 256.128L279.076 255.751Z" fill="white" stroke="#03175C"/>
<line x1="278.307" y1="256.002" x2="278.307" y2="271.097" stroke="#232F70"/>
<path d="M245.144 207.774C248.285 204.431 251.987 201.992 256.251 200.455C260.516 198.918 264.53 198.591 268.294 199.475C272.058 200.359 274.119 202.112 274.476 204.734C274.832 207.356 273.44 210.338 270.3 213.681C267.123 217.063 263.468 219.502 259.337 220.999C255.223 222.476 251.207 222.755 247.287 221.834C243.367 220.914 241.231 219.191 240.879 216.665C240.545 214.119 241.967 211.156 245.144 207.774ZM251.375 209.237C249.22 211.53 248.131 213.398 248.107 214.839C248.128 216.268 249.151 217.219 251.176 217.695C253.201 218.17 255.306 217.953 257.492 217.043C259.722 216.12 261.915 214.511 264.069 212.218C266.279 209.866 267.382 207.967 267.38 206.519C267.421 205.058 266.43 204.09 264.405 203.615C262.38 203.139 260.243 203.373 257.995 204.316C255.791 205.245 253.584 206.886 251.375 209.237ZM285.776 209.238L279.234 207.702L283.206 203.475L295.784 206.428L275.515 228L269.48 226.583L285.776 209.238Z" fill="#232F70"/>
<path d="M169.844 493.129V505.02C169.844 506.715 169.181 508.344 167.998 509.557L110.529 568.502C108.933 570.139 106.594 570.817 104.37 570.287L22.3693 550.769C21.2431 550.501 20.4482 549.495 20.4482 548.337V533.519L80.4253 474.426C82.0239 472.851 84.3219 472.212 86.5041 472.735L169.46 492.643C169.685 492.697 169.844 492.898 169.844 493.129Z" fill="white" stroke="#03175C"/>
<path d="M168.436 491.595L168.435 491.595L84.9961 471.914C84.996 471.914 84.9959 471.914 84.9958 471.914C84.2737 471.745 83.2576 471.878 82.1797 472.291C81.1126 472.701 80.0486 473.362 79.2447 474.168L20.941 532.605C20.5895 532.958 20.4612 533.299 20.4492 533.608C20.4368 533.927 20.5466 534.268 20.7686 534.606C21.2219 535.297 22.0665 535.86 22.8045 536.033L22.8049 536.033L104.997 555.384L168.436 491.595ZM168.436 491.595C169.156 491.764 169.634 492.211 169.787 492.726M168.436 491.595L169.787 492.726M169.787 492.726C169.936 493.224 169.818 493.926 169.052 494.693M169.787 492.726L169.052 494.693M169.052 494.693L110.749 553.13M169.052 494.693L110.749 553.13M110.749 553.13C109.945 553.936 108.881 554.598 107.814 555.007M110.749 553.13L107.814 555.007M107.814 555.007C106.736 555.421 105.72 555.554 104.998 555.384L107.814 555.007Z" fill="white" stroke="#03175C"/>
<line x1="107.044" y1="555.259" x2="107.044" y2="570.354" stroke="#232F70"/>
<path d="M169.844 470.136V482.027C169.844 483.722 169.181 485.35 167.998 486.564L110.529 545.508C108.933 547.145 106.594 547.824 104.37 547.294L22.3693 527.776C21.2431 527.508 20.4482 526.501 20.4482 525.344V510.526L80.4253 451.433C82.0239 449.858 84.3219 449.219 86.5041 449.742L169.46 469.65C169.685 469.704 169.844 469.905 169.844 470.136Z" fill="white" stroke="#03175C"/>
<path d="M168.436 468.602L168.435 468.602L84.9961 448.921C84.996 448.921 84.9959 448.921 84.9958 448.921C84.2737 448.752 83.2576 448.884 82.1797 449.298C81.1126 449.708 80.0486 450.369 79.2447 451.175L20.941 509.612C20.5895 509.964 20.4612 510.306 20.4492 510.615C20.4368 510.934 20.5466 511.275 20.7686 511.613C21.2219 512.304 22.0665 512.867 22.8045 513.04L22.8049 513.04L104.997 532.391L168.436 468.602ZM168.436 468.602C169.156 468.771 169.634 469.218 169.787 469.732M168.436 468.602L169.787 469.732M169.787 469.732C169.936 470.231 169.818 470.933 169.052 471.7M169.787 469.732L169.052 471.7M169.052 471.7L110.749 530.137M169.052 471.7L110.749 530.137M110.749 530.137C109.945 530.943 108.881 531.604 107.814 532.014M110.749 530.137L107.814 532.014M107.814 532.014C106.736 532.428 105.72 532.56 104.998 532.391L107.814 532.014Z" fill="white" stroke="#03175C"/>
<line x1="107.044" y1="532.265" x2="107.044" y2="547.36" stroke="#232F70"/>
<path d="M169.844 446.961V458.851C169.844 460.547 169.181 462.175 167.998 463.389L110.529 522.333C108.933 523.97 106.594 524.648 104.37 524.119L22.3693 504.6C21.2431 504.332 20.4482 503.326 20.4482 502.168V487.351L80.4253 428.257C82.0239 426.682 84.3219 426.043 86.5041 426.567L169.46 446.475C169.685 446.529 169.844 446.73 169.844 446.961Z" fill="white" stroke="#03175C"/>
<path d="M168.436 445.427L168.435 445.426L84.9961 425.746C84.996 425.746 84.9959 425.746 84.9958 425.746C84.2737 425.576 83.2576 425.709 82.1797 426.123C81.1126 426.533 80.0486 427.194 79.2447 428L20.941 486.437C20.5895 486.789 20.4612 487.13 20.4492 487.44C20.4368 487.759 20.5466 488.099 20.7686 488.438C21.2219 489.129 22.0665 489.692 22.8045 489.865L22.8049 489.865L104.997 509.216L168.436 445.427ZM168.436 445.427C169.156 445.595 169.634 446.042 169.787 446.557M168.436 445.427L169.787 446.557M169.787 446.557C169.936 447.056 169.818 447.757 169.052 448.525M169.787 446.557L169.052 448.525M169.052 448.525L110.749 506.962M169.052 448.525L110.749 506.962M110.749 506.962C109.945 507.768 108.881 508.429 107.814 508.839M110.749 506.962L107.814 508.839M107.814 508.839C106.736 509.252 105.72 509.385 104.998 509.216L107.814 508.839Z" fill="white" stroke="#03175C"/>
<line x1="107.044" y1="509.09" x2="107.044" y2="524.185" stroke="#232F70"/>
<path d="M70.5916 460.09C73.7322 456.747 77.4346 454.307 81.6989 452.77C85.9632 451.233 89.9774 450.907 93.7417 451.791C97.506 452.675 99.5665 454.428 99.9232 457.05C100.28 459.672 98.888 462.654 95.7473 465.997C92.5702 469.378 88.9158 471.818 84.7842 473.315C80.6709 474.792 76.6542 475.071 72.7341 474.15C68.8141 473.23 66.6781 471.506 66.3262 468.98C65.9926 466.435 67.4144 463.471 70.5916 460.09ZM76.8221 461.553C74.6675 463.846 73.5784 465.714 73.5549 467.155C73.5757 468.583 74.5985 469.535 76.6234 470.011C78.6483 470.486 80.7537 470.269 82.9397 469.359C85.1698 468.435 87.3622 466.827 89.5168 464.534C91.7262 462.182 92.8297 460.283 92.8272 458.835C92.8689 457.374 91.8774 456.406 89.8524 455.93C87.8275 455.455 85.6909 455.688 83.4425 456.631C81.2383 457.561 79.0315 459.201 76.8221 461.553ZM109.507 482.251L88.8913 477.482L92.1781 473.983L107.24 470.297C109.736 469.697 111.656 469.104 112.999 468.518C114.386 467.918 115.49 467.181 116.312 466.307C117.335 465.218 117.76 464.31 117.589 463.582C117.461 462.84 116.749 462.317 115.451 462.012C114.101 461.695 112.739 461.779 111.365 462.263C110.018 462.753 108.778 463.6 107.646 464.805L101.376 463.333C103.659 460.904 106.423 459.193 109.669 458.2C112.96 457.193 116.189 457.062 119.356 457.805C122.653 458.58 124.62 459.824 125.259 461.54C125.941 463.242 125.205 465.24 123.05 467.533C120.64 470.098 116.28 472.159 109.971 473.713L103.101 475.41L113.615 477.878L109.507 482.251Z" fill="#232F70"/>
<path d="M376.387 696.04V707.931C376.387 709.626 375.724 711.254 374.541 712.468L317.072 771.412C315.476 773.05 313.137 773.728 310.913 773.198L228.912 753.68C227.786 753.412 226.991 752.405 226.991 751.248V736.43L286.968 677.337C288.567 675.762 290.865 675.123 293.047 675.646L376.003 695.554C376.228 695.608 376.387 695.809 376.387 696.04Z" fill="white" stroke="#03175C"/>
<path d="M374.979 694.506L374.978 694.506L291.539 674.825C291.539 674.825 291.539 674.825 291.539 674.825C290.817 674.656 289.801 674.788 288.723 675.202C287.656 675.612 286.592 676.273 285.788 677.079L227.484 735.516C227.132 735.868 227.004 736.21 226.992 736.519C226.98 736.838 227.09 737.179 227.312 737.517C227.765 738.208 228.609 738.771 229.347 738.944L229.348 738.944L311.54 758.295L374.979 694.506ZM374.979 694.506C375.699 694.675 376.177 695.122 376.33 695.636M374.979 694.506L376.33 695.636M376.33 695.636C376.479 696.135 376.361 696.837 375.595 697.604M376.33 695.636L375.595 697.604M375.595 697.604L317.292 756.041M375.595 697.604L317.292 756.041M317.292 756.041C316.488 756.847 315.424 757.508 314.357 757.918M317.292 756.041L314.357 757.918M314.357 757.918C313.279 758.332 312.263 758.465 311.541 758.295L314.357 757.918Z" fill="white" stroke="#03175C"/>
<line x1="313.587" y1="758.169" x2="313.587" y2="773.265" stroke="#232F70"/>
<path d="M376.387 673.047V684.938C376.387 686.633 375.724 688.261 374.541 689.475L317.072 748.419C315.476 750.056 313.137 750.734 310.913 750.205L228.912 730.687C227.786 730.419 226.991 729.412 226.991 728.255V713.437L286.968 654.344C288.567 652.769 290.865 652.13 293.047 652.653L376.003 672.561C376.228 672.615 376.387 672.816 376.387 673.047Z" fill="white" stroke="#03175C"/>
<path d="M374.979 671.513L374.978 671.513L291.539 651.832C291.539 651.832 291.539 651.832 291.539 651.832C290.817 651.663 289.801 651.795 288.723 652.209C287.656 652.619 286.592 653.28 285.788 654.086L227.484 712.523C227.132 712.875 227.004 713.217 226.992 713.526C226.98 713.845 227.09 714.186 227.312 714.524C227.765 715.215 228.609 715.778 229.347 715.951L229.348 715.951L311.54 735.302L374.979 671.513ZM374.979 671.513C375.699 671.682 376.177 672.129 376.33 672.643M374.979 671.513L376.33 672.643M376.33 672.643C376.479 673.142 376.361 673.843 375.595 674.611M376.33 672.643L375.595 674.611M375.595 674.611L317.292 733.048M375.595 674.611L317.292 733.048M317.292 733.048C316.488 733.854 315.424 734.515 314.357 734.925M317.292 733.048L314.357 734.925M314.357 734.925C313.279 735.339 312.263 735.471 311.541 735.302L314.357 734.925Z" fill="white" stroke="#03175C"/>
<line x1="313.587" y1="735.176" x2="313.587" y2="750.271" stroke="#232F70"/>
<path d="M376.387 649.872V661.762C376.387 663.458 375.724 665.086 374.541 666.3L317.072 725.244C315.476 726.881 313.137 727.559 310.913 727.03L228.912 707.511C227.786 707.243 226.991 706.237 226.991 705.079V690.262L286.968 631.168C288.567 629.593 290.865 628.954 293.047 629.478L376.003 649.386C376.228 649.44 376.387 649.641 376.387 649.872Z" fill="white" stroke="#03175C"/>
<path d="M374.979 648.338L374.978 648.337L291.539 628.657C291.539 628.657 291.539 628.657 291.539 628.657C290.817 628.487 289.801 628.62 288.723 629.034C287.656 629.443 286.592 630.105 285.788 630.911L227.484 689.348C227.132 689.7 227.004 690.041 226.992 690.35C226.98 690.67 227.09 691.01 227.312 691.349C227.765 692.04 228.609 692.603 229.347 692.776L229.348 692.776L311.54 712.127L374.979 648.338ZM374.979 648.338C375.699 648.506 376.177 648.953 376.33 649.468M374.979 648.338L376.33 649.468M376.33 649.468C376.479 649.967 376.361 650.668 375.595 651.436M376.33 649.468L375.595 651.436M375.595 651.436L317.292 709.873M375.595 651.436L317.292 709.873M317.292 709.873C316.488 710.679 315.424 711.34 314.357 711.75M317.292 709.873L314.357 711.75M314.357 711.75C313.279 712.163 312.263 712.296 311.541 712.127L314.357 711.75Z" fill="white" stroke="#03175C"/>
<line x1="313.587" y1="712.001" x2="313.587" y2="727.096" stroke="#232F70"/>
<path d="M277.332 663.047C280.473 659.704 284.175 657.265 288.44 655.728C292.704 654.191 296.718 653.864 300.482 654.748C304.247 655.632 306.307 657.385 306.664 660.007C307.021 662.629 305.629 665.611 302.488 668.954C299.311 672.336 295.657 674.775 291.525 676.272C287.412 677.749 283.395 678.028 279.475 677.107C275.555 676.187 273.419 674.464 273.067 671.938C272.733 669.392 274.155 666.429 277.332 663.047ZM283.563 664.51C281.408 666.803 280.319 668.671 280.296 670.112C280.316 671.541 281.339 672.492 283.364 672.968C285.389 673.443 287.494 673.226 289.68 672.316C291.911 671.393 294.103 669.784 296.258 667.491C298.467 665.14 299.57 663.24 299.568 661.792C299.61 660.331 298.618 659.363 296.593 658.888C294.568 658.412 292.432 658.646 290.183 659.589C287.979 660.518 285.772 662.159 283.563 664.51ZM313.536 672.26L309.33 671.272L312.179 668.241C312.223 668.227 312.28 668.217 312.35 668.21C312.439 668.183 312.505 668.163 312.549 668.15L322.681 665.512L311.816 662.96L315.705 658.821L334.475 663.228L330.942 666.989L321.115 669.556C322.753 670.51 323.665 671.732 323.849 673.223C324.059 674.719 323.342 676.342 321.699 678.091C319.617 680.307 316.908 681.841 313.571 682.694C310.253 683.528 307.088 683.591 304.077 682.884C301.143 682.196 299.302 680.968 298.552 679.203C297.821 677.418 298.55 675.36 300.742 673.028L306.972 674.491C305.986 675.54 305.605 676.435 305.828 677.175C306.077 677.922 306.851 678.447 308.149 678.752C309.369 679.039 310.63 678.979 311.93 678.573C313.257 678.172 314.368 677.496 315.262 676.544C316.139 675.611 316.461 674.762 316.23 673.996C316.044 673.217 315.145 672.638 313.536 672.26Z" fill="#232F70"/>
<defs>
<filter id="filter0_d_675_1526" x="5.18464" y="124.131" width="199.917" height="301.738" filterUnits="userSpaceOnUse" color-interpolation-filters="sRGB">
<feFlood flood-opacity="0" result="BackgroundImageFix"/>
<feColorMatrix in="SourceAlpha" type="matrix" values="0 0 0 0 0 0 0 0 0 0 0 0 0 0 0 0 0 0 127 0" result="hardAlpha"/>
<feOffset dy="59.9564"/>
<feGaussianBlur stdDeviation="1.81686"/>
<feComposite in2="hardAlpha" operator="out"/>
<feColorMatrix type="matrix" values="0 0 0 0 0.801888 0 0 0 0 0.940566 0 0 0 0 1 0 0 0 1 0"/>
<feBlend mode="normal" in2="BackgroundImageFix" result="effect1_dropShadow_675_1526"/>
<feBlend mode="normal" in="SourceGraphic" in2="effect1_dropShadow_675_1526" result="shape"/>
</filter>
<filter id="filter1_d_675_1526" x="0.859443" y="592.746" width="194.391" height="298.869" filterUnits="userSpaceOnUse" color-interpolation-filters="sRGB">
<feFlood flood-opacity="0" result="BackgroundImageFix"/>
<feColorMatrix in="SourceAlpha" type="matrix" values="0 0 0 0 0 0 0 0 0 0 0 0 0 0 0 0 0 0 127 0" result="hardAlpha"/>
<feOffset dy="59.9564"/>
<feGaussianBlur stdDeviation="1.81686"/>
<feComposite in2="hardAlpha" operator="out"/>
<feColorMatrix type="matrix" values="0 0 0 0 0.801888 0 0 0 0 0.940566 0 0 0 0 1 0 0 0 1 0"/>
<feBlend mode="normal" in2="BackgroundImageFix" result="effect1_dropShadow_675_1526"/>
<feBlend mode="normal" in="SourceGraphic" in2="effect1_dropShadow_675_1526" result="shape"/>
</filter>
<filter id="filter2_d_675_1526" x="185.673" y="360.293" width="194.757" height="296.887" filterUnits="userSpaceOnUse" color-interpolation-filters="sRGB">
<feFlood flood-opacity="0" result="BackgroundImageFix"/>
<feColorMatrix in="SourceAlpha" type="matrix" values="0 0 0 0 0 0 0 0 0 0 0 0 0 0 0 0 0 0 127 0" result="hardAlpha"/>
<feOffset dy="59.9564"/>
<feGaussianBlur stdDeviation="1.81686"/>
<feComposite in2="hardAlpha" operator="out"/>
<feColorMatrix type="matrix" values="0 0 0 0 0.801888 0 0 0 0 0.940566 0 0 0 0 1 0 0 0 1 0"/>
<feBlend mode="normal" in2="BackgroundImageFix" result="effect1_dropShadow_675_1526"/>
<feBlend mode="normal" in="SourceGraphic" in2="effect1_dropShadow_675_1526" result="shape"/>
</filter>
</defs>
</svg>
