<svg width="29" height="22" viewBox="0 0 29 22" fill="none" xmlns="http://www.w3.org/2000/svg">    <path id="Vector" d="M24.5871 2.27361C27.8623 6.85006 29.4798 12.0122 28.8751 17.955C28.8726 17.9801 28.8588 18.0032 28.8371 18.0183C26.3569 19.7492 23.9539 20.7996 21.5846 21.4962C21.5661 21.5015 21.5464 21.5012 21.5281 21.4953C21.5098 21.4895 21.494 21.4783 21.4827 21.4634C20.9353 20.7396 20.438 19.9765 20.0022 19.1752C19.9772 19.128 20.0001 19.0712 20.0515 19.0526C20.8414 18.7697 21.5925 18.4307 22.315 18.0294C22.3719 17.9977 22.3755 17.9202 22.323 17.883C22.1696 17.7748 22.0177 17.6611 21.8724 17.5474C21.8452 17.5264 21.8086 17.5223 21.7778 17.5364C17.0874 19.5948 11.9493 19.5948 7.20348 17.5364C7.17267 17.5233 7.13606 17.5278 7.10959 17.5484C6.96459 17.6621 6.81234 17.7748 6.66046 17.883C6.60789 17.9202 6.61224 17.9977 6.66952 18.0294C7.39198 18.4231 8.14308 18.7697 8.93188 19.0539C8.98299 19.0725 9.00728 19.128 8.9819 19.1752C8.5556 19.9776 8.05825 20.7407 7.50073 21.4645C7.47644 21.4938 7.43657 21.5072 7.39887 21.4962C5.04081 20.7996 2.6378 19.7492 0.15758 18.0183C0.136917 18.0032 0.122055 17.9791 0.11988 17.9539C-0.385445 12.8135 0.644416 7.60867 4.4039 2.27257C4.41296 2.25845 4.42674 2.24742 4.44269 2.24088C6.29252 1.43404 8.2743 0.840449 10.3456 0.501452C10.3833 0.49594 10.421 0.512477 10.4406 0.544171C10.6965 0.974807 10.9891 1.52706 11.187 1.97836C13.3703 1.66141 15.5877 1.66141 17.8167 1.97836C18.0147 1.5367 18.2971 0.974807 18.5519 0.544171C18.561 0.528448 18.575 0.515851 18.5921 0.508179C18.6091 0.500508 18.6283 0.498153 18.6469 0.501452C20.7193 0.841483 22.7011 1.43507 24.5494 2.24088C24.5658 2.24742 24.5792 2.25845 24.5871 2.27361ZM12.297 12.0473C12.3198 10.5277 11.154 9.27024 9.69059 9.27024C8.23914 9.27024 7.08458 10.5167 7.08458 12.0473C7.08458 13.5776 8.26198 14.8241 9.69059 14.8241C11.1424 14.8241 12.297 13.5776 12.297 12.0473ZM21.9329 12.0473C21.9558 10.5277 20.79 9.27024 19.3269 9.27024C17.8751 9.27024 16.7205 10.5167 16.7205 12.0473C16.7205 13.5776 17.8979 14.8241 19.3269 14.8241C20.79 14.8241 21.9329 13.5776 21.9329 12.0473Z" fill="black"/></svg>