<svg width="121" height="120" viewBox="0 0 121 120" fill="none" xmlns="http://www.w3.org/2000/svg">
<path d="M101.201 37.6907C99 32.3922 94.5386 26.6721 91.0365 24.8652C93.8871 30.4546 95.5359 36.0609 96.1663 40.244C96.1663 40.244 96.1663 40.2735 96.1768 40.3283C90.4483 26.0459 80.7327 20.2857 72.7987 7.74694C72.396 7.11441 71.9954 6.48189 71.6032 5.80508C71.3818 5.42346 71.2026 5.07768 71.0466 4.75087C70.7178 4.11688 70.4638 3.44683 70.2897 2.7542C70.2911 2.72131 70.2802 2.68908 70.2591 2.66376C70.2381 2.63844 70.2084 2.62183 70.1758 2.61716C70.1448 2.60873 70.112 2.60873 70.0809 2.61716C70.0726 2.62097 70.0648 2.62594 70.0578 2.63191C70.0451 2.63191 70.0325 2.64667 70.0198 2.65089L70.0409 2.62348C57.3124 10.0788 52.9943 23.87 52.5979 30.7709C53.1883 30.7308 53.7765 30.6802 54.3774 30.6802C63.8759 30.6802 72.1493 35.9049 76.5791 43.6449C73.874 41.7473 69.0288 39.8666 64.3629 40.6783C82.5881 49.7909 77.6944 81.1726 52.4398 79.9877C50.1913 79.8976 47.969 79.4711 45.8468 78.7226C45.3513 78.5371 44.8537 78.3326 44.3582 78.1133C44.0715 77.9826 43.7869 77.8519 43.5149 77.7064L43.5486 77.7275C43.304 77.6094 43.0573 77.4871 42.8128 77.3606C43.0489 77.4723 43.2724 77.5967 43.5149 77.7064C37.314 74.5079 32.2053 68.4567 31.5665 61.1152C31.5665 61.1152 33.9047 52.399 48.3136 52.399C49.8718 52.399 54.3247 48.0515 54.407 46.7906C54.388 46.3795 45.5706 42.8711 42.1318 39.4829C40.2953 37.6738 39.4224 36.8009 38.6486 36.1452C38.2299 35.7912 37.7921 35.4604 37.3372 35.1543C36.1828 31.113 36.134 26.836 37.1959 22.7694C31.9903 25.1414 27.9421 28.8838 24.9987 32.1962H24.9756C22.9662 29.6513 23.1075 21.2577 23.2213 19.5056C23.1982 19.3959 21.7244 20.2709 21.5346 20.4038C19.7616 21.6686 18.1042 23.0883 16.5819 24.6459C14.8497 26.4022 13.2671 28.3 11.8506 30.3197C8.59188 34.9379 6.2808 40.1563 5.051 45.6732C5.02781 45.7828 5.00672 45.8967 4.98353 46.0084C4.88865 46.4533 4.45854 48.7177 4.3995 49.2027C4.3995 49.1668 4.3995 49.2406 4.3995 49.2027C4.00472 51.5424 3.75195 53.904 3.64258 56.2743V56.5336C3.64258 84.5166 26.3292 107.203 54.3121 107.203C79.3749 107.203 100.183 89.0075 104.258 65.1065C104.343 64.4592 104.412 63.8056 104.488 63.152C105.496 54.4611 104.376 45.3274 101.201 37.6907Z" fill="white"/>
<path d="M43.5149 77.7064C43.7869 77.8519 44.0715 77.9826 44.3582 78.1133C44.8537 78.3326 45.3513 78.5371 45.8468 78.7226C47.969 79.4711 50.1913 79.8976 52.4398 79.9877C77.6944 81.1726 82.5881 49.7909 64.3629 40.6783C69.0288 39.8666 73.874 41.7473 76.5791 43.6449C72.1493 35.9049 63.8759 30.6802 54.3774 30.6802C53.7765 30.6802 53.1883 30.7308 52.5979 30.7709C52.9943 23.87 57.3124 10.0788 70.0409 2.62348L70.0198 2.65089C70.0325 2.64667 70.0451 2.63191 70.0578 2.63191C70.0648 2.62594 70.0726 2.62097 70.0809 2.61716C70.112 2.60873 70.1448 2.60873 70.1758 2.61716C70.2084 2.62183 70.2381 2.63844 70.2591 2.66376C70.2802 2.68908 70.2911 2.72131 70.2897 2.7542C70.4638 3.44683 70.7178 4.11688 71.0466 4.75088C71.2026 5.07768 71.3818 5.42346 71.6032 5.80508C71.9954 6.48189 72.396 7.11441 72.7987 7.74694C80.7327 20.2857 90.4483 26.0459 96.1768 40.3283C96.1663 40.2735 96.1663 40.244 96.1663 40.244C95.5359 36.0609 93.8871 30.4546 91.0365 24.8652C94.5386 26.6721 99 32.3922 101.201 37.6907C104.376 45.3274 105.496 54.4611 104.488 63.152C104.412 63.8056 104.343 64.4592 104.258 65.1065C100.183 89.0075 79.3749 107.203 54.3121 107.203C26.3292 107.203 3.64258 84.5166 3.64258 56.5336V56.2743C3.75195 53.904 4.00472 51.5424 4.3995 49.2027M43.5149 77.7064L43.5486 77.7275C43.304 77.6094 43.0573 77.4871 42.8128 77.3606C43.0489 77.4723 43.2724 77.5967 43.5149 77.7064ZM43.5149 77.7064C37.314 74.5079 32.2053 68.4567 31.5665 61.1152C31.5665 61.1152 33.9047 52.399 48.3136 52.399C49.8718 52.399 54.3247 48.0515 54.407 46.7906C54.388 46.3795 45.5706 42.8711 42.1318 39.4829C40.2953 37.6738 39.4224 36.8009 38.6486 36.1452C38.2299 35.7912 37.7921 35.4604 37.3372 35.1543C36.1828 31.113 36.134 26.836 37.1959 22.7694C31.9903 25.1414 27.9421 28.8838 24.9987 32.1962H24.9756C22.9662 29.6513 23.1075 21.2577 23.2213 19.5056C23.1982 19.3959 21.7244 20.2709 21.5346 20.4038C19.7616 21.6686 18.1042 23.0883 16.5819 24.6459C14.8497 26.4022 13.2671 28.3 11.8507 30.3197C8.59188 34.9379 6.2808 40.1563 5.051 45.6732C5.02781 45.7828 5.00672 45.8967 4.98353 46.0084C4.88865 46.4533 4.45854 48.7177 4.3995 49.2027M4.3995 49.2027C4.3995 49.1668 4.3995 49.2406 4.3995 49.2027ZM96.1747 40.2925V40.3473" stroke="#13035C" stroke-width="1.38"/>
<path d="M101.201 37.6907C99 32.3922 94.5386 26.6721 91.0365 24.8652C93.8871 30.4546 95.5359 36.0609 96.1663 40.244C96.1663 40.244 96.1663 40.2735 96.1768 40.3283C90.4483 26.0459 80.7327 20.2857 72.7987 7.74694C72.396 7.11441 71.9954 6.48189 71.6032 5.80508C71.3818 5.42346 71.2026 5.07768 71.0466 4.75087C70.7178 4.11688 70.4638 3.44683 70.2897 2.7542C70.2911 2.72131 70.2802 2.68908 70.2591 2.66376C70.2381 2.63844 70.2084 2.62183 70.1758 2.61716C70.1448 2.60873 70.112 2.60873 70.0809 2.61716C70.0726 2.62097 70.0648 2.62594 70.0578 2.63191C70.0451 2.63191 70.0325 2.64667 70.0198 2.65089L70.0409 2.62348C57.3124 10.0788 52.9943 23.87 52.5979 30.7709C47.5116 31.1187 42.6482 32.9916 38.6423 36.1452C38.2236 35.7912 37.7858 35.4604 37.3309 35.1543C36.1765 31.113 36.1277 26.836 37.1896 22.7694C31.9839 25.1414 27.9358 28.8838 24.9924 32.1962H24.9692C22.9599 29.6513 23.1012 21.2577 23.215 19.5056C23.1918 19.3959 21.718 20.2709 21.5283 20.4038C19.7553 21.6686 18.0979 23.0883 16.5756 24.6459C14.8433 26.4022 13.2608 28.3 11.8443 30.3197C8.58555 34.9379 6.27447 40.1563 5.04468 45.6732C5.02148 45.7828 5.0004 45.8967 4.97721 46.0084C4.88233 46.4533 4.53866 48.6861 4.47751 49.171V49.2828C4.02949 51.5899 3.75044 53.9266 3.64258 56.2743V56.5336C3.64258 84.5166 26.3292 107.203 54.3121 107.203C79.3749 107.203 100.183 89.0075 104.258 65.1065C104.343 64.4592 104.412 63.8056 104.488 63.152C105.496 54.4611 104.376 45.3274 101.201 37.6907ZM42.798 77.3543C43.0342 77.466 43.2576 77.5904 43.5001 77.7001L43.5339 77.7211C43.2914 77.6031 43.0447 77.4808 42.8001 77.3543H42.798ZM96.1811 40.3515V40.303V40.3578V40.3515Z" fill="white" stroke="#13035C" stroke-width="1.38"/>
<path d="M101.199 37.6912C98.9976 32.3928 94.5362 26.6726 91.0341 24.8657C93.8847 30.4551 95.5334 36.0614 96.1639 40.2445V40.3478C100.946 53.3104 98.3398 66.4922 94.5868 74.5464C88.7802 87.0071 74.7234 99.7799 52.7178 99.1579C28.9623 98.4832 8.01934 80.8337 4.10823 57.736C3.39558 54.0905 4.10823 52.2414 4.46666 49.2833C4.03022 51.5625 3.86365 52.2224 3.64648 56.2748V56.5342C3.64648 84.5171 26.3331 107.204 54.316 107.204C79.3788 107.204 100.187 89.008 104.262 65.107C104.347 64.4597 104.416 63.8061 104.492 63.1525C105.494 54.4616 104.374 45.3279 101.199 37.6912Z" fill="white" stroke="#13035C" stroke-width="1.38"/>
<path d="M101.199 37.6912C98.9976 32.3928 94.5362 26.6726 91.0341 24.8657C93.8847 30.4551 95.5334 36.0614 96.1639 40.2445V40.3478C100.946 53.3104 98.3398 66.4922 94.5868 74.5464C88.7802 87.0071 74.7234 99.7799 52.7178 99.1579C28.9623 98.4832 8.01934 80.8337 4.10823 57.736C3.39558 54.0905 4.10823 52.2414 4.46666 49.2833C4.03022 51.5625 3.86365 52.2224 3.64648 56.2748V56.5342C3.64648 84.5171 26.3331 107.204 54.316 107.204C79.3788 107.204 100.187 89.008 104.262 65.107C104.347 64.4597 104.416 63.8061 104.492 63.1525C105.494 54.4616 104.374 45.3279 101.199 37.6912Z" fill="#BBA7FF" stroke="#13035C" stroke-width="1.38"/>
<path d="M76.5749 43.6454C76.6866 43.7234 76.7857 43.8014 76.8912 43.8794C75.6195 41.6214 74.0352 39.5545 72.1852 37.7397C56.4353 21.9898 68.0569 3.58757 70.0156 2.65143L70.0367 2.62402C57.3082 10.0794 52.9901 23.8706 52.5938 30.7714C53.1841 30.7313 53.7724 30.6807 54.3733 30.6807C63.8717 30.6807 72.1451 35.9054 76.5749 43.6454Z" fill="#BBA7FF" stroke="#13035C" stroke-width="1.38"/>
<path d="M54.4059 46.7915C54.3237 48.0566 49.8707 52.3999 48.3126 52.3999C33.9037 52.3999 31.5654 61.1161 31.5654 61.1161C32.198 68.4577 37.313 74.5025 43.5012 77.701C43.7837 77.8464 44.0683 77.9772 44.3446 78.1079C44.84 78.3187 45.3376 78.5296 45.8331 78.7172C47.9553 79.4657 50.1776 79.8921 52.4261 79.9823C77.6808 81.1672 82.5765 49.7855 64.3492 40.6729C69.0152 39.8612 73.8603 41.7398 76.5654 43.6395C72.1377 35.8995 63.8622 30.6748 54.3638 30.6748C53.7629 30.6748 53.1746 30.7254 52.5843 30.7655C47.5016 31.1176 42.6429 32.9926 38.6413 36.1461C39.4151 36.8019 40.288 37.6748 42.1244 39.4838C45.5695 42.8825 54.3869 46.3804 54.4059 46.7915Z" fill="white" stroke="#13035C" stroke-width="1.38"/>
<path d="M54.4059 46.7915C54.3237 48.0566 49.8707 52.3999 48.3126 52.3999C33.9037 52.3999 31.5654 61.1161 31.5654 61.1161C32.198 68.4577 37.313 74.5025 43.5012 77.701C43.7837 77.8464 44.0683 77.9772 44.3446 78.1079C44.84 78.3187 45.3376 78.5296 45.8331 78.7172C47.9553 79.4657 50.1776 79.8921 52.4261 79.9823C77.6808 81.1672 82.5765 49.7855 64.3492 40.6729C69.0152 39.8612 73.8603 41.7398 76.5654 43.6395C72.1377 35.8995 63.8622 30.6748 54.3638 30.6748C53.7629 30.6748 53.1746 30.7254 52.5843 30.7655C47.5016 31.1176 42.6429 32.9926 38.6413 36.1461C39.4151 36.8019 40.288 37.6748 42.1244 39.4838C45.5695 42.8825 54.3869 46.3804 54.4059 46.7915Z" fill="white" stroke="#13035C" stroke-width="1.38"/>
<path d="M36.2843 34.4607C36.6954 34.7264 37.0327 34.9499 37.3385 35.1544C36.184 31.1131 36.1353 26.8361 37.1972 22.7695C31.9915 25.1415 27.9434 28.8839 25 32.1963C25.2383 32.1899 32.5882 32.0571 36.2843 34.4607Z" fill="#BBA7FF" stroke="#13035C" stroke-width="1.38"/>
<path d="M4.10678 57.7359C8.0179 80.8337 28.9608 98.4832 52.7332 99.1579C74.7388 99.7799 88.7872 87.0071 94.6022 74.5464C98.3552 66.4901 100.961 53.3104 96.1793 40.3478V40.2508C96.1793 40.2635 96.1793 40.2803 96.1898 40.3352C97.9862 52.0727 92.0173 63.4434 82.6854 71.1328C82.6758 71.1544 82.6666 71.1762 82.658 71.1982C64.4729 86.0056 47.0721 80.1316 43.549 77.7343C43.3044 77.6162 43.0577 77.4939 42.8131 77.3674C32.2099 72.3072 27.8307 62.6401 28.769 54.3561C19.8187 54.3561 16.7657 46.8038 16.7657 46.8038C16.7657 46.8038 24.803 41.0731 35.3957 46.0574C45.2062 50.6749 54.42 46.8059 54.42 46.8038C54.401 46.3927 45.5836 42.8842 42.1448 39.496C40.3083 37.687 39.4354 36.8141 38.6617 36.1584C38.243 35.8043 37.8052 35.4735 37.3502 35.1674C37.0487 34.9566 36.7177 34.7457 36.296 34.4738C32.5999 32.0702 25.25 32.203 25.0075 32.2093H24.9843C22.975 29.6645 23.1163 21.2709 23.2301 19.5188C23.2069 19.4091 21.7332 20.2841 21.5434 20.4169C19.7704 21.6818 18.113 23.1014 16.5907 24.6591C14.8585 26.4153 13.2759 28.3132 11.8594 30.3328C8.60067 34.9511 6.28959 40.1695 5.05979 45.6863C5.01973 45.7833 3.21703 53.654 4.10678 57.7359Z" fill="white" stroke="#13035C" stroke-width="1.38"/>
<path d="M72.1853 37.7392C74.0353 39.5539 75.6196 41.6209 76.8913 43.8789C77.1548 44.0768 77.4081 44.2879 77.6503 44.5114C89.137 55.0873 83.128 70.0591 82.6705 71.1344C92.0023 63.445 97.9713 52.0743 96.1749 40.3368C90.4463 26.0459 80.7307 20.2857 72.7968 7.74694C72.394 7.11441 71.9934 6.48189 71.6013 5.80508C71.3799 5.42346 71.2007 5.07768 71.0447 4.75087C70.7159 4.11688 70.4619 3.44683 70.2877 2.7542C70.2891 2.72131 70.2782 2.68908 70.2572 2.66376C70.2362 2.63844 70.2065 2.62183 70.1739 2.61716C70.1428 2.60873 70.1101 2.60873 70.079 2.61716C70.0706 2.62097 70.0628 2.62594 70.0558 2.63191C70.0432 2.63191 70.0305 2.64667 70.0179 2.65089C68.057 3.58703 56.4354 21.9893 72.1853 37.7392Z" fill="white" stroke="#13035C" stroke-width="1.38"/>
<path d="M77.6473 44.5012C77.4051 44.2777 77.1518 44.0665 76.8883 43.8686C76.785 43.7906 76.6774 43.7126 76.572 43.6346C73.8669 41.737 69.0218 39.8563 64.3558 40.6681C82.581 49.7806 77.6874 81.1623 52.4327 79.9774C50.1842 79.8873 47.9619 79.4609 45.8397 78.7123C45.3442 78.5268 44.8467 78.3223 44.3512 78.103C44.0644 77.9723 43.7798 77.8416 43.5078 77.6961L43.5415 77.7172C47.0647 80.1208 64.4655 85.9948 82.6506 71.1811C82.6506 71.1811 82.6611 71.1537 82.678 71.1157C83.1292 70.0594 89.1382 55.0875 77.6473 44.5012Z" fill="#BBA7FF" stroke="#13035C" stroke-width="1.38"/>
<path d="M31.5657 61.1153C31.5657 61.1153 33.9039 52.3991 48.3129 52.3991C49.871 52.3991 54.324 48.0516 54.4062 46.7907C54.4884 45.5299 45.1924 50.6618 35.3819 46.0443C24.7892 41.06 16.752 46.7907 16.752 46.7907C16.752 46.7907 19.8049 54.3431 28.7552 54.3431C27.8169 62.6271 32.1961 72.2857 42.7994 77.3544C43.0355 77.4661 43.259 77.5905 43.5015 77.7001C37.3132 74.508 32.2045 68.4568 31.5657 61.1153Z" fill="#BBA7FF" stroke="#13035C" stroke-width="1.38"/>
<g filter="url(#filter0_d_675_1492)">
<circle cx="93.5" cy="91.3486" r="25.5" fill="white"/>
<circle cx="93.5" cy="91.3486" r="24.75" stroke="#13035C" stroke-width="1.5"/>
</g>
<path d="M90.1756 80.9726H90.9256V80.2226V77.2148C90.9256 75.9627 91.9313 74.957 93.1834 74.957C94.4355 74.957 95.4412 75.9627 95.4412 77.2148V80.2226V80.9726H96.1912H102.207C102.903 80.9726 103.462 81.5311 103.462 82.2277V88.2433V88.9933H104.212H107.22C108.472 88.9933 109.477 89.9989 109.477 91.251C109.477 92.5031 108.472 93.5088 107.22 93.5088H104.212H103.462V94.2588V101.277C103.462 101.974 102.903 102.532 102.207 102.532H96.9412V101.277C96.9412 99.1964 95.2639 97.5192 93.1834 97.5192C91.1029 97.5192 89.4256 99.1964 89.4256 101.277V102.532H83.1575C82.4609 102.532 81.9023 101.974 81.9023 101.277V95.0088H84.1601C86.2406 95.0088 87.9179 93.3316 87.9179 91.251C87.9179 89.1705 86.2406 87.4933 84.1601 87.4933H81.9023V82.2277C81.9023 81.5311 82.4609 80.9726 83.1575 80.9726H90.1756Z" fill="#DADAFF" stroke="#13035C" stroke-width="1.5"/>
<defs>
<filter id="filter0_d_675_1492" x="68" y="65.8486" width="52.8681" height="53.8021" filterUnits="userSpaceOnUse" color-interpolation-filters="sRGB">
<feFlood flood-opacity="0" result="BackgroundImageFix"/>
<feColorMatrix in="SourceAlpha" type="matrix" values="0 0 0 0 0 0 0 0 0 0 0 0 0 0 0 0 0 0 127 0" result="hardAlpha"/>
<feOffset dx="1.86806" dy="2.80209"/>
<feComposite in2="hardAlpha" operator="out"/>
<feColorMatrix type="matrix" values="0 0 0 0 0.0745098 0 0 0 0 0.0117647 0 0 0 0 0.360784 0 0 0 1 0"/>
<feBlend mode="normal" in2="BackgroundImageFix" result="effect1_dropShadow_675_1492"/>
<feBlend mode="normal" in="SourceGraphic" in2="effect1_dropShadow_675_1492" result="shape"/>
</filter>
</defs>
</svg>
