<svg width="137" height="40" viewBox="0 0 137 40" fill="none" xmlns="http://www.w3.org/2000/svg">
<g clip-path="url(#clip0_675_833)">
<path d="M6.81995 22.4194C6.81995 22.7192 6.59793 23.0619 6.32405 23.1847L5.00986 23.7743C4.64467 23.9382 4.34863 23.7469 4.34863 23.3471V7.37061L6.81995 8.51649V22.4194Z" fill="white"/>
<path d="M13.5357 19.2885C13.5357 19.5883 13.3137 19.931 13.0398 20.0539L11.7257 20.6434C11.3605 20.8073 11.0645 20.616 11.0645 20.2162V4.39941L13.5357 5.54535V19.2885Z" fill="white"/>
<path d="M17.7473 23.8019C17.7472 23.7989 17.7472 23.7959 17.7472 23.7929V18.1325C17.7472 17.8693 18.0195 17.6942 18.2595 17.8029L30.7816 23.48C30.9655 23.5634 31.115 23.4687 31.115 23.2691V21.2164C31.115 21.0182 30.9677 20.7911 30.7852 20.708L17.9593 14.8664C17.8301 14.8076 17.7472 14.6789 17.7472 14.5371V10.1243C17.7472 9.8611 18.0195 9.68596 18.2595 9.79474L30.7816 15.4718C30.9655 15.5552 31.115 15.4605 31.115 15.2608V13.2082C31.115 13.01 30.9677 12.7829 30.7852 12.6998L17.9593 6.85816C17.8301 6.79936 17.7472 6.67065 17.7472 6.5289V1.78174H18.882L32.7721 8.0683C33.3199 8.31406 34.8934 9.78706 35.3862 11.6582L35.3867 27.9312C35.3867 30.2113 34.0469 32.2791 31.9641 33.2135L20.5928 38.315C18.9495 39.0522 16.2851 39.0522 14.6418 38.315L2.95254 33.0708L2.61855 31.2961C2.60808 31.2405 2.62247 31.1844 2.66089 31.1313L3.35083 30.1774L17.2867 23.8561C17.4109 23.7998 17.5886 23.7816 17.7473 23.8019Z" fill="white"/>
<path d="M0.417969 28.3803V10.9762C0.417969 9.83708 1.08683 8.80382 2.12698 8.33612L3.97765 7.50392C4.26478 7.37486 4.59386 7.37636 4.87978 7.50812L6.66786 8.33216" stroke="white" stroke-width="0.603202"/>
<path d="M6.64069 8.57857L6.64062 7.01401C6.64062 6.58652 6.89179 6.19879 7.28236 6.02359L10.6943 4.49283C10.9784 4.36541 11.3034 4.36568 11.5872 4.49357L13.3383 5.28266" stroke="white" stroke-width="0.603202"/>
<path d="M13.3539 6.02462V3.99945C13.3539 3.57189 13.6052 3.18414 13.9958 3.00898L16.0372 2.09358C17.1716 1.58486 18.4699 1.58537 19.6039 2.09496L32.838 8.04191C34.2687 8.68481 35.1888 10.1058 35.1888 11.6723V15.0711V28.2545C35.1888 30.2279 34.0414 32.0218 32.2483 32.8516L20.499 38.2895C18.7966 39.0773 16.837 39.0952 15.1205 38.3386L3.23268 33.0979C1.52536 32.3453 0.423828 30.6573 0.423828 28.7938V28.3762" stroke="white" stroke-width="0.603202" stroke-linecap="round"/>
<path d="M11.6241 34.5957C10.0585 34.6883 5.47224 34.2611 3.01492 33.0797C0.936514 32.0804 0.24707 29.6248 0.24707 28.2617C0.247045 28.131 0.34814 28.1047 0.440216 28.0796L0.586786 27.9414C0.588214 27.9535 0.588218 27.9644 0.586967 27.9743C0.606915 29.7796 2.26913 30.8143 4.33747 29.7329L11.6241 34.5957Z" fill="white"/>
<path d="M14.4941 25.1274C17.4575 23.791 17.7532 22.1881 17.7532 20.5415L20.715 25.1275L17.8491 23.7536L14.4941 25.1274Z" fill="white"/>
<path d="M129.316 30.3503L134.944 10.3076H136.959L131.346 30.3503H129.316Z" fill="white"/>
<path d="M121.254 30.3503L126.881 10.3076H128.896L123.284 30.3503H121.254Z" fill="white"/>
<path d="M117.657 17.0444C118.245 17.0444 118.749 17.2494 119.168 17.6594C119.598 18.0694 119.812 18.5912 119.812 19.2248C119.812 19.8118 119.593 20.3103 119.154 20.7203C118.725 21.1303 118.226 21.3353 117.657 21.3353C117.069 21.3353 116.56 21.1256 116.131 20.7063C115.711 20.2777 115.501 19.7746 115.501 19.1968C115.501 18.6098 115.706 18.1066 116.117 17.6873C116.527 17.2587 117.041 17.0444 117.657 17.0444ZM117.657 26.0594C118.245 26.0594 118.749 26.2738 119.168 26.7023C119.598 27.131 119.812 27.6248 119.812 28.1839C119.812 28.7896 119.598 29.302 119.168 29.7214C118.739 30.1406 118.235 30.3503 117.657 30.3503C117.069 30.3503 116.56 30.1406 116.131 29.7214C115.711 29.2927 115.501 28.7896 115.501 28.2118C115.501 27.6248 115.706 27.1217 116.117 26.7023C116.527 26.2738 117.041 26.0594 117.657 26.0594Z" fill="white"/>
<path d="M105.353 10.3218C107.163 10.3218 108.624 10.7737 109.734 11.6775C110.845 12.572 111.4 13.76 111.4 15.2416C111.4 17.2449 110.49 18.7358 108.671 19.7141C109.716 20.0868 110.504 20.6972 111.036 21.5451C111.568 22.3837 111.834 23.3854 111.834 24.5501C111.834 26.2832 111.227 27.6855 110.014 28.7571C108.801 29.8193 107.205 30.3504 105.227 30.3504C103.669 30.3504 102.171 29.9824 100.734 29.2463V25.808C101.528 26.3391 102.255 26.7258 102.917 26.9681C103.58 27.201 104.257 27.3175 104.947 27.3175C105.862 27.3175 106.608 27.0612 107.187 26.5488C107.775 26.027 108.069 25.3514 108.069 24.5222C108.069 23.609 107.747 22.8822 107.103 22.3418C106.459 21.792 105.577 21.5171 104.457 21.5171H104.233V18.4842H104.402C105.446 18.4842 106.263 18.2559 106.851 17.7993C107.439 17.3334 107.733 16.7091 107.733 15.9264C107.733 15.153 107.448 14.5334 106.879 14.0675C106.31 13.5923 105.582 13.3547 104.695 13.3547C103.594 13.3547 102.437 13.6482 101.224 14.2353V11.1743C102.446 10.6059 103.823 10.3218 105.353 10.3218Z" fill="white"/>
<path d="M88.4167 10.5732V17.883C89.4339 17.1563 90.5864 16.7929 91.8741 16.7929C93.0218 16.7929 94.0625 17.0771 94.9957 17.6454C95.9378 18.2045 96.6661 18.9965 97.1793 20.0215C97.702 21.0371 97.9628 22.1739 97.9628 23.4318C97.9628 25.5749 97.3241 27.2661 96.0454 28.5054C94.7667 29.7354 93.0176 30.3503 90.7967 30.3503C88.7994 30.3503 86.8586 29.9823 84.9736 29.2461V10.5732H88.4167ZM88.4167 27.3733C89.1539 27.6249 90.0126 27.7506 90.9926 27.7506C92.0472 27.7506 92.8818 27.3686 93.4977 26.6046C94.1232 25.8312 94.4356 24.7643 94.4356 23.4039C94.4356 22.1739 94.1232 21.1956 93.4977 20.4687C92.8728 19.7327 92.0472 19.3646 91.0203 19.3646C90.5444 19.3646 90.1057 19.4531 89.7049 19.6302C89.3036 19.8072 88.8739 20.0821 88.4167 20.4548V27.3733Z" fill="white"/>
<path d="M76.0149 16.793C77.9377 16.793 79.4585 17.408 80.5785 18.6379C81.698 19.8678 82.258 21.5684 82.258 23.7394V24.2565H73.0057C73.1457 25.4213 73.5795 26.3204 74.3078 26.9541C75.0444 27.5784 76.0527 27.8905 77.3308 27.8905C78.1522 27.8905 78.9405 27.7508 79.6964 27.4712C80.4614 27.1823 81.2503 26.7491 82.0621 26.1714V28.7291C80.5317 29.81 78.6743 30.3504 76.4914 30.3504C74.4285 30.3504 72.7443 29.7308 71.438 28.4915C70.1317 27.2522 69.4785 25.603 69.4785 23.5437C69.4785 21.559 70.0806 19.9377 71.2842 18.6798C72.4973 17.4219 74.074 16.793 76.0149 16.793ZM79.0247 22.174C78.9315 21.2236 78.6419 20.4828 78.157 19.9517C77.6715 19.4112 77.0045 19.1411 76.1549 19.1411C75.2872 19.1411 74.5872 19.3973 74.0554 19.9098C73.5332 20.4222 73.2016 21.177 73.0615 22.174H79.0247Z" fill="white"/>
<path d="M50.387 17.0449L53.4244 24.5783L56.5178 17.0449H58.7573L61.8229 24.5783L64.8603 17.0449H68.4433L62.6208 30.3508H61.1649L57.6375 22.37L54.1103 30.3508H52.6825L46.8037 17.0449H50.387Z" fill="white"/>
</g>
<defs>
<clipPath id="clip0_675_833">
<rect width="137" height="39" fill="white" transform="translate(0 0.829102)"/>
</clipPath>
</defs>
</svg>
