<svg width="1073" height="161" viewBox="0 0 1073 161" fill="none" xmlns="http://www.w3.org/2000/svg">
<g clip-path="url(#clip0_1261_786)">
<path d="M1047 0.856934H26C11.9167 0.856934 0.5 12.2737 0.5 26.3569V134.914C0.5 148.997 11.9167 160.414 26 160.414H1047C1061.08 160.414 1072.5 148.997 1072.5 134.914V26.3569C1072.5 12.2737 1061.08 0.856934 1047 0.856934Z" fill="white" stroke="black"/>
<path d="M111.33 84H109.134V70.608H111.348V76.26C111.906 75.396 112.95 74.838 114.228 74.838C116.424 74.838 117.576 76.224 117.576 78.528V84H115.38V79.05C115.38 77.556 114.642 76.836 113.526 76.836C112.14 76.836 111.33 77.808 111.33 79.14V84ZM124.558 84H122.362V76.944H120.652V75.108H122.362V72.336H124.558V75.108H126.286V76.944H124.558V84ZM132.721 84H130.525V76.944H128.815V75.108H130.525V72.336H132.721V75.108H134.449V76.944H132.721V84ZM137.614 88.122V75.108H139.648L139.792 76.458C140.332 75.432 141.502 74.838 142.852 74.838C145.354 74.838 147.01 76.656 147.01 79.446C147.01 82.218 145.498 84.234 142.852 84.234C141.52 84.234 140.368 83.712 139.81 82.812V88.122H137.614ZM139.828 79.554C139.828 81.156 140.818 82.254 142.33 82.254C143.878 82.254 144.796 81.138 144.796 79.554C144.796 77.97 143.878 76.836 142.33 76.836C140.818 76.836 139.828 77.952 139.828 79.554ZM149.875 81.3H151.963C151.981 82.074 152.557 82.56 153.565 82.56C154.591 82.56 155.149 82.146 155.149 81.498C155.149 81.048 154.915 80.724 154.123 80.544L152.521 80.166C150.919 79.806 150.145 79.05 150.145 77.628C150.145 75.882 151.621 74.838 153.673 74.838C155.671 74.838 157.021 75.99 157.039 77.718H154.951C154.933 76.962 154.429 76.476 153.583 76.476C152.719 76.476 152.215 76.872 152.215 77.538C152.215 78.042 152.611 78.366 153.367 78.546L154.969 78.924C156.463 79.266 157.219 79.95 157.219 81.318C157.219 83.118 155.689 84.234 153.493 84.234C151.279 84.234 149.875 83.046 149.875 81.3ZM162.347 77.664C161.555 77.664 160.889 77.016 160.889 76.242C160.889 75.45 161.555 74.802 162.347 74.802C163.139 74.802 163.805 75.45 163.805 76.242C163.805 77.016 163.139 77.664 162.347 77.664ZM162.347 84.216C161.555 84.216 160.889 83.568 160.889 82.794C160.889 82.002 161.555 81.354 162.347 81.354C163.139 81.354 163.805 82.002 163.805 82.794C163.805 83.568 163.139 84.216 162.347 84.216ZM169.124 84H166.946L172.076 70.86H174.272L169.124 84ZM175.829 84H173.651L178.781 70.86H180.977L175.829 84ZM185.262 84L182.382 75.108H184.668L185.838 78.924C186.036 79.626 186.216 80.4 186.378 81.228C186.54 80.364 186.702 79.806 186.99 78.924L188.214 75.108H190.446L191.634 78.924C191.742 79.284 192.102 80.616 192.21 81.21C192.354 80.544 192.642 79.482 192.804 78.924L193.992 75.108H196.314L193.236 84H191.184L189.96 80.148C189.6 78.978 189.402 78.132 189.33 77.682C189.24 78.096 189.078 78.726 188.628 80.184L187.404 84H185.262ZM201.405 84L198.525 75.108H200.811L201.981 78.924C202.179 79.626 202.359 80.4 202.521 81.228C202.683 80.364 202.845 79.806 203.133 78.924L204.357 75.108H206.589L207.777 78.924C207.885 79.284 208.245 80.616 208.353 81.21C208.497 80.544 208.785 79.482 208.947 78.924L210.135 75.108H212.457L209.379 84H207.327L206.103 80.148C205.743 78.978 205.545 78.132 205.473 77.682C205.383 78.096 205.221 78.726 204.771 80.184L203.547 84H201.405ZM217.549 84L214.669 75.108H216.955L218.125 78.924C218.323 79.626 218.503 80.4 218.665 81.228C218.827 80.364 218.989 79.806 219.277 78.924L220.501 75.108H222.733L223.921 78.924C224.029 79.284 224.389 80.616 224.497 81.21C224.641 80.544 224.929 79.482 225.091 78.924L226.279 75.108H228.601L225.523 84H223.471L222.247 80.148C221.887 78.978 221.689 78.132 221.617 77.682C221.527 78.096 221.365 78.726 220.915 80.184L219.691 84H217.549ZM231.695 84.216C230.903 84.216 230.237 83.568 230.237 82.794C230.237 82.002 230.903 81.354 231.695 81.354C232.487 81.354 233.153 82.002 233.153 82.794C233.153 83.568 232.487 84.216 231.695 84.216ZM240.691 84.234C238.045 84.234 236.191 82.308 236.191 79.554C236.191 76.764 238.009 74.838 240.619 74.838C243.283 74.838 244.975 76.62 244.975 79.392V80.058L238.279 80.076C238.441 81.642 239.269 82.434 240.727 82.434C241.933 82.434 242.725 81.966 242.977 81.12H245.011C244.633 83.064 243.013 84.234 240.691 84.234ZM240.637 76.638C239.341 76.638 238.549 77.34 238.333 78.672H242.797C242.797 77.448 241.951 76.638 240.637 76.638ZM249.676 84H247.174L250.234 79.644L247.174 75.108H249.73L251.692 78.132L253.582 75.108H256.048L253.024 79.608L255.958 84H253.438L251.548 81.066L249.676 84ZM261.802 84.234C259.912 84.234 258.76 83.136 258.76 81.462C258.76 79.824 259.948 78.798 262.054 78.636L264.718 78.438V78.24C264.718 77.034 263.998 76.548 262.882 76.548C261.586 76.548 260.866 77.088 260.866 78.024H258.994C258.994 76.098 260.578 74.838 262.99 74.838C265.384 74.838 266.86 76.134 266.86 78.6V84H264.934L264.772 82.686C264.394 83.604 263.188 84.234 261.802 84.234ZM262.522 82.578C263.872 82.578 264.736 81.768 264.736 80.4V79.932L262.882 80.076C261.514 80.202 260.992 80.652 260.992 81.372C260.992 82.182 261.532 82.578 262.522 82.578ZM273.014 84H270.818V75.108H272.834L273.014 76.152C273.464 75.414 274.364 74.838 275.642 74.838C276.992 74.838 277.928 75.504 278.396 76.53C278.846 75.504 279.89 74.838 281.24 74.838C283.4 74.838 284.588 76.134 284.588 78.186V84H282.41V78.762C282.41 77.484 281.726 76.818 280.682 76.818C279.62 76.818 278.81 77.502 278.81 78.96V84H276.614V78.744C276.614 77.502 275.948 76.836 274.904 76.836C273.86 76.836 273.014 77.52 273.014 78.96V84ZM288.543 88.122V75.108H290.577L290.721 76.458C291.261 75.432 292.431 74.838 293.781 74.838C296.283 74.838 297.939 76.656 297.939 79.446C297.939 82.218 296.427 84.234 293.781 84.234C292.449 84.234 291.297 83.712 290.739 82.812V88.122H288.543ZM290.757 79.554C290.757 81.156 291.747 82.254 293.259 82.254C294.807 82.254 295.725 81.138 295.725 79.554C295.725 77.97 294.807 76.836 293.259 76.836C291.747 76.836 290.757 77.952 290.757 79.554ZM303.702 84H301.524V70.608H303.702V84ZM311.783 84.234C309.137 84.234 307.283 82.308 307.283 79.554C307.283 76.764 309.101 74.838 311.711 74.838C314.375 74.838 316.067 76.62 316.067 79.392V80.058L309.371 80.076C309.533 81.642 310.361 82.434 311.819 82.434C313.025 82.434 313.817 81.966 314.069 81.12H316.103C315.725 83.064 314.105 84.234 311.783 84.234ZM311.729 76.638C310.433 76.638 309.641 77.34 309.425 78.672H313.889C313.889 77.448 313.043 76.638 311.729 76.638ZM320.556 84.216C319.764 84.216 319.098 83.568 319.098 82.794C319.098 82.002 319.764 81.354 320.556 81.354C321.348 81.354 322.014 82.002 322.014 82.794C322.014 83.568 321.348 84.216 320.556 84.216ZM325.051 79.536C325.051 76.782 326.869 74.838 329.497 74.838C331.927 74.838 333.583 76.188 333.817 78.33H331.621C331.369 77.322 330.631 76.8 329.587 76.8C328.183 76.8 327.247 77.862 327.247 79.536C327.247 81.21 328.111 82.254 329.515 82.254C330.613 82.254 331.387 81.714 331.621 80.742H333.835C333.565 82.812 331.837 84.234 329.515 84.234C326.815 84.234 325.051 82.362 325.051 79.536ZM336.748 79.536C336.748 76.764 338.746 74.856 341.5 74.856C344.254 74.856 346.252 76.764 346.252 79.536C346.252 82.308 344.254 84.216 341.5 84.216C338.746 84.216 336.748 82.308 336.748 79.536ZM338.944 79.536C338.944 81.156 339.988 82.254 341.5 82.254C343.012 82.254 344.056 81.156 344.056 79.536C344.056 77.916 343.012 76.818 341.5 76.818C339.988 76.818 338.944 77.916 338.944 79.536ZM351.989 84H349.793V75.108H351.809L351.989 76.152C352.439 75.414 353.339 74.838 354.617 74.838C355.967 74.838 356.903 75.504 357.371 76.53C357.821 75.504 358.865 74.838 360.215 74.838C362.375 74.838 363.563 76.134 363.563 78.186V84H361.385V78.762C361.385 77.484 360.701 76.818 359.657 76.818C358.595 76.818 357.785 77.502 357.785 78.96V84H355.589V78.744C355.589 77.502 354.923 76.836 353.879 76.836C352.835 76.836 351.989 77.52 351.989 78.96V84ZM369.174 77.664C368.382 77.664 367.716 77.016 367.716 76.242C367.716 75.45 368.382 74.802 369.174 74.802C369.966 74.802 370.632 75.45 370.632 76.242C370.632 77.016 369.966 77.664 369.174 77.664ZM369.174 84.216C368.382 84.216 367.716 83.568 367.716 82.794C367.716 82.002 368.382 81.354 369.174 81.354C369.966 81.354 370.632 82.002 370.632 82.794C370.632 83.568 369.966 84.216 369.174 84.216ZM377.266 72.912H374.386V70.842H379.48V84H377.266V72.912ZM392.7 83.982L383.574 84V82.272L387.876 78.636C389.658 77.124 390.252 76.26 390.252 75C390.252 73.506 389.442 72.66 388.056 72.66C386.616 72.66 385.716 73.668 385.698 75.36H383.412C383.43 72.48 385.266 70.608 388.056 70.608C390.864 70.608 392.61 72.21 392.61 74.874C392.61 76.71 391.602 78.096 389.604 79.806L387.228 81.84H392.7V83.982ZM399.931 77.484H398.329V75.99L401.713 72.876H396.241V70.842H404.593V72.678L401.389 75.63C403.405 76.026 404.971 77.502 404.971 79.824C404.971 82.524 402.865 84.234 400.201 84.234C397.627 84.234 395.629 82.65 395.629 79.806H397.897C397.897 81.318 398.833 82.182 400.237 82.182C401.677 82.182 402.631 81.246 402.631 79.788C402.631 78.456 401.767 77.484 399.931 77.484ZM409.495 84H407.317L412.447 70.86H414.643L409.495 84ZM416.699 75.108H417.977V74.028C417.977 71.616 419.255 70.608 421.181 70.608C421.523 70.608 421.937 70.626 422.315 70.698V72.57H421.541C420.425 72.57 420.155 73.146 420.155 74.028V75.108H422.279V76.944H420.155V84H417.977V76.944H416.699V75.108ZM424.695 79.536C424.695 76.764 426.693 74.856 429.447 74.856C432.201 74.856 434.199 76.764 434.199 79.536C434.199 82.308 432.201 84.216 429.447 84.216C426.693 84.216 424.695 82.308 424.695 79.536ZM426.891 79.536C426.891 81.156 427.935 82.254 429.447 82.254C430.959 82.254 432.003 81.156 432.003 79.536C432.003 77.916 430.959 76.818 429.447 76.818C427.935 76.818 426.891 77.916 426.891 79.536ZM443.319 75.072V77.106H442.509C440.925 77.106 439.935 77.952 439.935 79.68V84H437.739V75.126H439.809L439.935 76.422C440.313 75.54 441.159 74.946 442.347 74.946C442.653 74.946 442.959 74.982 443.319 75.072ZM452.636 75.108H454.832V84H452.798L452.636 82.812C452.096 83.658 450.944 84.234 449.756 84.234C447.704 84.234 446.498 82.848 446.498 80.67V75.108H448.694V79.896C448.694 81.588 449.36 82.272 450.584 82.272C451.97 82.272 452.636 81.462 452.636 79.77V75.108ZM461.096 84H458.9V75.108H460.916L461.096 76.152C461.546 75.414 462.446 74.838 463.724 74.838C465.074 74.838 466.01 75.504 466.478 76.53C466.928 75.504 467.972 74.838 469.322 74.838C471.482 74.838 472.67 76.134 472.67 78.186V84H470.492V78.762C470.492 77.484 469.808 76.818 468.764 76.818C467.702 76.818 466.892 77.502 466.892 78.96V84H464.696V78.744C464.696 77.502 464.03 76.836 462.986 76.836C461.942 76.836 461.096 77.52 461.096 78.96V84ZM477.67 84H475.492L480.622 70.86H482.818L477.67 84ZM483.546 79.446C483.546 76.656 485.202 74.838 487.704 74.838C489.054 74.838 490.224 75.432 490.764 76.458L490.908 75.108H492.924V88.122H490.746V82.812C490.188 83.712 489.018 84.234 487.704 84.234C485.058 84.234 483.546 82.218 483.546 79.446ZM485.742 79.554C485.742 81.138 486.678 82.254 488.208 82.254C489.738 82.254 490.728 81.156 490.728 79.554C490.728 77.952 489.738 76.836 488.208 76.836C486.678 76.836 485.742 77.97 485.742 79.554ZM503.043 75.108H505.239V84H503.205L503.043 82.812C502.503 83.658 501.351 84.234 500.163 84.234C498.111 84.234 496.905 82.848 496.905 80.67V75.108H499.101V79.896C499.101 81.588 499.767 82.272 500.991 82.272C502.377 82.272 503.043 81.462 503.043 79.77V75.108ZM513.109 84.234C510.463 84.234 508.609 82.308 508.609 79.554C508.609 76.764 510.427 74.838 513.037 74.838C515.701 74.838 517.393 76.62 517.393 79.392V80.058L510.697 80.076C510.859 81.642 511.687 82.434 513.145 82.434C514.351 82.434 515.143 81.966 515.395 81.12H517.429C517.051 83.064 515.431 84.234 513.109 84.234ZM513.055 76.638C511.759 76.638 510.967 77.34 510.751 78.672H515.215C515.215 77.448 514.369 76.638 513.055 76.638ZM520.267 81.3H522.355C522.373 82.074 522.949 82.56 523.957 82.56C524.983 82.56 525.541 82.146 525.541 81.498C525.541 81.048 525.307 80.724 524.515 80.544L522.913 80.166C521.311 79.806 520.537 79.05 520.537 77.628C520.537 75.882 522.013 74.838 524.065 74.838C526.063 74.838 527.413 75.99 527.431 77.718H525.343C525.325 76.962 524.821 76.476 523.975 76.476C523.111 76.476 522.607 76.872 522.607 77.538C522.607 78.042 523.003 78.366 523.759 78.546L525.361 78.924C526.855 79.266 527.611 79.95 527.611 81.318C527.611 83.118 526.081 84.234 523.885 84.234C521.671 84.234 520.267 83.046 520.267 81.3ZM534.107 84H531.911V76.944H530.201V75.108H531.911V72.336H534.107V75.108H535.835V76.944H534.107V84ZM540.098 73.326C539.342 73.326 538.748 72.732 538.748 71.994C538.748 71.256 539.342 70.68 540.098 70.68C540.818 70.68 541.412 71.256 541.412 71.994C541.412 72.732 540.818 73.326 540.098 73.326ZM539 84V75.108H541.196V84H539ZM544.743 79.536C544.743 76.764 546.741 74.856 549.495 74.856C552.249 74.856 554.247 76.764 554.247 79.536C554.247 82.308 552.249 84.216 549.495 84.216C546.741 84.216 544.743 82.308 544.743 79.536ZM546.939 79.536C546.939 81.156 547.983 82.254 549.495 82.254C551.007 82.254 552.051 81.156 552.051 79.536C552.051 77.916 551.007 76.818 549.495 76.818C547.983 76.818 546.939 77.916 546.939 79.536ZM559.984 84H557.788V75.108H559.822L560.002 76.26C560.56 75.36 561.64 74.838 562.846 74.838C565.078 74.838 566.23 76.224 566.23 78.528V84H564.034V79.05C564.034 77.556 563.296 76.836 562.162 76.836C560.812 76.836 559.984 77.772 559.984 79.212V84ZM569.398 81.3H571.486C571.504 82.074 572.08 82.56 573.088 82.56C574.114 82.56 574.672 82.146 574.672 81.498C574.672 81.048 574.438 80.724 573.646 80.544L572.044 80.166C570.442 79.806 569.668 79.05 569.668 77.628C569.668 75.882 571.144 74.838 573.196 74.838C575.194 74.838 576.544 75.99 576.562 77.718H574.474C574.456 76.962 573.952 76.476 573.106 76.476C572.242 76.476 571.738 76.872 571.738 77.538C571.738 78.042 572.134 78.366 572.89 78.546L574.492 78.924C575.986 79.266 576.742 79.95 576.742 81.318C576.742 83.118 575.212 84.234 573.016 84.234C570.802 84.234 569.398 83.046 569.398 81.3ZM581.381 84H579.203L584.333 70.86H586.529L581.381 84ZM593.859 80.634H591.861V80.22C591.861 78.582 592.869 77.736 593.823 76.998C594.633 76.35 595.371 75.738 595.371 74.694C595.371 73.47 594.615 72.66 593.355 72.66C592.077 72.66 591.195 73.614 591.195 75H588.909C588.909 72.426 590.799 70.608 593.409 70.608C596.091 70.608 597.711 72.156 597.711 74.55C597.711 76.476 596.469 77.394 595.425 78.132C594.543 78.762 593.859 79.302 593.859 80.22V80.634ZM592.941 84.234C592.131 84.234 591.483 83.586 591.483 82.812C591.483 82.02 592.131 81.372 592.941 81.372C593.733 81.372 594.399 82.02 594.399 82.812C594.399 83.568 593.733 84.234 592.941 84.234ZM604.258 84H602.062V76.944H600.352V75.108H602.062V72.336H604.258V75.108H605.986V76.944H604.258V84ZM611.744 84.234C609.854 84.234 608.702 83.136 608.702 81.462C608.702 79.824 609.89 78.798 611.996 78.636L614.66 78.438V78.24C614.66 77.034 613.94 76.548 612.824 76.548C611.528 76.548 610.808 77.088 610.808 78.024H608.936C608.936 76.098 610.52 74.838 612.932 74.838C615.326 74.838 616.802 76.134 616.802 78.6V84H614.876L614.714 82.686C614.336 83.604 613.13 84.234 611.744 84.234ZM612.464 82.578C613.814 82.578 614.678 81.768 614.678 80.4V79.932L612.824 80.076C611.456 80.202 610.934 80.652 610.934 81.372C610.934 82.182 611.474 82.578 612.464 82.578ZM620.255 79.356C620.255 76.764 621.947 74.82 624.485 74.82C625.817 74.82 626.861 75.378 627.383 76.332L627.509 75.108H629.543V83.55C629.543 86.52 627.761 88.374 624.881 88.374C622.325 88.374 620.579 86.916 620.309 84.54H622.505C622.649 85.692 623.531 86.376 624.881 86.376C626.393 86.376 627.365 85.422 627.365 83.946V82.47C626.807 83.298 625.709 83.82 624.431 83.82C621.911 83.82 620.255 81.93 620.255 79.356ZM622.469 79.302C622.469 80.796 623.423 81.912 624.863 81.912C626.375 81.912 627.311 80.85 627.311 79.302C627.311 77.79 626.393 76.746 624.863 76.746C623.405 76.746 622.469 77.844 622.469 79.302ZM633.922 75.72H642.922V77.574H633.922V75.72ZM633.922 79.59H642.922V81.444H633.922V79.59ZM649.495 84H647.299V75.108H649.333L649.513 76.26C650.071 75.36 651.151 74.838 652.357 74.838C654.589 74.838 655.741 76.224 655.741 78.528V84H653.545V79.05C653.545 77.556 652.807 76.836 651.673 76.836C650.323 76.836 649.495 77.772 649.495 79.212V84ZM663.676 84.234C661.03 84.234 659.176 82.308 659.176 79.554C659.176 76.764 660.994 74.838 663.604 74.838C666.268 74.838 667.96 76.62 667.96 79.392V80.058L661.264 80.076C661.426 81.642 662.254 82.434 663.712 82.434C664.918 82.434 665.71 81.966 665.962 81.12H667.996C667.618 83.064 665.998 84.234 663.676 84.234ZM663.622 76.638C662.326 76.638 661.534 77.34 661.318 78.672H665.782C665.782 77.448 664.936 76.638 663.622 76.638ZM674.454 84H672.258V76.944H670.548V75.108H672.258V72.336H674.454V75.108H676.182V76.944H674.454V84ZM681.309 84L678.429 75.108H680.715L681.885 78.924C682.083 79.626 682.263 80.4 682.425 81.228C682.587 80.364 682.749 79.806 683.037 78.924L684.261 75.108H686.493L687.681 78.924C687.789 79.284 688.149 80.616 688.257 81.21C688.401 80.544 688.689 79.482 688.851 78.924L690.039 75.108H692.361L689.283 84H687.231L686.007 80.148C685.647 78.978 685.449 78.132 685.377 77.682C685.287 78.096 685.125 78.726 684.675 80.184L683.451 84H681.309ZM694.53 79.536C694.53 76.764 696.528 74.856 699.282 74.856C702.036 74.856 704.034 76.764 704.034 79.536C704.034 82.308 702.036 84.216 699.282 84.216C696.528 84.216 694.53 82.308 694.53 79.536ZM696.726 79.536C696.726 81.156 697.77 82.254 699.282 82.254C700.794 82.254 701.838 81.156 701.838 79.536C701.838 77.916 700.794 76.818 699.282 76.818C697.77 76.818 696.726 77.916 696.726 79.536ZM713.154 75.072V77.106H712.344C710.76 77.106 709.77 77.952 709.77 79.68V84H707.574V75.126H709.644L709.77 76.422C710.148 75.54 710.994 74.946 712.182 74.946C712.488 74.946 712.794 74.982 713.154 75.072ZM718.655 84H716.477V70.608H718.655V78.834L722.111 75.108H724.865L721.481 78.636L724.793 84H722.273L719.951 80.256L718.655 81.606V84ZM729.024 73.326C728.268 73.326 727.674 72.732 727.674 71.994C727.674 71.256 728.268 70.68 729.024 70.68C729.744 70.68 730.338 71.256 730.338 71.994C730.338 72.732 729.744 73.326 729.024 73.326ZM727.926 84V75.108H730.122V84H727.926ZM736.387 84H734.191V75.108H736.225L736.405 76.26C736.963 75.36 738.043 74.838 739.249 74.838C741.481 74.838 742.633 76.224 742.633 78.528V84H740.437V79.05C740.437 77.556 739.699 76.836 738.565 76.836C737.215 76.836 736.387 77.772 736.387 79.212V84ZM746.087 79.356C746.087 76.764 747.779 74.82 750.317 74.82C751.649 74.82 752.693 75.378 753.215 76.332L753.341 75.108H755.375V83.55C755.375 86.52 753.593 88.374 750.713 88.374C748.157 88.374 746.411 86.916 746.141 84.54H748.337C748.481 85.692 749.363 86.376 750.713 86.376C752.225 86.376 753.197 85.422 753.197 83.946V82.47C752.639 83.298 751.541 83.82 750.263 83.82C747.743 83.82 746.087 81.93 746.087 79.356ZM748.301 79.302C748.301 80.796 749.255 81.912 750.695 81.912C752.207 81.912 753.143 80.85 753.143 79.302C753.143 77.79 752.225 76.746 750.695 76.746C749.237 76.746 748.301 77.844 748.301 79.302ZM768.771 84L767.889 83.01C766.845 83.802 765.513 84.234 763.929 84.234C761.067 84.234 759.141 82.722 759.141 80.508C759.141 78.906 760.185 77.592 762.201 76.62C761.175 75.432 760.779 74.622 760.779 73.632C760.779 71.886 762.201 70.626 764.145 70.626C766.071 70.626 767.403 71.814 767.403 73.524C767.403 74.838 766.701 75.882 765.063 76.98L767.709 79.95C767.943 79.32 768.069 78.564 768.069 77.7H770.211C770.211 79.23 769.851 80.544 769.185 81.588L771.327 84H768.771ZM762.867 73.614C762.867 74.262 763.155 74.802 764.001 75.774C764.919 75.234 765.369 74.496 765.369 73.596C765.369 72.822 764.901 72.372 764.145 72.372C763.353 72.372 762.867 72.84 762.867 73.614ZM761.463 80.292C761.463 81.57 762.489 82.344 764.181 82.344C765.171 82.344 765.981 82.074 766.611 81.57L763.263 77.808C762.021 78.51 761.463 79.266 761.463 80.292ZM773.592 79.536C773.592 76.764 775.59 74.856 778.344 74.856C781.098 74.856 783.096 76.764 783.096 79.536C783.096 82.308 781.098 84.216 778.344 84.216C775.59 84.216 773.592 82.308 773.592 79.536ZM775.788 79.536C775.788 81.156 776.832 82.254 778.344 82.254C779.856 82.254 780.9 81.156 780.9 79.536C780.9 77.916 779.856 76.818 778.344 76.818C776.832 76.818 775.788 77.916 775.788 79.536ZM792.217 75.072V77.106H791.407C789.823 77.106 788.833 77.952 788.833 79.68V84H786.637V75.126H788.707L788.833 76.422C789.211 75.54 790.057 74.946 791.245 74.946C791.551 74.946 791.857 74.982 792.217 75.072ZM798.859 84.234C796.285 84.234 794.683 82.344 794.683 79.59C794.683 76.818 796.303 74.838 798.985 74.838C800.227 74.838 801.325 75.36 801.883 76.242V70.608H804.061V84H802.045L801.901 82.614C801.361 83.64 800.209 84.234 798.859 84.234ZM799.345 82.218C800.875 82.218 801.865 81.12 801.865 79.518C801.865 77.916 800.875 76.8 799.345 76.8C797.815 76.8 796.879 77.934 796.879 79.518C796.879 81.102 797.815 82.218 799.345 82.218ZM812.127 84.234C809.481 84.234 807.627 82.308 807.627 79.554C807.627 76.764 809.445 74.838 812.055 74.838C814.719 74.838 816.411 76.62 816.411 79.392V80.058L809.715 80.076C809.877 81.642 810.705 82.434 812.163 82.434C813.369 82.434 814.161 81.966 814.413 81.12H816.447C816.069 83.064 814.449 84.234 812.127 84.234ZM812.073 76.638C810.777 76.638 809.985 77.34 809.769 78.672H814.233C814.233 77.448 813.387 76.638 812.073 76.638ZM825.549 75.072V77.106H824.739C823.155 77.106 822.165 77.952 822.165 79.68V84H819.969V75.126H822.039L822.165 76.422C822.543 75.54 823.389 74.946 824.577 74.946C824.883 74.946 825.189 74.982 825.549 75.072ZM829.141 75.72H838.141V77.574H829.141V75.72ZM829.141 79.59H838.141V81.444H829.141V79.59ZM844.714 84H842.518V75.108H844.552L844.732 76.26C845.29 75.36 846.37 74.838 847.576 74.838C849.808 74.838 850.96 76.224 850.96 78.528V84H848.764V79.05C848.764 77.556 848.026 76.836 846.892 76.836C845.542 76.836 844.714 77.772 844.714 79.212V84ZM858.896 84.234C856.25 84.234 854.396 82.308 854.396 79.554C854.396 76.764 856.214 74.838 858.824 74.838C861.488 74.838 863.18 76.62 863.18 79.392V80.058L856.484 80.076C856.646 81.642 857.474 82.434 858.932 82.434C860.138 82.434 860.93 81.966 861.182 81.12H863.216C862.838 83.064 861.218 84.234 858.896 84.234ZM858.842 76.638C857.546 76.638 856.754 77.34 856.538 78.672H861.002C861.002 77.448 860.156 76.638 858.842 76.638ZM868.312 84L865.432 75.108H867.718L868.888 78.924C869.086 79.626 869.266 80.4 869.428 81.228C869.59 80.364 869.752 79.806 870.04 78.924L871.264 75.108H873.496L874.684 78.924C874.792 79.284 875.152 80.616 875.26 81.21C875.404 80.544 875.692 79.482 875.854 78.924L877.042 75.108H879.364L876.286 84H874.234L873.01 80.148C872.65 78.978 872.452 78.132 872.38 77.682C872.29 78.096 872.128 78.726 871.678 80.184L870.454 84H868.312ZM886.033 84.234C883.387 84.234 881.533 82.308 881.533 79.554C881.533 76.764 883.351 74.838 885.961 74.838C888.625 74.838 890.317 76.62 890.317 79.392V80.058L883.621 80.076C883.783 81.642 884.611 82.434 886.069 82.434C887.275 82.434 888.067 81.966 888.319 81.12H890.353C889.975 83.064 888.355 84.234 886.033 84.234ZM885.979 76.638C884.683 76.638 883.891 77.34 883.675 78.672H888.139C888.139 77.448 887.293 76.638 885.979 76.638ZM893.19 81.3H895.278C895.296 82.074 895.872 82.56 896.88 82.56C897.906 82.56 898.464 82.146 898.464 81.498C898.464 81.048 898.23 80.724 897.438 80.544L895.836 80.166C894.234 79.806 893.46 79.05 893.46 77.628C893.46 75.882 894.936 74.838 896.988 74.838C898.986 74.838 900.336 75.99 900.354 77.718H898.266C898.248 76.962 897.744 76.476 896.898 76.476C896.034 76.476 895.53 76.872 895.53 77.538C895.53 78.042 895.926 78.366 896.682 78.546L898.284 78.924C899.778 79.266 900.534 79.95 900.534 81.318C900.534 83.118 899.004 84.234 896.808 84.234C894.594 84.234 893.19 83.046 893.19 81.3ZM907.03 84H904.834V76.944H903.124V75.108H904.834V72.336H907.03V75.108H908.758V76.944H907.03V84ZM911.941 78.546H913.651L914.101 76.314H912.121L912.535 74.262H914.497L915.163 70.842H917.341L916.675 74.262H918.961L919.627 70.842H921.805L921.139 74.262H922.993L922.579 76.314H920.743L920.311 78.546H922.363L921.949 80.598H919.915L919.249 84H917.071L917.737 80.598H915.433L914.767 84H912.589L913.255 80.598H911.527L911.941 78.546ZM915.829 78.546H918.133L918.565 76.314H916.279L915.829 78.546ZM929.685 84H927.489V76.944H925.779V75.108H927.489V72.336H929.685V75.108H931.413V76.944H929.685V84ZM933.968 79.536C933.968 76.764 935.966 74.856 938.72 74.856C941.474 74.856 943.472 76.764 943.472 79.536C943.472 82.308 941.474 84.216 938.72 84.216C935.966 84.216 933.968 82.308 933.968 79.536ZM936.164 79.536C936.164 81.156 937.208 82.254 938.72 82.254C940.232 82.254 941.276 81.156 941.276 79.536C941.276 77.916 940.232 76.818 938.72 76.818C937.208 76.818 936.164 77.916 936.164 79.536ZM947.013 88.122V75.108H949.047L949.191 76.458C949.731 75.432 950.901 74.838 952.251 74.838C954.753 74.838 956.409 76.656 956.409 79.446C956.409 82.218 954.897 84.234 952.251 84.234C950.919 84.234 949.767 83.712 949.209 82.812V88.122H947.013ZM949.227 79.554C949.227 81.156 950.217 82.254 951.729 82.254C953.277 82.254 954.195 81.138 954.195 79.554C954.195 77.97 953.277 76.836 951.729 76.836C950.217 76.836 949.227 77.952 949.227 79.554Z" fill="black"/>
<path d="M114 96V104H154V96" stroke="#6F41FF"/>
<path d="M134 104V112" stroke="#6F41FF"/>
<path d="M106.691 126.824H107.747C107.747 127.72 108.419 128.28 109.507 128.28C110.707 128.28 111.411 127.768 111.411 126.936C111.411 126.296 111.091 125.928 110.179 125.704L108.851 125.368C107.507 125.032 106.851 124.328 106.851 123.272C106.851 121.912 107.987 121.048 109.651 121.048C111.283 121.048 112.339 121.944 112.387 123.384H111.315C111.283 122.488 110.659 121.96 109.619 121.96C108.531 121.96 107.923 122.424 107.923 123.256C107.923 123.848 108.339 124.264 109.187 124.472L110.515 124.808C111.859 125.144 112.467 125.768 112.467 126.888C112.467 128.28 111.283 129.192 109.523 129.192C107.779 129.192 106.691 128.264 106.691 126.824ZM113.741 125.144C113.741 122.712 115.229 121.048 117.485 121.048C119.277 121.048 120.589 122.088 120.893 123.688H119.789C119.501 122.616 118.573 122.024 117.501 122.024C115.933 122.024 114.829 123.224 114.829 125.128C114.829 126.968 115.853 128.2 117.421 128.2C118.573 128.2 119.501 127.56 119.805 126.568H120.925C120.557 128.152 119.181 129.192 117.421 129.192C115.229 129.192 113.741 127.576 113.741 125.144ZM123.701 128.984H122.597V117.336H123.701V122.6C124.197 121.672 125.141 121.048 126.437 121.048C128.469 121.048 129.381 122.312 129.381 124.264V129H128.277V124.504C128.277 122.696 127.429 122.056 126.229 122.056C124.565 122.056 123.701 123.288 123.701 124.776V128.984ZM134.83 129.192C132.558 129.192 131.038 127.56 131.038 125.128C131.038 122.712 132.542 121.048 134.75 121.048C136.846 121.048 138.27 122.536 138.27 124.728V125.272H132.11C132.19 127.16 133.182 128.248 134.846 128.248C136.11 128.248 136.926 127.704 137.214 126.68H138.27C137.854 128.312 136.654 129.192 134.83 129.192ZM134.75 121.992C133.294 121.992 132.334 122.952 132.142 124.472H137.166C137.166 122.984 136.206 121.992 134.75 121.992ZM141.139 129H140.035V121.256H140.995L141.123 122.36C141.507 121.544 142.371 121.048 143.459 121.048C144.675 121.048 145.587 121.688 145.955 122.696C146.307 121.688 147.251 121.048 148.499 121.048C150.179 121.048 151.283 122.136 151.283 123.928V129H150.211V124.152C150.211 122.824 149.475 122.04 148.291 122.04C146.995 122.04 146.227 123.016 146.227 124.216V129H145.139V124.136C145.139 122.824 144.387 122.056 143.219 122.056C141.923 122.056 141.139 123.016 141.139 124.2V129ZM156.752 129.192C154.48 129.192 152.96 127.56 152.96 125.128C152.96 122.712 154.464 121.048 156.672 121.048C158.768 121.048 160.192 122.536 160.192 124.728V125.272H154.032C154.112 127.16 155.104 128.248 156.768 128.248C158.032 128.248 158.848 127.704 159.136 126.68H160.192C159.776 128.312 158.576 129.192 156.752 129.192ZM156.672 121.992C155.216 121.992 154.256 122.952 154.064 124.472H159.088C159.088 122.984 158.128 121.992 156.672 121.992Z" fill="#6F41FF"/>
<path d="M363 63V55H183V63" stroke="#FF8972"/>
<path d="M273 55V47" stroke="#FF8972"/>
<path d="M259.865 40.984H258.761V29.336H259.865V34.6C260.361 33.672 261.305 33.048 262.601 33.048C264.633 33.048 265.545 34.312 265.545 36.264V41H264.441V36.504C264.441 34.696 263.593 34.056 262.393 34.056C260.729 34.056 259.865 35.288 259.865 36.776V40.984ZM267.202 37.128C267.202 34.76 268.866 33.048 271.138 33.048C273.41 33.048 275.074 34.76 275.074 37.128C275.074 39.48 273.41 41.192 271.138 41.192C268.866 41.192 267.202 39.48 267.202 37.128ZM268.322 37.112C268.322 38.936 269.474 40.2 271.138 40.2C272.786 40.2 273.954 38.936 273.954 37.112C273.954 35.32 272.786 34.04 271.138 34.04C269.474 34.04 268.322 35.32 268.322 37.112ZM276.184 38.824H277.24C277.24 39.72 277.912 40.28 279 40.28C280.2 40.28 280.904 39.768 280.904 38.936C280.904 38.296 280.584 37.928 279.672 37.704L278.344 37.368C277 37.032 276.344 36.328 276.344 35.272C276.344 33.912 277.48 33.048 279.144 33.048C280.776 33.048 281.832 33.944 281.88 35.384H280.808C280.776 34.488 280.152 33.96 279.112 33.96C278.024 33.96 277.416 34.424 277.416 35.256C277.416 35.848 277.832 36.264 278.68 36.472L280.008 36.808C281.352 37.144 281.96 37.768 281.96 38.888C281.96 40.28 280.776 41.192 279.016 41.192C277.272 41.192 276.184 40.264 276.184 38.824ZM285.553 41H284.465V34.184H282.913V33.256H284.465V30.808H285.553V33.256H287.105V34.184H285.553V41Z" fill="#FF8972"/>
<path d="M404 63V54.5H376V63" stroke="#6F41FF"/>
<path d="M390 54.5V46" stroke="#6F41FF"/>
<path d="M376.136 44.376V33.256H377.096L377.208 34.824C377.752 33.624 378.84 33.048 380.136 33.048C382.376 33.048 383.72 34.76 383.72 37.096C383.72 39.432 382.424 41.192 380.136 41.192C378.824 41.192 377.784 40.632 377.24 39.512V44.376H376.136ZM377.256 37.128C377.256 38.904 378.248 40.2 379.944 40.2C381.624 40.2 382.6 38.904 382.6 37.128C382.6 35.336 381.624 34.056 379.944 34.056C378.248 34.056 377.256 35.336 377.256 37.128ZM384.936 37.128C384.936 34.76 386.6 33.048 388.872 33.048C391.144 33.048 392.808 34.76 392.808 37.128C392.808 39.48 391.144 41.192 388.872 41.192C386.6 41.192 384.936 39.48 384.936 37.128ZM386.056 37.112C386.056 38.936 387.208 40.2 388.872 40.2C390.52 40.2 391.688 38.936 391.688 37.112C391.688 35.32 390.52 34.04 388.872 34.04C387.208 34.04 386.056 35.32 386.056 37.112ZM398.622 33.16V34.152H398.014C396.59 34.152 395.678 35.112 395.678 36.584V41H394.574V33.256H395.614L395.694 34.456C395.998 33.624 396.814 33.08 397.902 33.08C398.142 33.08 398.35 33.096 398.622 33.16ZM402.178 41H401.09V34.184H399.538V33.256H401.09V30.808H402.178V33.256H403.73V34.184H402.178V41Z" fill="#6F41FF"/>
<path d="M183 96V104H404V96" stroke="#FF8972"/>
<path d="M293.872 104V112" stroke="#FF8972"/>
<path d="M266.743 129.192C265.095 129.192 264.119 128.264 264.119 126.904C264.119 125.48 265.207 124.584 267.015 124.44L269.575 124.232V123.976C269.575 122.456 268.663 121.976 267.527 121.976C266.183 121.976 265.383 122.584 265.383 123.624H264.375C264.375 122.056 265.655 121.048 267.559 121.048C269.351 121.048 270.663 121.944 270.663 123.992V129H269.735L269.591 127.64C269.111 128.616 268.055 129.192 266.743 129.192ZM266.999 128.296C268.631 128.296 269.575 127.16 269.575 125.48V125.064L267.287 125.24C265.831 125.368 265.239 126.008 265.239 126.872C265.239 127.816 265.943 128.296 266.999 128.296ZM278.319 121.256H279.423V129H278.463L278.319 127.688C277.887 128.584 276.815 129.192 275.599 129.192C273.775 129.192 272.783 127.944 272.783 126.056V121.24H273.903V125.704C273.903 127.544 274.719 128.2 275.951 128.2C277.439 128.2 278.319 127.208 278.319 125.368V121.256ZM283.498 129H282.41V122.184H280.858V121.256H282.41V118.808H283.498V121.256H285.05V122.184H283.498V129ZM287.592 128.984H286.488V117.336H287.592V122.6C288.088 121.672 289.032 121.048 290.328 121.048C292.36 121.048 293.272 122.312 293.272 124.264V129H292.168V124.504C292.168 122.696 291.32 122.056 290.12 122.056C288.456 122.056 287.592 123.288 287.592 124.776V128.984ZM294.928 125.128C294.928 122.76 296.592 121.048 298.864 121.048C301.136 121.048 302.8 122.76 302.8 125.128C302.8 127.48 301.136 129.192 298.864 129.192C296.592 129.192 294.928 127.48 294.928 125.128ZM296.048 125.112C296.048 126.936 297.2 128.2 298.864 128.2C300.512 128.2 301.68 126.936 301.68 125.112C301.68 123.32 300.512 122.04 298.864 122.04C297.2 122.04 296.048 123.32 296.048 125.112ZM308.614 121.16V122.152H308.006C306.582 122.152 305.67 123.112 305.67 124.584V129H304.566V121.256H305.606L305.686 122.456C305.99 121.624 306.806 121.08 307.894 121.08C308.134 121.08 308.342 121.096 308.614 121.16ZM310.626 119.128C310.178 119.128 309.81 118.76 309.81 118.312C309.81 117.864 310.178 117.48 310.626 117.48C311.074 117.48 311.458 117.864 311.458 118.312C311.458 118.76 311.074 119.128 310.626 119.128ZM310.082 129V121.256H311.186V129H310.082ZM315.264 129H314.176V122.184H312.624V121.256H314.176V118.808H315.264V121.256H316.816V122.184H315.264V129ZM317.47 132.376V131.464H318.318C318.99 131.464 319.662 131.416 320.046 130.376L320.382 129.464L317.246 121.256H318.414L320.91 128.008L323.358 121.256H324.494L320.942 130.776C320.494 131.992 319.742 132.488 318.638 132.488C318.174 132.488 317.822 132.456 317.47 132.376Z" fill="#FF8972"/>
<path d="M416 96V104H584V96" stroke="#6F41FF"/>
<path d="M500 104V112" stroke="#6F41FF"/>
<path d="M485.496 132.376V121.256H486.456L486.568 122.824C487.112 121.624 488.2 121.048 489.496 121.048C491.736 121.048 493.08 122.76 493.08 125.096C493.08 127.432 491.784 129.192 489.496 129.192C488.184 129.192 487.144 128.632 486.6 127.512V132.376H485.496ZM486.616 125.128C486.616 126.904 487.608 128.2 489.304 128.2C490.984 128.2 491.96 126.904 491.96 125.128C491.96 123.336 490.984 122.056 489.304 122.056C487.608 122.056 486.616 123.336 486.616 125.128ZM497.064 129.192C495.416 129.192 494.44 128.264 494.44 126.904C494.44 125.48 495.528 124.584 497.336 124.44L499.896 124.232V123.976C499.896 122.456 498.984 121.976 497.848 121.976C496.504 121.976 495.704 122.584 495.704 123.624H494.696C494.696 122.056 495.976 121.048 497.88 121.048C499.672 121.048 500.984 121.944 500.984 123.992V129H500.056L499.912 127.64C499.432 128.616 498.376 129.192 497.064 129.192ZM497.32 128.296C498.952 128.296 499.896 127.16 499.896 125.48V125.064L497.608 125.24C496.152 125.368 495.56 126.008 495.56 126.872C495.56 127.816 496.264 128.296 497.32 128.296ZM504.834 129H503.746V122.184H502.194V121.256H503.746V118.808H504.834V121.256H506.386V122.184H504.834V129ZM508.928 128.984H507.824V117.336H508.928V122.6C509.424 121.672 510.368 121.048 511.664 121.048C513.696 121.048 514.608 122.312 514.608 124.264V129H513.504V124.504C513.504 122.696 512.656 122.056 511.456 122.056C509.792 122.056 508.928 123.288 508.928 124.776V128.984Z" fill="#6F41FF"/>
<path d="M600 96V104H908V96" stroke="#FF8972"/>
<path d="M754 104V112" stroke="#FF8972"/>
<path d="M734.725 125.096C734.725 122.76 736.069 121.048 738.309 121.048C739.605 121.048 740.677 121.624 741.237 122.824L741.349 121.256H742.309V132.376H741.205V127.512C740.661 128.632 739.621 129.192 738.309 129.192C736.021 129.192 734.725 127.432 734.725 125.096ZM735.845 125.128C735.845 126.904 736.821 128.2 738.501 128.2C740.197 128.2 741.189 126.904 741.189 125.128C741.189 123.336 740.197 122.056 738.501 122.056C736.821 122.056 735.845 123.336 735.845 125.128ZM750.053 121.256H751.157V129H750.197L750.053 127.688C749.621 128.584 748.549 129.192 747.333 129.192C745.509 129.192 744.517 127.944 744.517 126.056V121.24H745.637V125.704C745.637 127.544 746.453 128.2 747.685 128.2C749.173 128.2 750.053 127.208 750.053 125.368V121.256ZM756.548 129.192C754.276 129.192 752.756 127.56 752.756 125.128C752.756 122.712 754.26 121.048 756.468 121.048C758.564 121.048 759.988 122.536 759.988 124.728V125.272H753.828C753.908 127.16 754.9 128.248 756.564 128.248C757.828 128.248 758.644 127.704 758.932 126.68H759.988C759.572 128.312 758.372 129.192 756.548 129.192ZM756.468 121.992C755.012 121.992 754.052 122.952 753.86 124.472H758.884C758.884 122.984 757.924 121.992 756.468 121.992ZM765.802 121.16V122.152H765.194C763.77 122.152 762.858 123.112 762.858 124.584V129H761.754V121.256H762.794L762.874 122.456C763.178 121.624 763.994 121.08 765.082 121.08C765.322 121.08 765.53 121.096 765.802 121.16ZM766.72 132.376V131.464H767.568C768.24 131.464 768.912 131.416 769.296 130.376L769.632 129.464L766.496 121.256H767.664L770.16 128.008L772.608 121.256H773.744L770.192 130.776C769.744 131.992 768.992 132.488 767.888 132.488C767.424 132.488 767.072 132.456 766.72 132.376Z" fill="#FF8972"/>
<path d="M926 96V104H955V96" stroke="#6F41FF"/>
<path d="M940.5 104V112" stroke="#6F41FF"/>
<path d="M908.624 121.256H909.808V119.752C909.808 118.008 910.768 117.336 911.952 117.336C912.224 117.336 912.544 117.352 912.8 117.4V118.344H912.144C911.168 118.344 910.912 118.84 910.912 119.752V121.256H912.736V122.184H910.912V129H909.808V122.184H908.624V121.256ZM918.286 121.16V122.152H917.678C916.254 122.152 915.342 123.112 915.342 124.584V129H914.238V121.256H915.278L915.358 122.456C915.662 121.624 916.478 121.08 917.566 121.08C917.806 121.08 918.014 121.096 918.286 121.16ZM921.665 129.192C920.017 129.192 919.041 128.264 919.041 126.904C919.041 125.48 920.129 124.584 921.937 124.44L924.497 124.232V123.976C924.497 122.456 923.585 121.976 922.449 121.976C921.105 121.976 920.305 122.584 920.305 123.624H919.297C919.297 122.056 920.577 121.048 922.481 121.048C924.273 121.048 925.585 121.944 925.585 123.992V129H924.657L924.513 127.64C924.033 128.616 922.977 129.192 921.665 129.192ZM921.921 128.296C923.553 128.296 924.497 127.16 924.497 125.48V125.064L922.209 125.24C920.753 125.368 920.161 126.008 920.161 126.872C920.161 127.816 920.865 128.296 921.921 128.296ZM927.272 124.904C927.272 122.792 928.632 121.048 930.904 121.048C932.248 121.048 933.272 121.672 933.768 122.808L933.88 121.256H934.84V128.76C934.84 131.064 933.368 132.568 931.096 132.568C929.112 132.568 927.72 131.448 927.416 129.576H928.52C928.76 130.824 929.72 131.56 931.112 131.56C932.696 131.56 933.752 130.488 933.752 128.872V127.032C933.224 128.12 932.152 128.76 930.824 128.76C928.616 128.76 927.272 127.016 927.272 124.904ZM928.376 124.888C928.376 126.472 929.352 127.768 930.984 127.768C932.664 127.768 933.656 126.552 933.656 124.888C933.656 123.24 932.696 122.024 931 122.024C929.336 122.024 928.376 123.32 928.376 124.888ZM938.248 129H937.144V121.256H938.104L938.232 122.36C938.616 121.544 939.48 121.048 940.568 121.048C941.784 121.048 942.696 121.688 943.064 122.696C943.416 121.688 944.36 121.048 945.608 121.048C947.288 121.048 948.392 122.136 948.392 123.928V129H947.32V124.152C947.32 122.824 946.584 122.04 945.4 122.04C944.104 122.04 943.336 123.016 943.336 124.216V129H942.248V124.136C942.248 122.824 941.496 122.056 940.328 122.056C939.032 122.056 938.248 123.016 938.248 124.2V129ZM953.861 129.192C951.589 129.192 950.069 127.56 950.069 125.128C950.069 122.712 951.573 121.048 953.781 121.048C955.877 121.048 957.301 122.536 957.301 124.728V125.272H951.141C951.221 127.16 952.213 128.248 953.877 128.248C955.141 128.248 955.957 127.704 956.245 126.68H957.301C956.885 128.312 955.685 129.192 953.861 129.192ZM953.781 121.992C952.325 121.992 951.365 122.952 951.173 124.472H956.197C956.197 122.984 955.237 121.992 953.781 121.992ZM960.17 129H959.066V121.256H960.026L960.186 122.6C960.698 121.608 961.722 121.048 962.842 121.048C964.97 121.048 965.85 122.312 965.85 124.264V129H964.746V124.504C964.746 122.696 963.93 122.056 962.65 122.056C961.066 122.056 960.17 123.208 960.17 124.952V129ZM969.826 129H968.738V122.184H967.186V121.256H968.738V118.808H969.826V121.256H971.378V122.184H969.826V129Z" fill="#6F41FF"/>
</g>
<defs>
<clipPath id="clip0_1261_786">
<rect width="1073" height="161" fill="white"/>
</clipPath>
</defs>
</svg>
