<svg width="137" height="39" viewBox="0 0 137 39" fill="none" xmlns="http://www.w3.org/2000/svg">
    <g clip-path="url(#clip0_120_1267)">
        <path d="M6.81995 21.5903C6.81995 21.8901 6.59793 22.2328 6.32405 22.3556L5.00986 22.9452C4.64467 23.1091 4.34863 22.9178 4.34863 22.518V6.5415L6.81995 7.68738V21.5903Z" fill="black"/>
        <path d="M13.5357 18.4596C13.5357 18.7595 13.3137 19.1021 13.0398 19.225L11.7257 19.8146C11.3605 19.9784 11.0645 19.7871 11.0645 19.3874V3.57056L13.5357 4.7165V18.4596Z" fill="black"/>
        <path d="M17.747 22.9725C17.747 22.9695 17.747 22.9665 17.747 22.9635V17.3031C17.747 17.04 18.0193 16.8648 18.2593 16.9736L30.7814 22.6506C30.9652 22.734 31.1147 22.6394 31.1147 22.4397V20.3871C31.1147 20.1889 30.9674 19.9617 30.7849 19.8786L17.959 14.0371C17.8298 13.9782 17.747 13.8495 17.747 13.7078V9.29491C17.747 9.03175 18.0193 8.85661 18.2593 8.96539L30.7814 14.6424C30.9652 14.7258 31.1147 14.6312 31.1147 14.4315V12.3789C31.1147 12.1806 30.9674 11.9535 30.7849 11.8704L17.959 6.02881C17.8298 5.97001 17.747 5.84131 17.747 5.69955V0.952393H18.8817L32.7719 7.23895C33.3197 7.48471 34.8931 8.95771 35.386 10.8289L35.3864 27.1019C35.3865 29.382 34.0467 31.4498 31.9638 32.3842L20.5926 37.4856C18.9493 38.2229 16.2849 38.2229 14.6415 37.4856L2.9523 32.2415L2.61831 30.4668C2.60783 30.4111 2.62222 30.3551 2.66065 30.302L3.35058 29.3481L17.2865 23.0268C17.4107 22.9704 17.5884 22.9523 17.747 22.9725Z" fill="black"/>
        <path d="M0.417725 27.5512V10.1471C0.417725 9.00798 1.08659 7.97472 2.12674 7.50702L3.97741 6.67482C4.26454 6.54576 4.59362 6.54726 4.87954 6.67902L6.66762 7.50306" stroke="black" stroke-width="0.603202"/>
        <path d="M6.52057 7.75186L6.52051 6.1873C6.52051 5.7598 6.77167 5.37208 7.16224 5.19688L10.694 3.66398C10.978 3.53655 11.3031 3.53682 11.5869 3.66471L13.338 4.4538" stroke="black" stroke-width="0.603202"/>
        <path d="M13.2366 5.19463V3.16947C13.2366 2.74191 13.4879 2.35416 13.8784 2.179L16.0369 1.26448C17.1714 0.75576 18.4696 0.756264 19.6037 1.26586L32.8377 7.21281C34.2684 7.85571 35.1885 9.27669 35.1885 10.8432V14.242V27.4254C35.1885 29.3988 34.0411 31.1927 32.2481 32.0225L20.4987 37.4604C18.7964 38.2482 16.8367 38.2661 15.1203 37.5095L3.23243 32.2688C1.52511 31.5162 0.423584 29.8282 0.423584 27.9647V27.5471" stroke="black" stroke-width="0.603202" stroke-linecap="round"/>
        <path d="M11.6241 33.7664C10.0585 33.8589 5.47224 33.4318 3.01492 32.2503C0.936514 31.251 0.24707 28.7955 0.24707 27.4324C0.247045 27.3017 0.34814 27.2753 0.440216 27.2502L0.586786 27.1121C0.588214 27.1242 0.588218 27.1351 0.586967 27.1449C0.606915 28.9502 2.26913 29.9849 4.33747 28.9035L11.6241 33.7664Z" fill="black"/>
        <path d="M14.4941 24.2983C17.4575 22.9619 17.7532 21.359 17.7532 19.7124L20.715 24.2984L17.8491 22.9245L14.4941 24.2983Z" fill="black"/>
        <path d="M129.316 29.5214L134.944 9.47876H136.959L131.346 29.5214H129.316Z" fill="black"/>
        <path d="M121.254 29.5214L126.881 9.47876H128.896L123.284 29.5214H121.254Z" fill="black"/>
        <path d="M117.657 16.2156C118.245 16.2156 118.749 16.4205 119.168 16.8305C119.598 17.2405 119.812 17.7623 119.812 18.3959C119.812 18.983 119.593 19.4814 119.154 19.8914C118.725 20.3014 118.226 20.5064 117.657 20.5064C117.069 20.5064 116.56 20.2968 116.131 19.8774C115.711 19.4489 115.501 18.9457 115.501 18.368C115.501 17.781 115.706 17.2778 116.117 16.8585C116.527 16.4298 117.041 16.2156 117.657 16.2156ZM117.657 25.2306C118.245 25.2306 118.749 25.4449 119.168 25.8735C119.598 26.3021 119.812 26.796 119.812 27.3551C119.812 27.9607 119.598 28.4732 119.168 28.8925C118.739 29.3118 118.235 29.5214 117.657 29.5214C117.069 29.5214 116.56 29.3118 116.131 28.8925C115.711 28.4639 115.501 27.9607 115.501 27.383C115.501 26.796 115.706 26.2928 116.117 25.8735C116.527 25.4449 117.041 25.2306 117.657 25.2306Z" fill="black"/>
        <path d="M105.353 9.49268C107.163 9.49268 108.624 9.9446 109.734 10.8484C110.845 11.7429 111.4 12.9309 111.4 14.4125C111.4 16.4158 110.49 17.9067 108.671 18.885C109.716 19.2577 110.504 19.8681 111.036 20.716C111.568 21.5546 111.834 22.5563 111.834 23.721C111.834 25.4541 111.227 26.8564 110.014 27.928C108.801 28.9902 107.205 29.5213 105.227 29.5213C103.669 29.5213 102.171 29.1533 100.734 28.4172V24.9789C101.528 25.51 102.255 25.8967 102.917 26.139C103.58 26.3719 104.257 26.4884 104.947 26.4884C105.862 26.4884 106.608 26.2321 107.187 25.7197C107.775 25.1979 108.069 24.5223 108.069 23.6931C108.069 22.7799 107.747 22.0531 107.103 21.5127C106.459 20.9629 105.577 20.688 104.457 20.688H104.233V17.6551H104.402C105.446 17.6551 106.263 17.4268 106.851 16.9702C107.439 16.5043 107.733 15.88 107.733 15.0973C107.733 14.3239 107.448 13.7043 106.879 13.2384C106.31 12.7632 105.582 12.5256 104.695 12.5256C103.594 12.5256 102.437 12.8191 101.224 13.4062V10.3452C102.446 9.77684 103.823 9.49268 105.353 9.49268Z" fill="black"/>
        <path d="M88.4167 9.74414V17.0539C89.4339 16.3272 90.5864 15.9638 91.8741 15.9638C93.0218 15.9638 94.0625 16.248 94.9957 16.8163C95.9378 17.3754 96.6661 18.1674 97.1793 19.1924C97.702 20.208 97.9628 21.3448 97.9628 22.6027C97.9628 24.7458 97.3241 26.437 96.0454 27.6763C94.7667 28.9063 93.0176 29.5212 90.7967 29.5212C88.7994 29.5212 86.8586 29.1532 84.9736 28.417V9.74414H88.4167ZM88.4167 26.5442C89.1539 26.7958 90.0126 26.9215 90.9926 26.9215C92.0472 26.9215 92.8818 26.5395 93.4977 25.7755C94.1232 25.0021 94.4356 23.9352 94.4356 22.5748C94.4356 21.3448 94.1232 20.3665 93.4977 19.6396C92.8728 18.9036 92.0472 18.5355 91.0203 18.5355C90.5444 18.5355 90.1057 18.624 89.7049 18.8011C89.3036 18.9781 88.8739 19.253 88.4167 19.6257V26.5442Z" fill="black"/>
        <path d="M76.0149 15.9641C77.9377 15.9641 79.4585 16.5791 80.5785 17.8091C81.698 19.039 82.258 20.7395 82.258 22.9106V23.4277H73.0057C73.1457 24.5924 73.5795 25.4916 74.3078 26.1252C75.0444 26.7495 76.0527 27.0617 77.3308 27.0617C78.1522 27.0617 78.9405 26.9219 79.6964 26.6424C80.4614 26.3535 81.2503 25.9202 82.0621 25.3425V27.9003C80.5317 28.9811 78.6743 29.5216 76.4914 29.5216C74.4285 29.5216 72.7443 28.9019 71.438 27.6627C70.1317 26.4234 69.4785 24.7742 69.4785 22.7149C69.4785 20.7302 70.0806 19.1089 71.2842 17.851C72.4973 16.593 74.074 15.9641 76.0149 15.9641ZM79.0247 21.3452C78.9315 20.3948 78.6419 19.654 78.157 19.1229C77.6715 18.5824 77.0045 18.3122 76.1549 18.3122C75.2872 18.3122 74.5872 18.5685 74.0554 19.0809C73.5332 19.5934 73.2016 20.3481 73.0615 21.3452H79.0247Z" fill="black"/>
        <path d="M50.387 16.2156L53.4244 23.749L56.5178 16.2156H58.7573L61.8229 23.749L64.8603 16.2156H68.4433L62.6208 29.5214H61.1649L57.6375 21.5407L54.1103 29.5214H52.6825L46.8037 16.2156H50.387Z" fill="black"/>
    </g>
    <defs>
        <clipPath id="clip0_120_1267">
            <rect width="137" height="39" fill="white"/>
        </clipPath>
    </defs>
</svg>
