<svg width="1074" height="161" viewBox="0 0 1074 161" fill="none" xmlns="http://www.w3.org/2000/svg">
<g clip-path="url(#clip0_1261_838)">
<path d="M1047.58 1.22144H26.5762C12.4929 1.22144 1.07617 12.6382 1.07617 26.7214V134.721C1.07617 148.805 12.4929 160.221 26.5762 160.221H1047.58C1061.66 160.221 1073.08 148.805 1073.08 134.721V26.7214C1073.08 12.6382 1061.66 1.22144 1047.58 1.22144Z" fill="white" stroke="black"/>
<path d="M317.096 82L314.216 73.108H316.502L317.672 76.924C317.87 77.626 318.05 78.4 318.212 79.228C318.374 78.364 318.536 77.806 318.824 76.924L320.048 73.108H322.28L323.468 76.924C323.576 77.284 323.936 78.616 324.044 79.21C324.188 78.544 324.476 77.482 324.638 76.924L325.826 73.108H328.148L325.07 82H323.018L321.794 78.148C321.434 76.978 321.236 76.132 321.164 75.682C321.074 76.096 320.912 76.726 320.462 78.184L319.238 82H317.096ZM334.996 82.234C332.35 82.234 330.496 80.308 330.496 77.554C330.496 74.764 332.314 72.838 334.924 72.838C337.588 72.838 339.28 74.62 339.28 77.392V78.058L332.584 78.076C332.746 79.642 333.574 80.434 335.032 80.434C336.238 80.434 337.03 79.966 337.282 79.12H339.316C338.938 81.064 337.318 82.234 334.996 82.234ZM334.942 74.638C333.646 74.638 332.854 75.34 332.638 76.672H337.102C337.102 75.448 336.256 74.638 334.942 74.638ZM345.052 82H343.018V68.608H345.214V74.404C345.79 73.414 346.978 72.82 348.328 72.82C350.866 72.82 352.414 74.8 352.414 77.608C352.414 80.344 350.74 82.234 348.184 82.234C346.852 82.234 345.718 81.64 345.196 80.614L345.052 82ZM345.232 77.518C345.232 79.12 346.222 80.218 347.734 80.218C349.282 80.218 350.2 79.102 350.2 77.518C350.2 75.934 349.282 74.8 347.734 74.8C346.222 74.8 345.232 75.916 345.232 77.518ZM359.67 75.484H358.068V73.99L361.452 70.876H355.98V68.842H364.332V70.678L361.128 73.63C363.144 74.026 364.71 75.502 364.71 77.824C364.71 80.524 362.604 82.234 359.94 82.234C357.366 82.234 355.368 80.65 355.368 77.806H357.636C357.636 79.318 358.572 80.182 359.976 80.182C361.416 80.182 362.37 79.246 362.37 77.788C362.37 76.456 361.506 75.484 359.67 75.484ZM370.026 75.664C369.234 75.664 368.568 75.016 368.568 74.242C368.568 73.45 369.234 72.802 370.026 72.802C370.818 72.802 371.484 73.45 371.484 74.242C371.484 75.016 370.818 75.664 370.026 75.664ZM370.026 82.216C369.234 82.216 368.568 81.568 368.568 80.794C368.568 80.002 369.234 79.354 370.026 79.354C370.818 79.354 371.484 80.002 371.484 80.794C371.484 81.568 370.818 82.216 370.026 82.216ZM376.984 82H374.806L379.936 68.86H382.132L376.984 82ZM383.869 82H381.691L386.821 68.86H389.017L383.869 82ZM394.425 82.234C391.779 82.234 389.925 80.308 389.925 77.554C389.925 74.764 391.743 72.838 394.353 72.838C397.017 72.838 398.709 74.62 398.709 77.392V78.058L392.013 78.076C392.175 79.642 393.003 80.434 394.461 80.434C395.667 80.434 396.459 79.966 396.711 79.12H398.745C398.367 81.064 396.747 82.234 394.425 82.234ZM394.371 74.638C393.075 74.638 392.283 75.34 392.067 76.672H396.531C396.531 75.448 395.685 74.638 394.371 74.638ZM403.59 82H401.088L404.148 77.644L401.088 73.108H403.644L405.606 76.132L407.496 73.108H409.962L406.938 77.608L409.872 82H407.352L405.462 79.066L403.59 82ZM415.897 82.234C414.007 82.234 412.855 81.136 412.855 79.462C412.855 77.824 414.043 76.798 416.149 76.636L418.813 76.438V76.24C418.813 75.034 418.093 74.548 416.977 74.548C415.681 74.548 414.961 75.088 414.961 76.024H413.089C413.089 74.098 414.673 72.838 417.085 72.838C419.479 72.838 420.955 74.134 420.955 76.6V82H419.029L418.867 80.686C418.489 81.604 417.283 82.234 415.897 82.234ZM416.617 80.578C417.967 80.578 418.831 79.768 418.831 78.4V77.932L416.977 78.076C415.609 78.202 415.087 78.652 415.087 79.372C415.087 80.182 415.627 80.578 416.617 80.578ZM427.288 82H425.092V73.108H427.108L427.288 74.152C427.738 73.414 428.638 72.838 429.916 72.838C431.266 72.838 432.202 73.504 432.67 74.53C433.12 73.504 434.164 72.838 435.514 72.838C437.674 72.838 438.862 74.134 438.862 76.186V82H436.684V76.762C436.684 75.484 436 74.818 434.956 74.818C433.894 74.818 433.084 75.502 433.084 76.96V82H430.888V76.744C430.888 75.502 430.222 74.836 429.178 74.836C428.134 74.836 427.288 75.52 427.288 76.96V82ZM442.998 86.122V73.108H445.032L445.176 74.458C445.716 73.432 446.886 72.838 448.236 72.838C450.738 72.838 452.394 74.656 452.394 77.446C452.394 80.218 450.882 82.234 448.236 82.234C446.904 82.234 445.752 81.712 445.194 80.812V86.122H442.998ZM445.212 77.554C445.212 79.156 446.202 80.254 447.714 80.254C449.262 80.254 450.18 79.138 450.18 77.554C450.18 75.97 449.262 74.836 447.714 74.836C446.202 74.836 445.212 75.952 445.212 77.554ZM458.337 82H456.159V68.608H458.337V82ZM466.598 82.234C463.952 82.234 462.098 80.308 462.098 77.554C462.098 74.764 463.916 72.838 466.526 72.838C469.19 72.838 470.882 74.62 470.882 77.392V78.058L464.186 78.076C464.348 79.642 465.176 80.434 466.634 80.434C467.84 80.434 468.632 79.966 468.884 79.12H470.918C470.54 81.064 468.92 82.234 466.598 82.234ZM466.544 74.638C465.248 74.638 464.456 75.34 464.24 76.672H468.704C468.704 75.448 467.858 74.638 466.544 74.638ZM475.551 82.216C474.759 82.216 474.093 81.568 474.093 80.794C474.093 80.002 474.759 79.354 475.551 79.354C476.343 79.354 477.009 80.002 477.009 80.794C477.009 81.568 476.343 82.216 475.551 82.216ZM484.726 82.234C482.08 82.234 480.226 80.308 480.226 77.554C480.226 74.764 482.044 72.838 484.654 72.838C487.318 72.838 489.01 74.62 489.01 77.392V78.058L482.314 78.076C482.476 79.642 483.304 80.434 484.762 80.434C485.968 80.434 486.76 79.966 487.012 79.12H489.046C488.668 81.064 487.048 82.234 484.726 82.234ZM484.672 74.638C483.376 74.638 482.584 75.34 482.368 76.672H486.832C486.832 75.448 485.986 74.638 484.672 74.638ZM495.684 82H493.488V74.944H491.778V73.108H493.488V70.336H495.684V73.108H497.412V74.944H495.684V82ZM502.953 82H500.757V68.608H502.971V74.26C503.529 73.396 504.573 72.838 505.851 72.838C508.047 72.838 509.199 74.224 509.199 76.528V82H507.003V77.05C507.003 75.556 506.265 74.836 505.149 74.836C503.763 74.836 502.953 75.808 502.953 77.14V82ZM514.992 75.664C514.2 75.664 513.534 75.016 513.534 74.242C513.534 73.45 514.2 72.802 514.992 72.802C515.784 72.802 516.45 73.45 516.45 74.242C516.45 75.016 515.784 75.664 514.992 75.664ZM514.992 82.216C514.2 82.216 513.534 81.568 513.534 80.794C513.534 80.002 514.2 79.354 514.992 79.354C515.784 79.354 516.45 80.002 516.45 80.794C516.45 81.568 515.784 82.216 514.992 82.216ZM524.434 75.484H522.832V73.99L526.216 70.876H520.744V68.842H529.096V70.678L525.892 73.63C527.908 74.026 529.474 75.502 529.474 77.824C529.474 80.524 527.368 82.234 524.704 82.234C522.13 82.234 520.132 80.65 520.132 77.806H522.4C522.4 79.318 523.336 80.182 524.74 80.182C526.18 80.182 527.134 79.246 527.134 77.788C527.134 76.456 526.27 75.484 524.434 75.484ZM537.049 75.484H535.447V73.99L538.831 70.876H533.359V68.842H541.711V70.678L538.507 73.63C540.523 74.026 542.089 75.502 542.089 77.824C542.089 80.524 539.983 82.234 537.319 82.234C534.745 82.234 532.747 80.65 532.747 77.806H535.015C535.015 79.318 535.951 80.182 537.355 80.182C538.795 80.182 539.749 79.246 539.749 77.788C539.749 76.456 538.885 75.484 537.049 75.484ZM549.664 75.484H548.062V73.99L551.446 70.876H545.974V68.842H554.326V70.678L551.122 73.63C553.138 74.026 554.704 75.502 554.704 77.824C554.704 80.524 552.598 82.234 549.934 82.234C547.36 82.234 545.362 80.65 545.362 77.806H547.63C547.63 79.318 548.566 80.182 549.97 80.182C551.41 80.182 552.364 79.246 552.364 77.788C552.364 76.456 551.5 75.484 549.664 75.484ZM559.408 82H557.23L562.36 68.86H564.556L559.408 82ZM565.729 77.356C565.729 74.764 567.421 72.82 569.959 72.82C571.291 72.82 572.335 73.378 572.857 74.332L572.983 73.108H575.017V81.55C575.017 84.52 573.235 86.374 570.355 86.374C567.799 86.374 566.053 84.916 565.783 82.54H567.979C568.123 83.692 569.005 84.376 570.355 84.376C571.867 84.376 572.839 83.422 572.839 81.946V80.47C572.281 81.298 571.183 81.82 569.905 81.82C567.385 81.82 565.729 79.93 565.729 77.356ZM567.943 77.302C567.943 78.796 568.897 79.912 570.337 79.912C571.849 79.912 572.785 78.85 572.785 77.302C572.785 75.79 571.867 74.746 570.337 74.746C568.879 74.746 567.943 75.844 567.943 77.302ZM583.247 82.234C580.601 82.234 578.747 80.308 578.747 77.554C578.747 74.764 580.565 72.838 583.175 72.838C585.839 72.838 587.531 74.62 587.531 77.392V78.058L580.835 78.076C580.997 79.642 581.825 80.434 583.283 80.434C584.489 80.434 585.281 79.966 585.533 79.12H587.567C587.189 81.064 585.569 82.234 583.247 82.234ZM583.193 74.638C581.897 74.638 581.105 75.34 580.889 76.672H585.353C585.353 75.448 584.507 74.638 583.193 74.638ZM593.465 82H591.269V73.108H593.303L593.483 74.26C594.041 73.36 595.121 72.838 596.327 72.838C598.559 72.838 599.711 74.224 599.711 76.528V82H597.515V77.05C597.515 75.556 596.777 74.836 595.643 74.836C594.293 74.836 593.465 75.772 593.465 77.212V82ZM607.826 82.234C605.18 82.234 603.326 80.308 603.326 77.554C603.326 74.764 605.144 72.838 607.754 72.838C610.418 72.838 612.11 74.62 612.11 77.392V78.058L605.414 78.076C605.576 79.642 606.404 80.434 607.862 80.434C609.068 80.434 609.86 79.966 610.112 79.12H612.146C611.768 81.064 610.148 82.234 607.826 82.234ZM607.772 74.638C606.476 74.638 605.684 75.34 605.468 76.672H609.932C609.932 75.448 609.086 74.638 607.772 74.638ZM621.428 73.072V75.106H620.618C619.034 75.106 618.044 75.952 618.044 77.68V82H615.848V73.126H617.918L618.044 74.422C618.422 73.54 619.268 72.946 620.456 72.946C620.762 72.946 621.068 72.982 621.428 73.072ZM627.189 82.234C625.299 82.234 624.147 81.136 624.147 79.462C624.147 77.824 625.335 76.798 627.441 76.636L630.105 76.438V76.24C630.105 75.034 629.385 74.548 628.269 74.548C626.973 74.548 626.253 75.088 626.253 76.024H624.381C624.381 74.098 625.965 72.838 628.377 72.838C630.771 72.838 632.247 74.134 632.247 76.6V82H630.321L630.159 80.686C629.781 81.604 628.575 82.234 627.189 82.234ZM627.909 80.578C629.259 80.578 630.123 79.768 630.123 78.4V77.932L628.269 78.076C626.901 78.202 626.379 78.652 626.379 79.372C626.379 80.182 626.919 80.578 627.909 80.578ZM638.598 82H636.42V68.608H638.598V82ZM643.926 82H641.748L646.878 68.86H649.074L643.926 82ZM660.748 81.982L651.622 82V80.272L655.924 76.636C657.706 75.124 658.3 74.26 658.3 73C658.3 71.506 657.49 70.66 656.104 70.66C654.664 70.66 653.764 71.668 653.746 73.36H651.46C651.478 70.48 653.314 68.608 656.104 68.608C658.912 68.608 660.658 70.21 660.658 72.874C660.658 74.71 659.65 76.096 657.652 77.806L655.276 79.84H660.748V81.982ZM664.148 75.448C664.148 71.362 666.344 68.59 669.71 68.59C673.076 68.59 675.29 71.362 675.29 75.448C675.29 79.516 673.202 82.234 669.71 82.234C666.218 82.234 664.148 79.516 664.148 75.448ZM666.416 75.448C666.416 78.49 667.64 80.2 669.71 80.2C671.798 80.2 673.022 78.49 673.022 75.448C673.022 72.334 671.798 70.624 669.71 70.624C667.64 70.624 666.416 72.334 666.416 75.448ZM687.999 81.982L678.873 82V80.272L683.175 76.636C684.957 75.124 685.551 74.26 685.551 73C685.551 71.506 684.741 70.66 683.355 70.66C681.915 70.66 681.015 71.668 680.997 73.36H678.711C678.729 70.48 680.565 68.608 683.355 68.608C686.163 68.608 687.909 70.21 687.909 72.874C687.909 74.71 686.901 76.096 684.903 77.806L682.527 79.84H687.999V81.982ZM695.41 75.484H693.808V73.99L697.192 70.876H691.72V68.842H700.072V70.678L696.868 73.63C698.884 74.026 700.45 75.502 700.45 77.824C700.45 80.524 698.344 82.234 695.68 82.234C693.106 82.234 691.108 80.65 691.108 77.806H693.376C693.376 79.318 694.312 80.182 695.716 80.182C697.156 80.182 698.11 79.246 698.11 77.788C698.11 76.456 697.246 75.484 695.41 75.484ZM705.154 82H702.976L708.106 68.86H710.302L705.154 82ZM712.796 75.448C712.796 71.362 714.992 68.59 718.358 68.59C721.724 68.59 723.938 71.362 723.938 75.448C723.938 79.516 721.85 82.234 718.358 82.234C714.866 82.234 712.796 79.516 712.796 75.448ZM715.064 75.448C715.064 78.49 716.288 80.2 718.358 80.2C720.446 80.2 721.67 78.49 721.67 75.448C721.67 72.334 720.446 70.624 718.358 70.624C716.288 70.624 715.064 72.334 715.064 75.448ZM730.186 70.912H727.306V68.842H732.4V82H730.186V70.912ZM738.375 82H736.197L741.327 68.86H743.523L738.375 82ZM755.197 81.982L746.071 82V80.272L750.373 76.636C752.155 75.124 752.749 74.26 752.749 73C752.749 71.506 751.939 70.66 750.553 70.66C749.113 70.66 748.213 71.668 748.195 73.36H745.909C745.927 70.48 747.763 68.608 750.553 68.608C753.361 68.608 755.107 70.21 755.107 72.874C755.107 74.71 754.099 76.096 752.101 77.806L749.725 79.84H755.197V81.982ZM758.597 75.448C758.597 71.362 760.793 68.59 764.159 68.59C767.525 68.59 769.739 71.362 769.739 75.448C769.739 79.516 767.651 82.234 764.159 82.234C760.667 82.234 758.597 79.516 758.597 75.448ZM760.865 75.448C760.865 78.49 762.089 80.2 764.159 80.2C766.247 80.2 767.471 78.49 767.471 75.448C767.471 72.334 766.247 70.624 764.159 70.624C762.089 70.624 760.865 72.334 760.865 75.448ZM774.409 82H772.231L777.361 68.86H779.557L774.409 82ZM783.773 71.326C783.017 71.326 782.423 70.732 782.423 69.994C782.423 69.256 783.017 68.68 783.773 68.68C784.493 68.68 785.087 69.256 785.087 69.994C785.087 70.732 784.493 71.326 783.773 71.326ZM782.675 82V73.108H784.871V82H782.675ZM791.316 82H789.12V73.108H791.154L791.334 74.26C791.892 73.36 792.972 72.838 794.178 72.838C796.41 72.838 797.562 74.224 797.562 76.528V82H795.366V77.05C795.366 75.556 794.628 74.836 793.494 74.836C792.144 74.836 791.316 75.772 791.316 77.212V82ZM805.353 82.234C802.779 82.234 801.177 80.344 801.177 77.59C801.177 74.818 802.797 72.838 805.479 72.838C806.721 72.838 807.819 73.36 808.377 74.242V68.608H810.555V82H808.539L808.395 80.614C807.855 81.64 806.703 82.234 805.353 82.234ZM805.839 80.218C807.369 80.218 808.359 79.12 808.359 77.518C808.359 75.916 807.369 74.8 805.839 74.8C804.309 74.8 803.373 75.934 803.373 77.518C803.373 79.102 804.309 80.218 805.839 80.218ZM818.802 82.234C816.156 82.234 814.302 80.308 814.302 77.554C814.302 74.764 816.12 72.838 818.73 72.838C821.394 72.838 823.086 74.62 823.086 77.392V78.058L816.39 78.076C816.552 79.642 817.38 80.434 818.838 80.434C820.044 80.434 820.836 79.966 821.088 79.12H823.122C822.744 81.064 821.124 82.234 818.802 82.234ZM818.748 74.638C817.452 74.638 816.66 75.34 816.444 76.672H820.908C820.908 75.448 820.062 74.638 818.748 74.638ZM827.967 82H825.465L828.525 77.644L825.465 73.108H828.021L829.983 76.132L831.873 73.108H834.339L831.315 77.608L834.249 82H831.729L829.839 79.066L827.967 82ZM838.981 82.216C838.189 82.216 837.523 81.568 837.523 80.794C837.523 80.002 838.189 79.354 838.981 79.354C839.773 79.354 840.439 80.002 840.439 80.794C840.439 81.568 839.773 82.216 838.981 82.216ZM846.919 82H844.723V68.608H846.937V74.26C847.495 73.396 848.539 72.838 849.817 72.838C852.013 72.838 853.165 74.224 853.165 76.528V82H850.969V77.05C850.969 75.556 850.231 74.836 849.115 74.836C847.729 74.836 846.919 75.808 846.919 77.14V82ZM860.326 82H858.13V74.944H856.42V73.108H858.13V70.336H860.326V73.108H862.054V74.944H860.326V82ZM867.596 82H865.4V73.108H867.416L867.596 74.152C868.046 73.414 868.946 72.838 870.224 72.838C871.574 72.838 872.51 73.504 872.978 74.53C873.428 73.504 874.472 72.838 875.822 72.838C877.982 72.838 879.17 74.134 879.17 76.186V82H876.992V76.762C876.992 75.484 876.308 74.818 875.264 74.818C874.202 74.818 873.392 75.502 873.392 76.96V82H871.196V76.744C871.196 75.502 870.53 74.836 869.486 74.836C868.442 74.836 867.596 75.52 867.596 76.96V82ZM885.519 82H883.341V68.608H885.519V82Z" fill="black"/>
<path d="M320 94V102H360V94" stroke="#6F41FF"/>
<path d="M340 102V110" stroke="#6F41FF"/>
<path d="M312.691 124.824H313.747C313.747 125.72 314.419 126.28 315.507 126.28C316.707 126.28 317.411 125.768 317.411 124.936C317.411 124.296 317.091 123.928 316.179 123.704L314.851 123.368C313.507 123.032 312.851 122.328 312.851 121.272C312.851 119.912 313.987 119.048 315.651 119.048C317.283 119.048 318.339 119.944 318.387 121.384H317.315C317.283 120.488 316.659 119.96 315.619 119.96C314.531 119.96 313.923 120.424 313.923 121.256C313.923 121.848 314.339 122.264 315.187 122.472L316.515 122.808C317.859 123.144 318.467 123.768 318.467 124.888C318.467 126.28 317.283 127.192 315.523 127.192C313.779 127.192 312.691 126.264 312.691 124.824ZM319.741 123.144C319.741 120.712 321.229 119.048 323.485 119.048C325.277 119.048 326.589 120.088 326.893 121.688H325.789C325.501 120.616 324.573 120.024 323.501 120.024C321.933 120.024 320.829 121.224 320.829 123.128C320.829 124.968 321.853 126.2 323.421 126.2C324.573 126.2 325.501 125.56 325.805 124.568H326.925C326.557 126.152 325.181 127.192 323.421 127.192C321.229 127.192 319.741 125.576 319.741 123.144ZM329.701 126.984H328.597V115.336H329.701V120.6C330.197 119.672 331.141 119.048 332.437 119.048C334.469 119.048 335.381 120.312 335.381 122.264V127H334.277V122.504C334.277 120.696 333.429 120.056 332.229 120.056C330.565 120.056 329.701 121.288 329.701 122.776V126.984ZM340.83 127.192C338.558 127.192 337.038 125.56 337.038 123.128C337.038 120.712 338.542 119.048 340.75 119.048C342.846 119.048 344.27 120.536 344.27 122.728V123.272H338.11C338.19 125.16 339.182 126.248 340.846 126.248C342.11 126.248 342.926 125.704 343.214 124.68H344.27C343.854 126.312 342.654 127.192 340.83 127.192ZM340.75 119.992C339.294 119.992 338.334 120.952 338.142 122.472H343.166C343.166 120.984 342.206 119.992 340.75 119.992ZM347.139 127H346.035V119.256H346.995L347.123 120.36C347.507 119.544 348.371 119.048 349.459 119.048C350.675 119.048 351.587 119.688 351.955 120.696C352.307 119.688 353.251 119.048 354.499 119.048C356.179 119.048 357.283 120.136 357.283 121.928V127H356.211V122.152C356.211 120.824 355.475 120.04 354.291 120.04C352.995 120.04 352.227 121.016 352.227 122.216V127H351.139V122.136C351.139 120.824 350.387 120.056 349.219 120.056C347.923 120.056 347.139 121.016 347.139 122.2V127ZM362.752 127.192C360.48 127.192 358.96 125.56 358.96 123.128C358.96 120.712 360.464 119.048 362.672 119.048C364.768 119.048 366.192 120.536 366.192 122.728V123.272H360.032C360.112 125.16 361.104 126.248 362.768 126.248C364.032 126.248 364.848 125.704 365.136 124.68H366.192C365.776 126.312 364.576 127.192 362.752 127.192ZM362.672 119.992C361.216 119.992 360.256 120.952 360.064 122.472H365.088C365.088 120.984 364.128 119.992 362.672 119.992Z" fill="#6F41FF"/>
<path d="M509 61V53H392V61" stroke="#FF8972"/>
<path d="M450.5 53V45" stroke="#FF8972"/>
<path d="M422.21 35.144C422.21 32.712 423.698 31.048 425.954 31.048C427.746 31.048 429.058 32.088 429.362 33.688H428.258C427.97 32.616 427.042 32.024 425.97 32.024C424.402 32.024 423.298 33.224 423.298 35.128C423.298 36.968 424.322 38.2 425.89 38.2C427.042 38.2 427.97 37.56 428.274 36.568H429.394C429.026 38.152 427.65 39.192 425.89 39.192C423.698 39.192 422.21 37.576 422.21 35.144ZM430.522 35.128C430.522 32.76 432.186 31.048 434.458 31.048C436.73 31.048 438.394 32.76 438.394 35.128C438.394 37.48 436.73 39.192 434.458 39.192C432.186 39.192 430.522 37.48 430.522 35.128ZM431.642 35.112C431.642 36.936 432.794 38.2 434.458 38.2C436.106 38.2 437.274 36.936 437.274 35.112C437.274 33.32 436.106 32.04 434.458 32.04C432.794 32.04 431.642 33.32 431.642 35.112ZM441.264 39H440.16V31.256H441.12L441.28 32.6C441.792 31.608 442.816 31.048 443.936 31.048C446.064 31.048 446.944 32.312 446.944 34.264V39H445.84V34.504C445.84 32.696 445.024 32.056 443.744 32.056C442.16 32.056 441.264 33.208 441.264 34.952V39ZM450.92 39H449.832V32.184H448.28V31.256H449.832V28.808H450.92V31.256H452.472V32.184H450.92V39ZM457.958 31.16V32.152H457.35C455.926 32.152 455.014 33.112 455.014 34.584V39H453.91V31.256H454.95L455.03 32.456C455.334 31.624 456.15 31.08 457.238 31.08C457.478 31.08 457.686 31.096 457.958 31.16ZM461.337 39.192C459.689 39.192 458.713 38.264 458.713 36.904C458.713 35.48 459.801 34.584 461.609 34.44L464.169 34.232V33.976C464.169 32.456 463.257 31.976 462.121 31.976C460.777 31.976 459.977 32.584 459.977 33.624H458.969C458.969 32.056 460.249 31.048 462.153 31.048C463.945 31.048 465.257 31.944 465.257 33.992V39H464.329L464.185 37.64C463.705 38.616 462.649 39.192 461.337 39.192ZM461.593 38.296C463.225 38.296 464.169 37.16 464.169 35.48V35.064L461.881 35.24C460.425 35.368 459.833 36.008 459.833 36.872C459.833 37.816 460.537 38.296 461.593 38.296ZM466.928 35.144C466.928 32.712 468.416 31.048 470.672 31.048C472.464 31.048 473.776 32.088 474.08 33.688H472.976C472.688 32.616 471.76 32.024 470.688 32.024C469.12 32.024 468.016 33.224 468.016 35.128C468.016 36.968 469.04 38.2 470.608 38.2C471.76 38.2 472.688 37.56 472.992 36.568H474.112C473.744 38.152 472.368 39.192 470.608 39.192C468.416 39.192 466.928 37.576 466.928 35.144ZM477.561 39H476.473V32.184H474.921V31.256H476.473V28.808H477.561V31.256H479.113V32.184H477.561V39Z" fill="#FF8972"/>
<path d="M554 61V53H522V61" stroke="#6F41FF"/>
<path d="M538 53V45" stroke="#6F41FF"/>
<path d="M513.71 35.144C513.71 32.712 515.198 31.048 517.454 31.048C519.246 31.048 520.558 32.088 520.862 33.688H519.758C519.47 32.616 518.542 32.024 517.47 32.024C515.902 32.024 514.798 33.224 514.798 35.128C514.798 36.968 515.822 38.2 517.39 38.2C518.542 38.2 519.47 37.56 519.774 36.568H520.894C520.526 38.152 519.15 39.192 517.39 39.192C515.198 39.192 513.71 37.576 513.71 35.144ZM523.67 38.984H522.566V27.336H523.67V32.6C524.166 31.672 525.11 31.048 526.406 31.048C528.438 31.048 529.35 32.312 529.35 34.264V39H528.246V34.504C528.246 32.696 527.398 32.056 526.198 32.056C524.534 32.056 523.67 33.288 523.67 34.776V38.984ZM533.774 39.192C532.126 39.192 531.15 38.264 531.15 36.904C531.15 35.48 532.238 34.584 534.046 34.44L536.606 34.232V33.976C536.606 32.456 535.694 31.976 534.558 31.976C533.214 31.976 532.414 32.584 532.414 33.624H531.406C531.406 32.056 532.686 31.048 534.59 31.048C536.382 31.048 537.694 31.944 537.694 33.992V39H536.766L536.622 37.64C536.142 38.616 535.086 39.192 533.774 39.192ZM534.03 38.296C535.662 38.296 536.606 37.16 536.606 35.48V35.064L534.318 35.24C532.862 35.368 532.27 36.008 532.27 36.872C532.27 37.816 532.974 38.296 534.03 38.296ZM540.454 29.128C540.006 29.128 539.638 28.76 539.638 28.312C539.638 27.864 540.006 27.48 540.454 27.48C540.902 27.48 541.286 27.864 541.286 28.312C541.286 28.76 540.902 29.128 540.454 29.128ZM539.91 39V31.256H541.014V39H539.91ZM544.42 39H543.316V31.256H544.276L544.436 32.6C544.948 31.608 545.972 31.048 547.092 31.048C549.22 31.048 550.1 32.312 550.1 34.264V39H548.996V34.504C548.996 32.696 548.18 32.056 546.9 32.056C545.316 32.056 544.42 33.208 544.42 34.952V39ZM552.844 29.128C552.396 29.128 552.028 28.76 552.028 28.312C552.028 27.864 552.396 27.48 552.844 27.48C553.292 27.48 553.676 27.864 553.676 28.312C553.676 28.76 553.292 29.128 552.844 29.128ZM552.3 39V31.256H553.404V39H552.3ZM558.747 39.192C556.491 39.192 555.163 37.464 555.163 35.144C555.163 32.808 556.491 31.048 558.795 31.048C560.075 31.048 561.099 31.608 561.643 32.728V27.336H562.747V39H561.787L561.675 37.416C561.131 38.616 560.043 39.192 558.747 39.192ZM558.939 38.184C560.635 38.184 561.627 36.904 561.627 35.112C561.627 33.336 560.635 32.04 558.939 32.04C557.259 32.04 556.283 33.336 556.283 35.112C556.283 36.904 557.259 38.184 558.939 38.184Z" fill="#6F41FF"/>
<path d="M392 94V102H554V94" stroke="#FF8972"/>
<path d="M473 102V110" stroke="#FF8972"/>
<path d="M445.743 127.192C444.095 127.192 443.119 126.264 443.119 124.904C443.119 123.48 444.207 122.584 446.015 122.44L448.575 122.232V121.976C448.575 120.456 447.663 119.976 446.527 119.976C445.183 119.976 444.383 120.584 444.383 121.624H443.375C443.375 120.056 444.655 119.048 446.559 119.048C448.351 119.048 449.663 119.944 449.663 121.992V127H448.735L448.591 125.64C448.111 126.616 447.055 127.192 445.743 127.192ZM445.999 126.296C447.631 126.296 448.575 125.16 448.575 123.48V123.064L446.287 123.24C444.831 123.368 444.239 124.008 444.239 124.872C444.239 125.816 444.943 126.296 445.999 126.296ZM457.319 119.256H458.423V127H457.463L457.319 125.688C456.887 126.584 455.815 127.192 454.599 127.192C452.775 127.192 451.783 125.944 451.783 124.056V119.24H452.903V123.704C452.903 125.544 453.719 126.2 454.951 126.2C456.439 126.2 457.319 125.208 457.319 123.368V119.256ZM462.498 127H461.41V120.184H459.858V119.256H461.41V116.808H462.498V119.256H464.05V120.184H462.498V127ZM466.592 126.984H465.488V115.336H466.592V120.6C467.088 119.672 468.032 119.048 469.328 119.048C471.36 119.048 472.272 120.312 472.272 122.264V127H471.168V122.504C471.168 120.696 470.32 120.056 469.12 120.056C467.456 120.056 466.592 121.288 466.592 122.776V126.984ZM473.928 123.128C473.928 120.76 475.592 119.048 477.864 119.048C480.136 119.048 481.8 120.76 481.8 123.128C481.8 125.48 480.136 127.192 477.864 127.192C475.592 127.192 473.928 125.48 473.928 123.128ZM475.048 123.112C475.048 124.936 476.2 126.2 477.864 126.2C479.512 126.2 480.68 124.936 480.68 123.112C480.68 121.32 479.512 120.04 477.864 120.04C476.2 120.04 475.048 121.32 475.048 123.112ZM487.614 119.16V120.152H487.006C485.582 120.152 484.67 121.112 484.67 122.584V127H483.566V119.256H484.606L484.686 120.456C484.99 119.624 485.806 119.08 486.894 119.08C487.134 119.08 487.342 119.096 487.614 119.16ZM489.626 117.128C489.178 117.128 488.81 116.76 488.81 116.312C488.81 115.864 489.178 115.48 489.626 115.48C490.074 115.48 490.458 115.864 490.458 116.312C490.458 116.76 490.074 117.128 489.626 117.128ZM489.082 127V119.256H490.186V127H489.082ZM494.264 127H493.176V120.184H491.624V119.256H493.176V116.808H494.264V119.256H495.816V120.184H494.264V127ZM496.47 130.376V129.464H497.318C497.99 129.464 498.662 129.416 499.046 128.376L499.382 127.464L496.246 119.256H497.414L499.91 126.008L502.358 119.256H503.494L499.942 128.776C499.494 129.992 498.742 130.488 497.638 130.488C497.174 130.488 496.822 130.456 496.47 130.376Z" fill="#FF8972"/>
<path d="M564 94V102H887V94" stroke="#6F41FF"/>
<path d="M724.276 102V110" stroke="#6F41FF"/>
<path d="M697.491 123.144C697.491 120.712 698.979 119.048 701.235 119.048C703.027 119.048 704.339 120.088 704.643 121.688H703.539C703.251 120.616 702.323 120.024 701.251 120.024C699.683 120.024 698.579 121.224 698.579 123.128C698.579 124.968 699.603 126.2 701.171 126.2C702.323 126.2 703.251 125.56 703.555 124.568H704.675C704.307 126.152 702.931 127.192 701.171 127.192C698.979 127.192 697.491 125.576 697.491 123.144ZM708.571 127.192C706.923 127.192 705.947 126.264 705.947 124.904C705.947 123.48 707.035 122.584 708.843 122.44L711.403 122.232V121.976C711.403 120.456 710.491 119.976 709.355 119.976C708.011 119.976 707.211 120.584 707.211 121.624H706.203C706.203 120.056 707.483 119.048 709.387 119.048C711.179 119.048 712.491 119.944 712.491 121.992V127H711.563L711.419 125.64C710.939 126.616 709.883 127.192 708.571 127.192ZM708.827 126.296C710.459 126.296 711.403 125.16 711.403 123.48V123.064L709.115 123.24C707.659 123.368 707.067 124.008 707.067 124.872C707.067 125.816 707.771 126.296 708.827 126.296ZM715.859 127H714.755V115.336H715.859V127ZM719.359 127H718.255V115.336H719.359V127ZM724.747 127.192C722.491 127.192 721.163 125.464 721.163 123.144C721.163 120.808 722.491 119.048 724.795 119.048C726.075 119.048 727.099 119.608 727.643 120.728V115.336H728.747V127H727.787L727.675 125.416C727.131 126.616 726.043 127.192 724.747 127.192ZM724.939 126.184C726.635 126.184 727.627 124.904 727.627 123.112C727.627 121.336 726.635 120.04 724.939 120.04C723.259 120.04 722.283 121.336 722.283 123.112C722.283 124.904 723.259 126.184 724.939 126.184ZM733.274 127.192C731.626 127.192 730.65 126.264 730.65 124.904C730.65 123.48 731.738 122.584 733.546 122.44L736.106 122.232V121.976C736.106 120.456 735.194 119.976 734.058 119.976C732.714 119.976 731.914 120.584 731.914 121.624H730.906C730.906 120.056 732.186 119.048 734.09 119.048C735.882 119.048 737.194 119.944 737.194 121.992V127H736.266L736.122 125.64C735.642 126.616 734.586 127.192 733.274 127.192ZM733.53 126.296C735.162 126.296 736.106 125.16 736.106 123.48V123.064L733.818 123.24C732.362 123.368 731.77 124.008 731.77 124.872C731.77 125.816 732.474 126.296 733.53 126.296ZM741.045 127H739.957V120.184H738.405V119.256H739.957V116.808H741.045V119.256H742.597V120.184H741.045V127ZM746.134 127.192C744.486 127.192 743.51 126.264 743.51 124.904C743.51 123.48 744.598 122.584 746.406 122.44L748.966 122.232V121.976C748.966 120.456 748.054 119.976 746.918 119.976C745.574 119.976 744.774 120.584 744.774 121.624H743.766C743.766 120.056 745.046 119.048 746.95 119.048C748.742 119.048 750.054 119.944 750.054 121.992V127H749.126L748.982 125.64C748.502 126.616 747.446 127.192 746.134 127.192ZM746.39 126.296C748.022 126.296 748.966 125.16 748.966 123.48V123.064L746.678 123.24C745.222 123.368 744.63 124.008 744.63 124.872C744.63 125.816 745.334 126.296 746.39 126.296Z" fill="#6F41FF"/>
<path d="M46.3304 87H43.1064V67.994H46.3304L52.4664 83.126L58.6024 67.994H61.8784V87H58.6544V81.15C58.6544 77.328 58.6544 76.21 58.8364 74.858L54.0004 87H50.9324L46.1224 74.884C46.3044 76.028 46.3304 77.822 46.3304 80.188V87ZM69.4389 87.338C66.7089 87.338 65.0449 85.752 65.0449 83.334C65.0449 80.968 66.7609 79.486 69.8029 79.252L73.6509 78.966V78.68C73.6509 76.938 72.6109 76.236 70.9989 76.236C69.1269 76.236 68.0869 77.016 68.0869 78.368H65.3829C65.3829 75.586 67.6709 73.766 71.1549 73.766C74.6129 73.766 76.7449 75.638 76.7449 79.2V87H73.9629L73.7289 85.102C73.1829 86.428 71.4409 87.338 69.4389 87.338ZM70.4789 84.946C72.4289 84.946 73.6769 83.776 73.6769 81.8V81.124L70.9989 81.332C69.0229 81.514 68.2689 82.164 68.2689 83.204C68.2689 84.374 69.0489 84.946 70.4789 84.946ZM83.0331 87H79.8611V74.156H82.7991L83.0591 75.82C83.8651 74.52 85.4251 73.766 87.1671 73.766C90.3911 73.766 92.0551 75.768 92.0551 79.096V87H88.8831V79.85C88.8831 77.692 87.8172 76.652 86.1791 76.652C84.2291 76.652 83.0331 78.004 83.0331 80.084V87ZM103.881 74.156H107.053V87H104.115L103.881 85.284C103.101 86.506 101.437 87.338 99.7216 87.338C96.7576 87.338 95.0156 85.336 95.0156 82.19V74.156H98.1876V81.072C98.1876 83.516 99.1496 84.504 100.917 84.504C102.919 84.504 103.881 83.334 103.881 80.89V74.156ZM114.151 87.338C111.421 87.338 109.757 85.752 109.757 83.334C109.757 80.968 111.473 79.486 114.515 79.252L118.363 78.966V78.68C118.363 76.938 117.323 76.236 115.711 76.236C113.839 76.236 112.799 77.016 112.799 78.368H110.095C110.095 75.586 112.383 73.766 115.867 73.766C119.325 73.766 121.457 75.638 121.457 79.2V87H118.675L118.441 85.102C117.895 86.428 116.153 87.338 114.151 87.338ZM115.191 84.946C117.141 84.946 118.389 83.776 118.389 81.8V81.124L115.711 81.332C113.735 81.514 112.981 82.164 112.981 83.204C112.981 84.374 113.761 84.946 115.191 84.946ZM127.772 87H124.626V67.656H127.772V87ZM141.799 87H138.575V67.994H141.799L147.935 83.126L154.071 67.994H157.347V87H154.123V81.15C154.123 77.328 154.123 76.21 154.305 74.858L149.469 87H146.401L141.591 74.884C141.773 76.028 141.799 77.822 141.799 80.188V87ZM160.331 80.552C160.331 76.548 163.217 73.792 167.195 73.792C171.173 73.792 174.059 76.548 174.059 80.552C174.059 84.556 171.173 87.312 167.195 87.312C163.217 87.312 160.331 84.556 160.331 80.552ZM163.503 80.552C163.503 82.892 165.011 84.478 167.195 84.478C169.379 84.478 170.887 82.892 170.887 80.552C170.887 78.212 169.379 76.626 167.195 76.626C165.011 76.626 163.503 78.212 163.503 80.552ZM181.852 87.338C178.134 87.338 175.82 84.608 175.82 80.63C175.82 76.626 178.16 73.766 182.034 73.766C183.828 73.766 185.414 74.52 186.22 75.794V67.656H189.366V87H186.454L186.246 84.998C185.466 86.48 183.802 87.338 181.852 87.338ZM182.554 84.426C184.764 84.426 186.194 82.84 186.194 80.526C186.194 78.212 184.764 76.6 182.554 76.6C180.344 76.6 178.992 78.238 178.992 80.526C178.992 82.814 180.344 84.426 182.554 84.426ZM198.417 87.338C194.595 87.338 191.917 84.556 191.917 80.578C191.917 76.548 194.543 73.766 198.313 73.766C202.161 73.766 204.605 76.34 204.605 80.344V81.306L194.933 81.332C195.167 83.594 196.363 84.738 198.469 84.738C200.211 84.738 201.355 84.062 201.719 82.84H204.657C204.111 85.648 201.771 87.338 198.417 87.338ZM198.339 76.366C196.467 76.366 195.323 77.38 195.011 79.304H201.459C201.459 77.536 200.237 76.366 198.339 76.366Z" fill="black"/>
<path d="M253.179 44.0481V127" stroke="black"/>
</g>
<defs>
<clipPath id="clip0_1261_838">
<rect width="1074" height="161" fill="white"/>
</clipPath>
</defs>
</svg>
