<svg width="82" height="79" viewBox="0 0 82 79" fill="none" xmlns="http://www.w3.org/2000/svg">
<g id="Group 1321318302">
<g id="Group 1321318299">
<circle id="Ellipse 18547" cx="42.6279" cy="39.5073" r="38.65" fill="#FF9F8C" stroke="#13035C" stroke-width="0.7"/>
<circle id="Ellipse 18546" cx="37.2377" cy="37.7451" r="36.8877" fill="white" stroke="#13035C" stroke-width="0.7"/>
</g>
<path id="Vector" d="M33.4891 26.7419L33.4891 26.7419L33.4944 26.744C34.7786 27.2718 35.7781 28.0684 36.5066 29.1331L36.5066 29.1331L36.5087 29.1362C37.2306 30.1707 37.6 31.4212 37.6 32.9074C37.6 33.345 37.5478 33.9108 37.4388 34.6101C37.1084 36.5768 36.7119 38.4877 36.2496 40.3428C35.4896 43.3262 34.1872 45.5171 32.3689 46.9596C30.5536 48.3776 28.1018 49.1073 24.9728 49.1073C22.4008 49.1073 20.3313 48.5012 18.7326 47.3208C17.1844 46.1394 16.4 44.4647 16.4 42.2406C16.4 41.7805 16.4523 41.2041 16.5606 40.5068C16.8469 38.9176 17.2547 37.0051 17.7846 34.7679C18.5224 31.776 19.8326 29.5723 21.689 28.1135C23.5456 26.6545 25.9907 25.9073 29.0604 25.9073C30.7209 25.9073 32.1948 26.1884 33.4891 26.7419ZM30.8776 40.3373L30.878 40.3354C31.3886 38.2421 31.7784 36.4116 32.0462 34.845C32.1392 34.354 32.1854 33.8525 32.1854 33.3406C32.1854 32.2637 31.9044 31.3835 31.2733 30.7772C30.6452 30.1737 29.7385 29.9073 28.6284 29.9073C27.3025 29.9073 26.1469 30.3017 25.183 31.0992L25.183 31.0992L25.1792 31.1024C24.2321 31.9061 23.5793 33.1129 23.1897 34.6739C22.7878 36.1749 22.3873 38.0059 21.9879 40.1651C21.8941 40.6364 21.8477 41.1284 21.8477 41.6406C21.8477 42.7286 22.1315 43.6171 22.768 44.229C23.4017 44.8381 24.3168 45.1073 25.438 45.1073C26.763 45.1073 27.9091 44.7135 28.8521 43.9139C29.8227 43.1099 30.4878 41.9014 30.8776 40.3373Z" fill="white" stroke="#13035C" stroke-width="0.8"/>
<path id="Vector_2" d="M43.8717 26.4431L43.8718 26.4432L43.8737 26.4321C43.9008 26.2737 43.9707 26.1541 44.0895 26.0562L44.0898 26.0559C44.2245 25.9447 44.3417 25.9073 44.4492 25.9073H53.0479C55.3837 25.9073 57.2107 26.4207 58.5663 27.4079L58.5686 27.4096C59.9175 28.3773 60.6 29.7694 60.6 31.6445C60.6 32.1858 60.5388 32.7524 60.4146 33.3453L60.4143 33.347C59.8889 35.9102 58.8387 37.7557 57.2975 38.9386L57.2955 38.9402C55.7718 40.1252 53.6493 40.7416 50.882 40.7416H46.518H46.1894L46.1256 41.0639L44.6386 48.5723L44.6385 48.5723L44.6367 48.5826C44.6096 48.741 44.5398 48.8606 44.421 48.9585L44.4207 48.9587C44.286 49.07 44.1687 49.1073 44.0613 49.1073H39.665C39.5471 49.1073 39.486 49.0774 39.4448 49.0362C39.4027 48.9519 39.3874 48.854 39.4112 48.726C39.4113 48.7254 39.4114 48.7247 39.4115 48.724L43.8717 26.4431ZM55.2166 33.4445L55.2187 33.4345L55.2204 33.4244C55.2876 33.0208 55.3228 32.6551 55.3228 32.3302C55.3228 31.5964 55.1188 30.9744 54.6513 30.5339C54.1714 30.0587 53.415 29.873 52.4982 29.873H48.6192H48.2913L48.227 30.1945L46.9986 36.3317L46.9028 36.8102H47.3908H51.1082C52.0958 36.8102 52.9702 36.5215 53.7131 35.9379C54.4884 35.3457 54.9843 34.5031 55.2166 33.4445Z" fill="white" stroke="#13035C" stroke-width="0.8"/>
</g>
</svg>
