<svg width="81" height="77" viewBox="0 0 81 77" fill="none" xmlns="http://www.w3.org/2000/svg">
<circle cx="43.4633" cy="38.5" r="37.1866" fill="#FF9F8C" stroke="#13035C" stroke-width="0.7"/>
<path d="M73.2217 38.3914C73.2217 58.2562 56.913 74.3673 36.7859 74.3673C16.6587 74.3673 0.35 58.2562 0.35 38.3914C0.35 18.5265 16.6587 2.41543 36.7859 2.41543C56.913 2.41543 73.2217 18.5265 73.2217 38.3914Z" fill="white" stroke="#13035C" stroke-width="0.7"/>
<path d="M21.0046 52.2087C19.3264 51.4689 18.1955 49.8844 18.0231 48.0856C18.3045 48.6403 18.7609 49.0665 19.3434 49.3007C20.0382 49.5801 20.8781 49.5735 21.7666 49.2433L21.7797 49.2384L21.7925 49.2326L33.6972 43.8327L33.6972 43.8328L33.7075 43.8278C35.0919 43.1514 35.944 42.3977 36.4515 41.5724C36.9593 40.7465 37.0957 39.891 37.1249 39.0664L37.1251 39.0664V39.0523V36.0468L50.7036 42.2028C50.8896 42.2871 51.1289 42.3099 51.3384 42.1773C51.5494 42.0438 51.6306 41.816 51.6306 41.6096V39.3823C51.6306 39.1811 51.5583 38.9912 51.4615 38.8419C51.3645 38.6924 51.2209 38.5496 51.0385 38.4666L37.1251 32.1297V27.3571L50.7036 33.513C50.7036 33.513 50.7037 33.513 50.7037 33.513C50.8896 33.5974 51.1289 33.6201 51.3384 33.4875C51.5494 33.354 51.6306 33.1262 51.6306 32.9198V30.6925C51.6306 30.4913 51.5583 30.3014 51.4615 30.1521C51.3645 30.0026 51.2208 29.8598 51.0385 29.7768L37.1251 23.4399V18.5466V18.3025C37.667 18.3401 38.2038 18.4726 38.71 18.7001L53.0704 25.1532C54.5968 25.8391 55.5784 27.355 55.5784 29.0262V47.0197C55.5784 49.1326 54.3498 51.0534 52.4298 51.942L39.6805 57.8427C37.8522 58.6888 35.7476 58.708 33.9042 57.8954L21.0046 52.2087ZM31.4663 21.9589L31.8852 22.1477V22.8978V22.8985V22.8991V22.8997V22.9003V22.901V22.9016V22.9022V22.9029V22.9035V22.9041V22.9048V22.9054V22.9061V22.9067V22.9073V22.908V22.9086V22.9093V22.9099V22.9105V22.9112V22.9118V22.9125V22.9131V22.9138V22.9144V22.9151V22.9157V22.9164V22.917V22.9177V22.9184V22.919V22.9197V22.9203V22.921V22.9216V22.9223V22.923V22.9236V22.9243V22.9249V22.9256V22.9263V22.9269V22.9276V22.9283V22.9289V22.9296V22.9303V22.9309V22.9316V22.9323V22.9329V22.9336V22.9343V22.935V22.9356V22.9363V22.937V22.9377V22.9383V22.939V22.9397V22.9404V22.941V22.9417V22.9424V22.9431V22.9438V22.9444V22.9451V22.9458V22.9465V22.9472V22.9478V22.9485V22.9492V22.9499V22.9506V22.9513V22.9519V22.9526V22.9533V22.954V22.9547V22.9554V22.956V22.9567V22.9574V22.9581V22.9588V22.9595V22.9602V22.9609V22.9615V22.9622V22.9629V22.9636V22.9643V22.965V22.9657V22.9664V22.9671V22.9678V22.9684V22.9691V22.9698V22.9705V22.9712V22.9719V22.9726V22.9733V22.974V22.9747V22.9753V22.976V22.9767V22.9774V22.9781V22.9788V22.9795V22.9802V22.9809V22.9816V22.9823V22.983V22.9836V22.9843V22.985V22.9857V22.9864V22.9871V22.9878V22.9885V22.9892V22.9899V22.9905V22.9912V22.9919V22.9926V22.9933V22.994V22.9947V22.9954V22.9961V22.9968V22.9974V22.9981V22.9988V22.9995V23.0002V23.0009V23.0016V23.0022V23.0029V23.0036V23.0043V23.005V23.0057V23.0064V23.007V23.0077V23.0084V23.0091V23.0098V23.0105V23.0111V23.0118V23.0125V23.0132V23.0139V23.0145V23.0152V23.0159V23.0166V23.0172V23.0179V23.0186V23.0193V23.02V23.0206V23.0213V23.022V23.0226V23.0233V23.024V23.0247V23.0253V23.026V23.0267V23.0273V23.028V23.0287V23.0293V23.03V23.0307V23.0313V23.032V23.0327V23.0333V23.034V23.0347V23.0353V23.036V23.0366V23.0373V23.0379V23.0386V23.0393V23.0399V23.0406V23.0412V23.0419V23.0425V23.0432V23.0438V23.0445V23.0451V23.0458V23.0464V23.0471V23.0477V23.0484V23.049V23.0496V23.0503V23.0509V23.0516V23.0522V23.0528V23.0535V23.0541V23.0547V23.0554V23.056V23.0566V23.0573V23.0579V23.0585V23.0591V23.0598V23.0604V23.061V23.0616V23.0623V23.0629V23.0635V23.0641V23.0647V23.0654V23.066V23.0666V23.0672V23.0678V23.0684V23.069V23.0696V23.0702V23.0708V23.0714V23.072V23.0726V23.0732V23.0738V23.0744V23.075V23.0756V23.0762V23.0768V23.0774V23.078V23.0786V23.0792V23.0798V23.0803V23.0809V23.0815V23.0821V23.0827V23.0832V23.0838V23.0844V23.0849V23.0855V23.0861V23.0867V23.0872V23.0878V23.0883V23.0889V23.0895V23.09V23.0906V23.0911V23.0917V23.0922V23.0928V23.0933V23.0939V23.0944V23.095V23.0955V23.0961V23.0966V23.0971V23.0977V23.0982V23.0987V23.0993V23.0998V23.1003V23.1009V23.1014V23.1019V23.1024V23.1029V23.1035V23.104V23.1045V23.105V23.1055V23.106V23.1065V23.107V23.1075V23.108V23.1085V23.109V23.1095V23.11V23.1105V23.111V23.1115V23.112V23.1124V23.1129V23.1134V23.1139V23.1144V23.1148V23.1153V23.1158V23.1162V23.1167V23.1172V23.1176V23.1181V23.1185V23.119V23.1195V23.1199V23.1204V23.1208V23.1212V23.1217V23.1221V23.1226V23.123V23.1234V23.1239V23.1243V23.1247V23.1252V23.1256V23.126V23.1264V23.1268V23.1272V23.1277V23.1281V23.1285V23.1289V23.1293V23.1297V23.1301V23.1305V23.1309V23.1313V23.1317V23.132V23.1324V23.1328V23.1332V23.1336V23.1339V23.1343V23.1347V23.135V23.1354V23.1358V23.1361V23.1365V23.1369V23.1372V23.1376V23.1379V23.1382V23.1386V23.1389V23.1393V23.1396V23.1399V23.1403V23.1406V23.1409V23.1412V23.1416V23.1419V23.1422V23.1425V23.1428V23.1431V23.1434V23.1437V23.144V23.1443V23.1446V23.1449V23.1452V23.1455V23.1458V23.146V23.1463V23.1466V23.1469V23.1471V23.1474V23.1477V23.1479V23.1482V23.1484V23.1487V23.149V23.1492V23.1494V23.1497V23.1499V23.1502V23.1504V23.1506V23.1508V23.1511V23.1513V23.1515V23.1517V23.1519V23.1521V23.1524V23.1526V23.1528V23.153V23.1531V23.1533V23.1535V23.1537V23.1539V23.1541V23.1542V23.1544V23.1546V23.1548V23.1549V23.1551V23.1552V23.1554V23.1555V23.1557V23.1558V23.156V23.1561V23.1563V23.1564V23.1565V23.1566V23.1568V23.1569V23.157V23.1571V23.1572V23.1573V23.1574V23.1575V23.1576V23.1577V23.1578V23.1579V23.158V23.1581V23.1582V23.1582V23.1583V23.1584V23.1584V23.1585V23.1585V23.1586V23.1586V23.1587V23.1587V23.1588V23.1588V23.1588V23.1589V23.1589V23.1589V23.1589V23.159V23.159V23.159L31.8383 37.2895V37.2908C31.8383 37.3602 31.8101 37.46 31.745 37.5606C31.6808 37.6596 31.6025 37.7258 31.5393 37.7551L30.035 38.3928L30.0349 38.3927L30.0273 38.3961C29.9494 38.4311 29.9117 38.4256 29.901 38.4224C29.8937 38.4139 29.8736 38.382 29.8736 38.2975V21.4637V21.2518C29.9202 21.2657 29.9661 21.2828 30.011 21.3031L30.1753 20.9384L30.011 21.3031L31.4663 21.9589ZM29.8978 38.4211C29.8978 38.421 29.8983 38.4212 29.8995 38.4219C29.8983 38.4214 29.8978 38.4211 29.8978 38.4211ZM29.9021 38.4235C29.9032 38.4243 29.9037 38.4248 29.9036 38.4249C29.9036 38.4249 29.903 38.4245 29.9021 38.4235ZM22.5862 24.7304V24.5185C22.6358 24.5333 22.6845 24.5517 22.7321 24.5737C22.7321 24.5737 22.7321 24.5737 22.7321 24.5737L24.1786 25.2403L24.6006 25.4347L24.6006 25.6694V25.6694L24.6005 40.5552C24.6005 40.6246 24.5724 40.7244 24.5072 40.825C24.4421 40.9255 24.3623 40.9922 24.2987 41.0208L24.2917 41.0239L24.2848 41.0273L22.7339 41.7959C22.6601 41.8279 22.6241 41.8226 22.6136 41.8195C22.6064 41.811 22.5862 41.7791 22.5862 41.6946V24.7304ZM22.6162 41.8219C22.6162 41.822 22.6156 41.8216 22.6147 41.8206C22.6158 41.8214 22.6163 41.8219 22.6162 41.8219ZM36.7579 41.7888L36.6642 42.5833L36.6667 42.5836L36.6746 42.5846L36.6771 42.5849L36.7757 41.791L36.7733 41.7907L36.7604 41.7891L36.7579 41.7888Z" stroke="#13035C" stroke-width="0.8"/>
</svg>
