<svg width="38" height="39" viewBox="0 0 38 39" fill="none" xmlns="http://www.w3.org/2000/svg">
<g id="Group 1321318301">
<path id="Ellipse 18554 (Stroke)" fill-rule="evenodd" clip-rule="evenodd" d="M17.8814 2.84012C17.9425 3.27824 17.6368 3.68294 17.1987 3.74404C9.07437 4.87692 2.82068 11.8542 2.82068 20.2908C2.82068 22.5042 3.25064 24.6152 4.03086 26.5462C4.19657 26.9564 3.99843 27.4232 3.58828 27.5889C3.17813 27.7547 2.7113 27.5565 2.54559 27.1463C1.68963 25.0278 1.21875 22.7133 1.21875 20.2908C1.21875 11.0439 8.07256 3.39916 16.9775 2.15743C17.4156 2.09634 17.8203 2.40199 17.8814 2.84012Z" fill="#65B3FF"/>
<path id="Ellipse 18556 (Stroke)" fill-rule="evenodd" clip-rule="evenodd" d="M22.8297 3.07498C22.9323 2.64469 23.3644 2.3791 23.7947 2.48177C31.8496 4.4037 37.8396 11.6474 37.8396 20.2921C37.8396 22.5172 37.4424 24.6513 36.7142 26.6262C36.5612 27.0413 36.1006 27.2537 35.6856 27.1006C35.2705 26.9476 35.0581 26.4871 35.2112 26.072C35.8749 24.2719 36.2377 22.3253 36.2377 20.2921C36.2377 12.4057 30.773 5.79376 23.4229 4.03998C22.9926 3.93732 22.727 3.50527 22.8297 3.07498Z" fill="#65B3FF"/>
<path id="Ellipse 18555 (Stroke)" fill-rule="evenodd" clip-rule="evenodd" d="M5.31631 30.549C5.66262 30.2737 6.16648 30.3313 6.44171 30.6776C9.50376 34.5305 14.228 36.9985 19.5291 36.9985C24.7825 36.9985 29.4693 34.5747 32.5334 30.7813C32.8114 30.4371 33.3157 30.3835 33.6598 30.6615C34.0039 30.9394 34.0575 31.4437 33.7796 31.7879C30.4245 35.9416 25.287 38.6005 19.5291 38.6005C13.7189 38.6005 8.54049 35.8932 5.18762 31.6744C4.91239 31.3281 4.97001 30.8242 5.31631 30.549Z" fill="#65B3FF"/>
<path id="Ellipse 18557" d="M5.46427 25.7942C5.46427 27.2158 4.31188 28.3682 2.89034 28.3682C1.4688 28.3682 0.316406 27.2158 0.316406 25.7942C0.316406 24.3726 1.4688 23.2202 2.89034 23.2202C4.31188 23.2202 5.46427 24.3726 5.46427 25.7942Z" fill="#D9D9D9"/>
<path id="Ellipse 18558" d="M35.2983 31.665C35.2983 33.0866 34.1459 34.239 32.7243 34.239C31.3028 34.239 30.1504 33.0866 30.1504 31.665C30.1504 30.2435 31.3028 29.0911 32.7243 29.0911C34.1459 29.0911 35.2983 30.2435 35.2983 31.665Z" fill="#65B3FF"/>
<path id="Ellipse 18559" d="M5.46427 25.7896C5.46427 27.2111 4.31188 28.3635 2.89034 28.3635C1.4688 28.3635 0.316406 27.2111 0.316406 25.7896C0.316406 24.368 1.4688 23.2156 2.89034 23.2156C4.31188 23.2156 5.46427 24.368 5.46427 25.7896Z" fill="#65B3FF"/>
<path id="Ellipse 18560" d="M25.6713 2.94996C25.6713 4.37153 24.5189 5.52394 23.0974 5.52394C21.6758 5.52394 20.5234 4.37153 20.5234 2.94996C20.5234 1.52839 21.6758 0.375977 23.0974 0.375977C24.5189 0.375977 25.6713 1.52839 25.6713 2.94996Z" fill="#65B3FF"/>
<path id="Subtract" fill-rule="evenodd" clip-rule="evenodd" d="M15.1916 8.1789C15.214 8.19221 15.2364 8.20571 15.2588 8.21941C16.2888 8.84709 17.3855 9.83618 18.4737 11.1213C18.1711 11.5357 17.9926 12.0464 17.9926 12.5989C17.9926 12.9606 18.0691 13.3044 18.2069 13.615C17.1707 14.2598 16.1299 14.9794 15.1026 15.7676C14.6364 16.1252 14.1833 16.489 13.7441 16.8577C13.2991 16.4548 12.7089 16.2095 12.0613 16.2095C11.4712 16.2095 10.9288 16.4132 10.5004 16.7542C9.89798 16.2274 9.39206 15.6982 8.9943 15.1774C8.6887 14.7772 8.45644 14.3953 8.29216 14.0337C9.79675 11.3349 12.2455 9.23437 15.1916 8.1789ZM7.61477 15.4452C7.00743 16.9389 6.67285 18.5726 6.67285 20.2844C6.67285 21.638 6.88205 22.9427 7.26989 24.168C8.00766 22.9227 8.97633 21.6242 10.1382 20.3288C9.77285 19.893 9.55283 19.3312 9.55283 18.718C9.55283 18.388 9.61653 18.0729 9.73232 17.7844C9.03548 17.1825 8.44462 16.5691 7.97581 15.9552C7.84732 15.787 7.72668 15.6168 7.61477 15.4452ZM7.87667 25.7232C8.82881 27.7594 10.299 29.505 12.1177 30.7901C14.3904 28.8935 17.4906 27.0879 21.0469 25.6882C21.7768 25.401 22.5045 25.1392 23.2257 24.9033C23.1835 24.7207 23.1611 24.5305 23.1611 24.3351C23.1611 24.2137 23.1697 24.0944 23.1864 23.9777C22.3254 23.7833 21.4514 23.5546 20.5711 23.291C18.0799 22.5452 15.781 21.5936 13.8013 20.5249C13.3503 20.9593 12.737 21.2265 12.0613 21.2265C11.7562 21.2265 11.4638 21.172 11.1934 21.0723C9.73569 22.6812 8.60869 24.2739 7.87667 25.7232ZM13.2606 31.5109C15.1147 32.5482 17.2522 33.1395 19.5278 33.1395C21.8184 33.1395 23.9691 32.5404 25.8317 31.4903C25.9411 30.1525 25.854 28.5735 25.5657 26.8415C24.8858 26.8138 24.2756 26.5154 23.8401 26.0513C23.0755 26.2963 22.2991 26.5727 21.5163 26.8808C18.2055 28.1838 15.3628 29.8253 13.2606 31.5109ZM27.156 30.6326C29.1525 29.1583 30.7072 27.1201 31.5848 24.753C30.8581 24.8042 30.0895 24.8174 29.287 24.7922C28.8974 24.8447 28.4995 24.9074 28.0943 24.9802C27.9111 25.6707 27.4407 26.2443 26.8188 26.5654C27.065 28.0226 27.1784 29.3938 27.156 30.6326ZM32.0258 23.3053C32.2591 22.3364 32.3827 21.3248 32.3827 20.2844C32.3827 16.7022 30.9176 13.4623 28.5539 11.1312C28.5223 11.1316 28.4904 11.1323 28.4583 11.1332C26.9499 11.1735 25.0695 11.6525 23.0086 12.5326C23.0092 12.5546 23.0095 12.5767 23.0095 12.5989C23.0095 13.283 22.7356 13.9031 22.2916 14.3557C23.1042 15.7442 23.8641 17.2653 24.5401 18.8831C24.9531 19.8714 25.3182 20.8562 25.6348 21.8268L25.6696 21.8266C26.7382 21.8266 27.6508 22.4948 28.0122 23.4363C28.4251 23.4699 28.8293 23.4937 29.2237 23.5077C30.2056 23.3793 31.1445 23.3116 32.0258 23.3053ZM27.1886 9.9603C25.0491 8.37009 22.3983 7.4292 19.5278 7.4292C18.5904 7.4292 17.6764 7.52953 16.7961 7.72005C17.6848 8.39224 18.5855 9.26795 19.4679 10.3123C19.783 10.1697 20.1327 10.0904 20.501 10.0904C21.4089 10.0904 22.2041 10.5727 22.6445 11.2951C24.2705 10.6116 25.8124 10.1573 27.1886 9.9603ZM23.7016 22.7794C23.8941 22.5363 24.1307 22.3296 24.3993 22.1715C24.0987 21.2546 23.7516 20.32 23.3577 19.3772C22.6995 17.802 21.9661 16.3371 21.1907 15.0114C20.9715 15.0739 20.7402 15.1074 20.501 15.1074C19.9454 15.1074 19.432 14.9267 19.0162 14.6209C17.9787 15.2602 16.9276 15.9827 15.8826 16.7844C15.3871 17.1646 14.9083 17.5508 14.4472 17.9411C14.5267 18.1857 14.5698 18.4468 14.5698 18.718C14.5698 18.9647 14.5341 19.2031 14.4678 19.4283C16.3342 20.4304 18.5256 21.3408 20.9387 22.0633C21.8744 22.3434 22.7981 22.5817 23.7016 22.7794Z" fill="#65B3FF"/>
</g>
</svg>
