<svg xmlns="http://www.w3.org/2000/svg" width="16" height="17" viewBox="0 0 16 17" fill="none">
    <circle cx="8" cy="8.66235" r="8" fill="white"/>
    <path d="M4.81374 9.06736C4.81374 9.15532 4.7494 9.25586 4.67004 9.29192L4.28925 9.46489C4.18344 9.51297 4.09766 9.45685 4.09766 9.33955V4.65198L4.81374 4.98818V9.06736Z" fill="black"/>
    <path d="M6.76002 8.14892C6.76002 8.23689 6.69568 8.33743 6.61633 8.37348L6.23553 8.54646C6.12973 8.59454 6.04395 8.53841 6.04395 8.42112V3.7804L6.76002 4.11662V8.14892Z" fill="black"/>
    <path d="M7.97933 9.47289C7.97931 9.472 7.97931 9.47112 7.97931 9.47024V7.80946C7.97931 7.73225 8.05822 7.68086 8.12776 7.71278L11.7561 9.37844C11.8094 9.40291 11.8527 9.37515 11.8527 9.31656V8.7143C11.8527 8.65615 11.81 8.5895 11.7571 8.56512L8.04075 6.85119C8.00332 6.83392 7.97931 6.79616 7.97931 6.75458V5.45982C7.97931 5.3826 8.05822 5.33122 8.12776 5.36313L11.7561 7.0288C11.8094 7.05327 11.8527 7.0255 11.8527 6.9669V6.36466C11.8527 6.30649 11.81 6.23986 11.7571 6.21548L8.04075 4.50153C8.00332 4.48428 7.97931 4.44651 7.97931 4.40492V3.01208H8.30811L12.3329 4.85659C12.4916 4.9287 12.9475 5.36088 13.0903 5.90989L13.0905 10.6845C13.0905 11.3534 12.7022 11.9602 12.0987 12.2343L8.80385 13.7311C8.32768 13.9474 7.55566 13.9474 7.07949 13.7311L3.69246 12.1924L3.59569 11.6717C3.59265 11.6554 3.59682 11.639 3.60796 11.6234L3.80787 11.3435L7.84588 9.4888C7.88186 9.47227 7.93336 9.46695 7.97933 9.47289Z" fill="black"/>
    <path d="M2.95898 10.8163V5.70982C2.95898 5.37561 3.15279 5.07244 3.45418 4.93522L3.99043 4.69105C4.07362 4.65318 4.16898 4.65362 4.25182 4.69228L4.76993 4.93406" stroke="black" stroke-width="0.2"/>
    <path d="M4.76174 5.00642L4.76172 4.54737C4.76172 4.42194 4.8345 4.30818 4.94767 4.25678L5.9363 3.80765C6.0186 3.77026 6.1128 3.77034 6.19503 3.80786L6.70241 4.03939" stroke="black" stroke-width="0.2"/>
    <path d="M6.70654 4.25704V3.66285C6.70654 3.5374 6.77935 3.42363 6.89252 3.37224L7.48402 3.10366C7.81274 2.9544 8.18891 2.95455 8.51751 3.10407L12.3522 4.84893C12.7667 5.03756 13.0333 5.45448 13.0333 5.91411V6.91132V10.7794C13.0333 11.3584 12.7009 11.8847 12.1813 12.1282L8.77686 13.7237C8.28359 13.9549 7.71577 13.9601 7.21842 13.7381L3.77384 12.2005C3.27914 11.9796 2.95996 11.4844 2.95996 10.9376V10.8151" stroke="black" stroke-width="0.2" stroke-linecap="round"/>
    <path d="M6.20575 12.6399C5.75211 12.6671 4.42321 12.5417 3.71118 12.1951C3.10895 11.9019 2.90918 11.1814 2.90918 10.7815C2.90917 10.7431 2.93847 10.7354 2.96514 10.728L3.00761 10.6875C3.00803 10.6911 3.00803 10.6943 3.00767 10.6971C3.01345 11.2268 3.49508 11.5304 4.0944 11.2131L6.20575 12.6399Z" fill="black"/>
    <path d="M7.03809 9.86189C7.89673 9.46977 7.98243 8.99947 7.98243 8.51636L8.84061 9.8619L8.01022 9.4588L7.03809 9.86189Z" fill="black"/>
</svg>
