<svg width="28" height="24" viewBox="0 0 28 24" fill="none" xmlns="http://www.w3.org/2000/svg">
    <path d="M8.80572 23.5C19.3722 23.5 25.1507 14.6521 25.1507 6.97956C25.1507 6.72829 25.1457 6.47816 25.1344 6.22907C26.2588 5.40677 27.2292 4.38864 28 3.2224C26.9707 3.68493 25.863 3.99623 24.701 4.13659C25.8871 3.41778 26.7976 2.2806 27.2272 0.925098C26.0995 1.60124 24.8658 2.07788 23.5794 2.33448C22.5311 1.20587 21.0386 0.5 19.3861 0.5C16.2137 0.5 13.6411 3.10026 13.6411 6.30549C13.6411 6.76118 13.6915 7.20427 13.7901 7.62943C9.0156 7.3866 4.78191 5.07614 1.9485 1.56295C1.43818 2.44904 1.16976 3.45611 1.17065 4.4813C1.17065 6.49576 2.1848 8.27406 3.72707 9.31446C2.8148 9.2863 1.92255 9.03725 1.12535 8.58824C1.1245 8.61262 1.1245 8.63636 1.1245 8.66241C1.1245 11.4743 3.10464 13.8221 5.73323 14.3541C5.23954 14.49 4.73012 14.5587 4.21844 14.5584C3.84892 14.5584 3.48879 14.5217 3.13879 14.4538C3.87015 16.7608 5.99086 18.4396 8.50523 18.4865C6.53903 20.0441 4.06222 20.9719 1.37029 20.9719C0.912361 20.9723 0.454805 20.9454 0 20.8915C2.54242 22.5385 5.5613 23.4996 8.806 23.4996"
          fill="black"/>
</svg>
