<svg width="37" height="37" viewBox="0 0 37 37" fill="none" xmlns="http://www.w3.org/2000/svg">
<g id="Frame 1747">
<path id="Rectangle 405" d="M25.9702 2.1355H10.9581C8.57363 2.1355 6.64062 4.0685 6.64062 6.45299V16.083V20.4827C6.64062 22.8672 8.57363 24.8002 10.9581 24.8002H25.9702C28.3547 24.8002 30.2877 22.8672 30.2877 20.4827V16.083V6.45298C30.2877 4.0685 28.3547 2.1355 25.9702 2.1355Z" fill="white" stroke="#65B3FF" stroke-width="2.42883"/>
<path id="Vector 14663" d="M11.9219 8.60522H17.2502" stroke="#65B3FF" stroke-width="2.42883" stroke-linecap="round"/>
<path id="Vector 14664" d="M11.9219 13.4634H22.9173" stroke="#65B3FF" stroke-width="2.42883" stroke-linecap="round"/>
<path id="Rectangle 406" d="M2.125 21.7819C2.125 20.1922 3.41367 18.9036 5.00332 18.9036H9.9699C10.5439 18.9036 11.1047 19.0752 11.5804 19.3963L16.4359 22.6743C16.9116 22.9955 17.4724 23.1671 18.0464 23.1671H32.8166C34.4062 23.1671 35.6949 24.4557 35.6949 26.0454V31.8182C35.6949 33.4079 34.4062 34.6965 32.8166 34.6965H5.00332C3.41367 34.6965 2.125 33.4079 2.125 31.8182V21.7819Z" fill="white" stroke="#65B3FF" stroke-width="2.42883"/>
</g>
</svg>
