<svg width="40" height="41" viewBox="0 0 40 41" fill="none" xmlns="http://www.w3.org/2000/svg">
<g id="Frame 1747">
<path id="Rectangle 405" d="M27.6809 1.22925H11.5792C8.93361 1.22925 6.72699 3.25156 6.49682 5.88709L4.52338 28.4837C4.263 31.4651 6.61298 34.0293 9.60573 34.0293H29.6544C32.6471 34.0293 34.9971 31.4651 34.7367 28.4837L32.7633 5.88709C32.5331 3.25156 30.3265 1.22925 27.6809 1.22925Z" stroke="#65B3FF" stroke-width="2.37116"/>
<path id="Rectangle 406" d="M29.6392 26.2412H9.62084C7.98839 26.2412 6.52917 27.2593 5.9657 28.7915C5.03077 31.3336 6.91219 34.0302 9.62084 34.0302H29.6392C32.3479 34.0302 34.2293 31.3336 33.2944 28.7915C32.7309 27.2593 31.2717 26.2412 29.6392 26.2412Z" stroke="#65B3FF" stroke-width="2.37116"/>
<path id="Vector 14670" d="M22.4805 30.303H28.3449" stroke="#65B3FF" stroke-width="2.37116" stroke-linecap="round"/>
<path id="Vector" d="M24.2279 19.8505C25.2083 19.8505 26.2551 19.5968 26.7395 18.7445C27.1997 17.9349 27.3212 16.9512 27.0268 16.022C26.5764 14.6006 25.1974 13.8219 23.7063 13.823H22.845C22.2819 11.6286 20.424 10.0084 18.1733 9.74921C15.9226 9.48998 13.7451 10.6453 12.6979 12.6543C11.9593 14.0711 11.8393 16.2247 12.3592 17.9663" stroke="#65B3FF" stroke-width="2.37116" stroke-linecap="round" stroke-linejoin="round"/>
</g>
</svg>
