<svg width="43" height="41" viewBox="0 0 43 41" fill="none" xmlns="http://www.w3.org/2000/svg">
<g id="Frame 1321318596">
<path id="Vector 14663" d="M15.249 12.4175H26.65" stroke="#65B3FF" stroke-width="2.0606" stroke-linecap="round"/>
<path id="Vector 14664" d="M15.248 17.7212H21.0555" stroke="#65B3FF" stroke-width="2.0606" stroke-linecap="round"/>
<path id="Rectangle 406" d="M4.4668 23.3704C4.4668 21.3453 6.72501 20.1387 8.40847 21.2642L19.9536 28.9828C20.799 29.548 21.9005 29.5529 22.7509 28.9953L34.6382 21.201C36.3231 20.0963 38.561 21.3049 38.561 23.3197V34.2928C38.561 35.692 37.4266 36.8263 36.0274 36.8263H7.00035C5.60111 36.8263 4.4668 35.692 4.4668 34.2928L4.4668 23.3704Z" stroke="#65B3FF" stroke-width="2.0606"/>
<g id="Mask group">
<mask id="mask0_988_779" style="mask-type:alpha" maskUnits="userSpaceOnUse" x="3" y="14" width="37" height="13">
<rect id="Rectangle 407" x="4.46582" y="15.1648" width="34.0942" height="10.6425" rx="2.53355" stroke="white" stroke-width="2.0606"/>
</mask>
<g mask="url(#mask0_988_779)">
<path id="Rectangle 408" d="M3.58984 22.0386C3.58984 23.468 5.3045 24.1989 6.33567 23.2089C6.6378 22.9189 7.04037 22.7569 7.45918 22.7569H10.0232L21.0335 23.4259C21.2217 23.4374 21.4106 23.4278 21.5967 23.3973L33.6451 21.4238C34.2497 21.3247 34.8697 21.4481 35.3902 21.7711L38.0855 23.4432C38.6605 23.8325 39.4368 23.4206 39.4368 22.7262L39.4368 11.9464C39.4368 9.57115 36.4621 8.50168 34.9497 10.3332L33.995 11.4892C33.6201 11.9432 33.4151 12.5136 33.4151 13.1024V14.9315C33.4151 16.3574 32.2388 17.5024 30.8134 17.4641L12.9377 16.9836C11.5655 16.9467 10.4722 15.8237 10.4722 14.451V13.3216C10.4722 12.6831 10.2312 12.0681 9.79724 11.5997L7.98195 9.64029C6.41607 7.95007 3.58984 9.05803 3.58984 11.3621L3.58984 22.0386Z" fill="#65B3FF"/>
</g>
</g>
<g id="Mask group_2">
<mask id="mask1_988_779" style="mask-type:alpha" maskUnits="userSpaceOnUse" x="0" y="0" width="43" height="29">
<path id="Rectangle 409" d="M0.991211 15.4426C0.991211 16.3442 1.47035 17.1779 2.24938 17.6317L20.0522 28.0036C20.8338 28.459 21.799 28.463 22.5844 28.0142L40.7617 17.6282C41.5511 17.1771 42.0383 16.3376 42.0383 15.4284L42.0384 3.4608C42.0384 2.06156 40.904 0.927246 39.5048 0.927246H3.52476C2.12552 0.927246 0.991211 2.06156 0.991211 3.4608L0.991211 15.4426Z" fill="#D9D9D9"/>
</mask>
<g mask="url(#mask1_988_779)">
<path id="Rectangle 405" d="M28.8883 5.25073H14.1411C12.0423 5.25073 10.3408 6.9522 10.3408 9.05106L10.3408 21.1989L10.3408 27.3662C10.3408 29.4651 12.0423 31.1665 14.1411 31.1665H28.8883C30.9872 31.1665 32.6886 29.4651 32.6886 27.3662L32.6886 21.1989V9.05106C32.6886 6.9522 30.9871 5.25073 28.8883 5.25073Z" stroke="#65B3FF" stroke-width="2.0606"/>
</g>
</g>
</g>
</svg>
