<svg width="128" height="116" viewBox="0 0 128 116" fill="none" xmlns="http://www.w3.org/2000/svg">
<path d="M105.811 52.8537C105.811 81.3462 82.4175 104.465 53.5335 104.465C24.6495 104.465 1.25586 81.3462 1.25586 52.8537C1.25586 24.3613 24.6495 1.24219 53.5335 1.24219C82.4175 1.24219 105.811 24.3613 105.811 52.8537Z" fill="white" stroke="#13035C" stroke-width="2"/>
<g filter="url(#filter0_d_1371_291)">
<circle cx="99.5353" cy="86.6101" r="26.2346" fill="white"/>
<circle cx="99.5353" cy="86.6101" r="25.4846" stroke="#13035C" stroke-width="1.5"/>
</g>
<rect x="87.4248" y="74.0376" width="9.81687" height="9.81687" rx="1.25" fill="#DADAFF" stroke="#13035C" stroke-width="1.5"/>
<rect x="101.828" y="74.0376" width="9.81687" height="9.81687" rx="1.25" fill="#DADAFF" stroke="#13035C" stroke-width="1.5"/>
<rect x="101.828" y="88.4409" width="9.81687" height="9.81687" rx="1.25" fill="#DADAFF" stroke="#13035C" stroke-width="1.5"/>
<rect x="87.4248" y="88.4409" width="9.81687" height="9.81687" rx="1.25" fill="#DADAFF" stroke="#13035C" stroke-width="1.5"/>
<path d="M34.8999 52.7718C34.8999 53.2173 34.5655 53.7265 34.153 53.9091L32.1736 54.7852C31.6236 55.0287 31.1777 54.7445 31.1777 54.1504V30.4087L34.8999 32.1115V52.7718Z" fill="#13035C"/>
<path d="M45.0151 48.1189C45.0151 48.5645 44.6807 49.0737 44.2682 49.2563L42.2888 50.1324C41.7389 50.3759 41.293 50.0916 41.293 49.4975V25.9932L45.0151 27.6961V48.1189Z" fill="#13035C"/>
<path d="M51.3584 54.8253C51.3583 54.8208 51.3583 54.8164 51.3583 54.8119V46.4003C51.3583 46.0093 51.7684 45.749 52.1299 45.9107L70.99 54.3469C71.2669 54.4709 71.4921 54.3303 71.4921 54.0335V50.9832C71.4921 50.6887 71.2702 50.3511 70.9953 50.2276L51.6777 41.5469C51.4831 41.4594 51.3583 41.2682 51.3583 41.0576V34.4998C51.3583 34.1088 51.7684 33.8485 52.1299 34.0102L70.99 42.4464C71.2669 42.5704 71.4921 42.4298 71.4921 42.1329V39.0827C71.4921 38.7881 71.2702 38.4506 70.9953 38.3271L51.6777 29.6463C51.4831 29.5589 51.3583 29.3677 51.3583 29.157V22.1025H53.0674L73.988 31.4446C74.813 31.8098 77.1828 33.9988 77.9251 36.7794L77.9259 60.9617C77.9259 64.35 75.908 67.4228 72.7709 68.8114L55.6442 76.3923C53.1691 77.4879 49.1561 77.4879 46.681 76.3923L29.0754 68.5993L28.5724 65.962C28.5566 65.8794 28.5783 65.7961 28.6362 65.7172L29.6753 64.2996L50.6647 54.9059C50.8518 54.8222 51.1195 54.7952 51.3584 54.8253Z" fill="#13035C"/>
<path d="M25.2578 61.6296V35.7665C25.2578 34.0738 26.2652 32.5383 27.8318 31.8433L30.6192 30.6066C31.0517 30.4148 31.5473 30.417 31.9779 30.6128L34.671 31.8374" stroke="#13035C" stroke-width="0.603202"/>
<path d="M34.629 32.204L34.6289 29.879C34.6289 29.2437 35.0072 28.6676 35.5955 28.4072L40.7344 26.1325C41.1621 25.9431 41.6518 25.9435 42.0792 26.1335L44.7166 27.3062" stroke="#13035C" stroke-width="0.603202"/>
<path d="M44.7392 28.4081V25.3986C44.7392 24.7633 45.1177 24.1871 45.706 23.9268L48.7805 22.5664C50.4892 21.8105 52.4446 21.8112 54.1526 22.5685L74.085 31.4059C76.2398 32.3613 77.6256 34.4729 77.6256 36.8008V41.8515V61.4426C77.6256 64.3752 75.8974 67.0408 73.1969 68.274L55.5007 76.3549C52.9367 77.5257 49.9852 77.5523 47.4 76.4279L29.4952 68.6401C26.9237 67.5216 25.2646 65.0132 25.2646 62.2439V61.6233" stroke="#13035C" stroke-width="0.603202" stroke-linecap="round"/>
<path d="M42.1354 70.8656C39.7775 71.0032 32.8699 70.3684 29.1688 68.6127C26.0384 67.1277 25 63.4787 25 61.4531C25 61.2588 25.1522 61.2197 25.2909 61.1824L25.5117 60.9771C25.5138 60.9951 25.5138 61.0113 25.5119 61.0259C25.542 63.7086 28.0455 65.2462 31.1607 63.6393L42.1354 70.8656Z" fill="#13035C"/>
<path d="M46.46 56.7953C50.9232 54.8093 51.3686 52.4273 51.3686 49.9805L55.8294 56.7954L51.5131 54.7538L46.46 56.7953Z" fill="#13035C"/>
<defs>
<filter id="filter0_d_1371_291" x="73.3008" y="60.3755" width="54.3368" height="55.2713" filterUnits="userSpaceOnUse" color-interpolation-filters="sRGB">
<feFlood flood-opacity="0" result="BackgroundImageFix"/>
<feColorMatrix in="SourceAlpha" type="matrix" values="0 0 0 0 0 0 0 0 0 0 0 0 0 0 0 0 0 0 127 0" result="hardAlpha"/>
<feOffset dx="1.86806" dy="2.80209"/>
<feComposite in2="hardAlpha" operator="out"/>
<feColorMatrix type="matrix" values="0 0 0 0 0.0745098 0 0 0 0 0.0117647 0 0 0 0 0.360784 0 0 0 1 0"/>
<feBlend mode="normal" in2="BackgroundImageFix" result="effect1_dropShadow_1371_291"/>
<feBlend mode="normal" in="SourceGraphic" in2="effect1_dropShadow_1371_291" result="shape"/>
</filter>
</defs>
</svg>
